<?xml version="1.0" encoding="UTF-8" standalone="no"?>
<svg
   xmlns:dc="http://purl.org/dc/elements/1.1/"
   xmlns:cc="http://creativecommons.org/ns#"
   xmlns:rdf="http://www.w3.org/1999/02/22-rdf-syntax-ns#"
   xmlns:svg="http://www.w3.org/2000/svg"
   xmlns="http://www.w3.org/2000/svg"
   viewBox="0 0 382.66666 258.66666"
   height="258.66666"
   width="382.66666"
   xml:space="preserve"
   id="svg1202"
   version="1.1"><metadata
     id="metadata1208"><rdf:RDF><cc:Work
         rdf:about=""><dc:format>image/svg+xml</dc:format><dc:type
           rdf:resource="http://purl.org/dc/dcmitype/StillImage" /><dc:title></dc:title></cc:Work></rdf:RDF></metadata><defs
     id="defs1206" /><g
     transform="matrix(1.3333333,0,0,-1.3333333,0,258.66667)"
     id="g1210"><g
       transform="scale(0.1)"
       id="g1212"><path
         id="path1214"
         style="fill:#bfbfbf;fill-opacity:1;fill-rule:evenodd;stroke:none"
         d="m 24,379.301 h 2832 v 1097.4 H 24 Z" /><path
         id="path1216"
         style="fill:#404040;fill-opacity:1;fill-rule:evenodd;stroke:none"
         d="m 62.0078,432 h 2745.98 V 896 H 62.0078 Z" /><path
         id="path1218"
         style="fill:#808080;fill-opacity:1;fill-rule:evenodd;stroke:none"
         d="m 63.9961,960 h 2749.98 v 464 H 63.9961 Z" /><g
         transform="scale(10)"
         id="g1220"><text
           id="text1226"
           style="font-variant:normal;font-weight:normal;font-size:24.78000069px;font-family:Times;-inkscape-font-specification:Times-Roman;writing-mode:lr-tb;fill:#000000;fill-opacity:1;fill-rule:nonzero;stroke:none"
           transform="matrix(1,0,0,-1,57.1551,106.003)"><tspan
             id="tspan1222"
             y="0"
             x="0 13.77768 26.167681 45.446522 56.448841 62.643841 69.532677 80.535004 92.925003">Some text</tspan><tspan
             id="tspan1224"
             y="49.5602"
             x="0 22.029421 34.419418 42.671162 53.673481 59.868481 66.757317 77.759644 90.149643">More text</tspan></text>
</g><path
         id="path1228"
         style="fill:none;stroke:#000000;stroke-width:16;stroke-linecap:butt;stroke-linejoin:miter;stroke-miterlimit:10;stroke-dasharray:none;stroke-opacity:1"
         d="M 692,1464 428,1792" /><g
         transform="scale(10)"
         id="g1230"><text
           id="text1234"
           style="font-variant:normal;font-weight:bold;font-size:11.19999981px;font-family:Helvetica;-inkscape-font-specification:Helvetica-Bold;writing-mode:lr-tb;fill:#000000;fill-opacity:1;fill-rule:nonzero;stroke:none"
           transform="matrix(1,0,0,-1,39.6,178.646)"><tspan
             id="tspan1232"
             y="0"
             x="0 8.0864 11.2 18.670401 21.784 28.627199 35.470402">DIV box</tspan></text>
</g><path
         id="path1236"
         style="fill:none;stroke:#ff0000;stroke-width:16;stroke-linecap:butt;stroke-linejoin:miter;stroke-miterlimit:10;stroke-dasharray:none;stroke-opacity:1"
         d="m 1764,1272 208,400" /><g
         transform="scale(10)"
         id="g1238"><text
           id="text1242"
           style="font-variant:normal;font-weight:bold;font-size:11.19999981px;font-family:Helvetica;-inkscape-font-specification:Helvetica-Bold;writing-mode:lr-tb;fill:#ff0000;fill-opacity:1;fill-rule:nonzero;stroke:none"
           transform="matrix(1,0,0,-1,149.2,168.246)"><tspan
             id="tspan1240"
             y="0"
             x="0 6.2272 13.0704 19.913601 26.7568 32.984001 42.9408 49.784 56.627201 62.854401 65.968002 72.811203 79.654404">anonymous box</tspan></text>
</g><path
         id="path1244"
         style="fill:none;stroke:#000000;stroke-width:16;stroke-linecap:butt;stroke-linejoin:miter;stroke-miterlimit:10;stroke-dasharray:none;stroke-opacity:1"
         d="M 1692,576 1916,208" /><g
         transform="scale(10)"
         id="g1246"><text
           id="text1250"
           style="font-variant:normal;font-weight:bold;font-size:11.19999981px;font-family:Helvetica;-inkscape-font-specification:Helvetica-Bold;writing-mode:lr-tb;fill:#000000;fill-opacity:1;fill-rule:nonzero;stroke:none"
           transform="matrix(1,0,0,-1,179.6,2.6457)"><tspan
             id="tspan1248"
             y="0"
             x="0 7.4703999 10.584 17.4272 24.270399">P box</tspan></text>
</g></g></g></svg>