<?xml version="1.0" encoding="UTF-8" standalone="no"?>
<svg
   xmlns:dc="http://purl.org/dc/elements/1.1/"
   xmlns:cc="http://creativecommons.org/ns#"
   xmlns:rdf="http://www.w3.org/1999/02/22-rdf-syntax-ns#"
   xmlns:svg="http://www.w3.org/2000/svg"
   xmlns="http://www.w3.org/2000/svg"
   viewBox="0 0 453.33334 161.33333"
   height="161.33333"
   width="453.33334"
   xml:space="preserve"
   id="svg1431"
   version="1.1"><metadata
     id="metadata1437"><rdf:RDF><cc:Work
         rdf:about=""><dc:format>image/svg+xml</dc:format><dc:type
           rdf:resource="http://purl.org/dc/dcmitype/StillImage" /><dc:title></dc:title></cc:Work></rdf:RDF></metadata><defs
     id="defs1435" /><g
     transform="matrix(1.3333333,0,0,-1.3333333,0,161.33333)"
     id="g1439"><g
       transform="scale(0.1)"
       id="g1441"><path
         id="path1443"
         style="fill:#c3c3c3;fill-opacity:1;fill-rule:evenodd;stroke:none"
         d="m 16.1641,13.0859 h 3379.03 v 1187.35 H 16.1641 Z" /><path
         id="path1445"
         style="fill:none;stroke:#c3c3c3;stroke-width:9.55325031;stroke-linecap:butt;stroke-linejoin:miter;stroke-miterlimit:10;stroke-dasharray:none;stroke-opacity:1"
         d="m 16.1641,13.0859 h 3379.03 v 1187.35 H 16.1641 Z" /><g
         transform="scale(10)"
         id="g1447"><text
           id="text1451"
           style="font-variant:normal;font-weight:normal;font-size:15.35990047px;font-family:Helvetica;-inkscape-font-specification:Helvetica;writing-mode:lr-tb;fill:#000000;fill-opacity:1;fill-rule:nonzero;stroke:none"
           transform="matrix(1,0,0,-1,13.1195,89.2871)"><tspan
             id="tspan1449"
             y="0"
             x="0 9.3848991 14.499745 23.03985 31.579954 36.694801 40.104698 47.784649 55.4646 59.73465 64.0047 72.544807 81.084915 85.354965 97.30497 102.41982 110.95992 119.50002 123.77007 128.04013 140.83493 149.37503 157.91513 162.18518 169.86513 174.13519 184.38023 192.92035 200.6003">Fredrick the Great meets Bach</tspan></text>
<text
           id="text1455"
           style="font-style:oblique;font-variant:normal;font-size:11.52000046px;font-family:Helvetica;-inkscape-font-specification:Helvetica-Oblique;writing-mode:lr-tb;fill:#000000;fill-opacity:1;fill-rule:nonzero;stroke:none"
           transform="matrix(1,0,0,-1,14.079656,67.193)"><tspan
             id="tspan1453"
             y="0"
             x="0 5.7600002 12.16512 18.57024 24.975361 31.38048 37.785599 40.988159 49.305599 51.863041 57.623039 64.02816 66.585602 72.990723 79.395844 85.155838 88.358398 95.397118 101.80224 105.6384 111.3984 117.80352">Johann Nikolaus Forkel</tspan></text>
<text
           id="text1463"
           style="font-variant:normal;font-weight:normal;font-size:11.52000046px;font-family:Helvetica;-inkscape-font-specification:Helvetica;writing-mode:lr-tb;fill:#000000;fill-opacity:1;fill-rule:nonzero;stroke:none"
           transform="matrix(1,0,0,-1,15.039812,41.2875)"><tspan
             id="tspan1457"
             y="0"
             x="0 8.9625597 15.36768 21.7728 24.975361 31.38048 37.14048 43.545601 49.950722 52.50816 58.91328 65.318398 68.520958 71.723518 74.28096 80.686081 86.446083 89.648643 92.851196 99.256317 105.01632 108.21888 114.624 121.02912 124.23168 132.54912 138.95424 144.71423 147.91679 154.32191 160.72704 163.9296 167.13216 169.68961 176.09473 182.49985 185.70239 192.10751 194.66496 200.42496 203.62752 206.83008 209.38753 215.79263 218.99519 225.40031 228.60287 232.43904 238.84416 245.24928 251.6544 257.4144 260.61697 267.02209 273.42719 279.83231 283.03488 289.44 291.99744">One evening, just as he was getting his flute ready and his</tspan><tspan
             id="tspan1459"
             y="11.5199"
             x="0 9.5961599 16.00128 21.76128 24.31872 30.07872 32.636162 39.041279 45.4464 51.206402 54.408958 62.726398 69.131523 72.967682 79.372803 82.575363 88.980476 94.740479 100.50048 106.9056 116.50176 122.90688 125.46432 131.86945 138.27457 141.47713 144.67969 151.08479 157.48991 160.69247 167.0976 170.30016 173.50272 176.06017 181.82016 188.22528 192.06145 195.26401 201.66911 205.50528 211.9104 218.31552 224.72064 231.12576 234.32832 237.53088 243.936 246.49344 256.0896 259.29214 265.69727 268.89984 271.45728 274.01471 279.77472 282.97729 286.17984 292.58496">musicians were assembled, an officer brought him a list of</tspan><tspan
             id="tspan1461"
             y="23.039801"
             x="0 3.2025599 9.6076803 16.0128 19.215361 24.975361 28.177919 32.01408 38.419201 44.824322 51.229439 57.63456 61.470718 67.230721 70.433281 78.750717 85.155838 91.560959 94.763519 101.16864 107.57376 113.97888 117.18144 123.58656 127.42272 131.25888 133.81631 139.57632 145.98145 152.38657">the strangers who had arrived.</tspan></text>
</g></g></g></svg>