<?xml version="1.0" encoding="UTF-8" standalone="no"?>
<svg
   xmlns:dc="http://purl.org/dc/elements/1.1/"
   xmlns:cc="http://creativecommons.org/ns#"
   xmlns:rdf="http://www.w3.org/1999/02/22-rdf-syntax-ns#"
   xmlns:svg="http://www.w3.org/2000/svg"
   xmlns="http://www.w3.org/2000/svg"
   viewBox="0 0 456 128"
   height="128"
   width="456"
   xml:space="preserve"
   id="svg1328"
   version="1.1"><metadata
     id="metadata1334"><rdf:RDF><cc:Work
         rdf:about=""><dc:format>image/svg+xml</dc:format><dc:type
           rdf:resource="http://purl.org/dc/dcmitype/StillImage" /><dc:title></dc:title></cc:Work></rdf:RDF></metadata><defs
     id="defs1332" /><g
     transform="matrix(1.3333333,0,0,-1.3333333,0,128)"
     id="g1336"><g
       transform="scale(0.1)"
       id="g1338"><path
         id="path1340"
         style="fill:#c3c3c3;fill-opacity:1;fill-rule:evenodd;stroke:none"
         d="m 15.1992,16.3906 h 3398.39 v 940.797 H 15.1992 Z" /><path
         id="path1342"
         style="fill:none;stroke:#c3c3c3;stroke-width:9.55325031;stroke-linecap:butt;stroke-linejoin:miter;stroke-miterlimit:10;stroke-dasharray:none;stroke-opacity:1"
         d="m 15.1992,16.3906 h 3398.39 v 940.797 H 15.1992 Z" /><g
         transform="scale(10)"
         id="g1344"><text
           id="text1356"
           style="font-variant:normal;font-weight:normal;font-size:11.52000046px;font-family:Helvetica;-inkscape-font-specification:Helvetica;writing-mode:lr-tb;fill:#000000;fill-opacity:1;fill-rule:nonzero;stroke:none"
           transform="matrix(1,0,0,-1,13.0445,67.2023)"><tspan
             id="tspan1346"
             y="0"
             x="0 7.0387201 10.87488 17.280001 23.68512 27.52128 30.07872 35.838718 41.598721 44.801281 48.003841 54.408958 60.814079 64.01664 72.979202 76.815361 83.220482 89.625603 92.828163 96.030724 105.62688 112.032 118.43712 121.63968 127.39968 130.60223 138.28609 144.69119 150.4512">Fredrick the Great meets Bach</tspan><tspan
             id="tspan1348"
             y="13.4395"
             x="-0.96484399 4.795156 11.200276 17.605396 24.010515 30.415636 36.820755 40.023315 48.340755 50.898197 56.658195 63.063316 65.620758 72.025879 78.431 84.190994 87.393555 94.432274 100.83739 104.67355 110.43356 116.83868">Johann Nikolaus Forkel</tspan><tspan
             id="tspan1350"
             y="25.9149"
             x="-0.0046879998 8.9578724 15.362992 21.768112 24.970673 31.375792 37.135792 43.540913 49.946033 52.503471 58.908592 65.313713 68.516273 71.718834 74.276276 80.681389 86.441391 89.643951 92.846512 99.251633 105.01163 108.2142 114.61931 121.02443 124.22699 132.54443 138.94955 144.70955 147.91211 154.31723 160.72235 163.92491 167.12747 169.68491 176.09003 182.49515 185.69771 192.10283 194.66028 200.42027 203.62283 206.82539 209.38283 215.78795 218.99051 225.39563 228.59819 232.43436 238.83948 245.2446 251.64972 257.4097 260.61227 267.0174 273.42252 279.82764 283.03018 289.4353 291.99274">One evening, just as he was getting his flute ready and his</tspan><tspan
             id="tspan1352"
             y="37.434799"
             x="-0.0046879998 9.5914717 15.996592 21.756592 24.314032 30.074032 32.631474 39.036591 45.441711 51.201714 54.40427 62.72171 69.126831 72.96299 79.368111 82.570671 88.975792 94.735794 100.49579 106.90091 116.49707 122.90219 125.45963 131.86475 138.26987 141.47243 144.67499 151.08011 157.48523 160.68779 167.09291 170.29547 173.49803 176.05547 181.81548 188.2206 192.05675 195.25931 201.66443 205.5006 211.90572 218.31084 224.71596 231.12108 234.32364 237.5262 243.9313 246.48875 256.0849 259.28748 265.6926 268.89514 271.45261 274.01004 279.77002 282.9726 286.17514 292.58026">musicians were assembled, an officer brought him a list of</tspan><tspan
             id="tspan1354"
             y="48.9547"
             x="-0.0046879998 3.1978719 9.6029921 16.008112 19.210672 24.970673 28.173231 32.009392 38.414513 44.819633 51.224751 57.629871 61.46603 67.226028 70.428589 78.746033 85.151154 91.556274 94.758835 101.16396 107.56907 113.97419 117.17675 123.58187 127.41803 131.2542 133.81163 139.57162 145.97675 152.38187">the strangers who had arrived.</tspan></text>
</g></g></g></svg>