<?xml version="1.0" encoding="UTF-8" standalone="no"?>
<svg
   xmlns:dc="http://purl.org/dc/elements/1.1/"
   xmlns:cc="http://creativecommons.org/ns#"
   xmlns:rdf="http://www.w3.org/1999/02/22-rdf-syntax-ns#"
   xmlns:svg="http://www.w3.org/2000/svg"
   xmlns="http://www.w3.org/2000/svg"
   viewBox="0 0 310.66666 180"
   height="180"
   width="310.66666"
   xml:space="preserve"
   id="svg2143"
   version="1.1"><metadata
     id="metadata2149"><rdf:RDF><cc:Work
         rdf:about=""><dc:format>image/svg+xml</dc:format><dc:type
           rdf:resource="http://purl.org/dc/dcmitype/StillImage" /><dc:title></dc:title></cc:Work></rdf:RDF></metadata><defs
     id="defs2147" /><g
     transform="matrix(1.3333333,0,0,-1.3333333,0,180)"
     id="g2151"><g
       transform="scale(0.1)"
       id="g2153"><g
         transform="scale(10)"
         id="g2155"><text
           id="text2165"
           style="font-variant:normal;font-weight:normal;font-size:13.37450027px;font-family:Helvetica;-inkscape-font-specification:Helvetica;writing-mode:lr-tb;fill:#000000;fill-opacity:1;fill-rule:nonzero;stroke:none"
           transform="matrix(1,0,0,-1,32.6184,98.8574)"><tspan
             id="tspan2157"
             y="0"
             x="0 3.718111 7.4362221 14.872444 21.559694 28.995916 36.432137 40.150249 43.868359 53.52475 60.960972 64.679085 69.13279 76.569016 84.005234 87.723343 95.159569 101.84682 109.28304 116.71926 124.15549 131.59171 138.27896 141.99707 145.71518 153.1514 156.86951 163.55676 170.99298 175.44669 182.13394">I used two red hyphens to serve</tspan><tspan
             id="tspan2159"
             y="13.3746"
             x="0 7.4362221 14.123472 17.841583 25.277805 28.995916 35.683167 43.119389 50.555611 57.991833 65.428055 72.864273 76.58239 84.018608 91.454834 95.908539 99.626648 103.34476 111.51658 118.9528 126.38902 133.07628 136.79439 146.45078 149.41991 152.38905 155.35818 159.07631 163.82425 167.54236 170.51151 177.94772 185.38394 189.10205">as a change bar. They will &quot;float&quot;</tspan><tspan
             id="tspan2161"
             y="26.749201"
             x="0 3.718111 11.154333 14.872444 18.590555 26.026777 33.462997 37.18111 40.150249 47.586472 51.304581 55.022694 58.740803 66.177025 69.895134 73.613251 77.33136 84.767578 92.203804 95.921913 98.891052 101.86019 109.29642 116.73264 120.45074 127.138 134.57422 142.01044 145.72855 153.16478 156.13391 163.57013 166.53928 173.97549">to the left of the line containing</tspan><tspan
             id="tspan2163"
             y="40.123798"
             x="0 8.1718197 17.828209 21.54632 30.467112 34.185223 43.84161 51.277832 55.731541 63.167763">THIS word.</tspan></text>
</g><g
         transform="scale(10)"
         id="g2167"><text
           id="text2171"
           style="font-variant:normal;font-weight:normal;font-size:13.37450027px;font-family:Helvetica;-inkscape-font-specification:Helvetica;writing-mode:lr-tb;fill:#f91340;fill-opacity:1;fill-rule:nonzero;stroke:none"
           transform="matrix(1,0,0,-1,15.4223,59.218)"><tspan
             id="tspan2169"
             y="0"
             x="0 7.810708">−−</tspan></text>
</g><path
         id="path2173"
         style="fill:none;stroke:#000000;stroke-width:7.5;stroke-linecap:butt;stroke-linejoin:miter;stroke-miterlimit:10;stroke-dasharray:none;stroke-opacity:1"
         d="M 10.9258,184.324 H 316.629" /><path
         id="path2175"
         style="fill:none;stroke:#000000;stroke-width:7.5;stroke-linecap:butt;stroke-linejoin:miter;stroke-miterlimit:10;stroke-dasharray:none;stroke-opacity:1"
         d="M 87.3516,165.219 10.9258,184.324 87.3516,203.43" /><path
         id="path2177"
         style="fill:none;stroke:#000000;stroke-width:7.5;stroke-linecap:butt;stroke-linejoin:miter;stroke-miterlimit:10;stroke-dasharray:none;stroke-opacity:1"
         d="m 240.203,203.43 76.426,-19.106 -76.426,-19.105" /><g
         transform="scale(10)"
         id="g2179"><text
           id="text2183"
           style="font-variant:normal;font-weight:normal;font-size:10.50860023px;font-family:Helvetica;-inkscape-font-specification:Helvetica;writing-mode:lr-tb;fill:#000000;fill-opacity:1;fill-rule:nonzero;stroke:none"
           transform="matrix(1,0,0,-1,5.39141,4.37852)"><tspan
             id="tspan2181"
             y="0"
             x="0 5.8427815 11.685563 17.528345">10px</tspan></text>
</g><path
         id="path2185"
         style="fill:none;stroke:#000000;stroke-width:7.5;stroke-linecap:butt;stroke-linejoin:miter;stroke-miterlimit:10;stroke-dasharray:none;stroke-opacity:1"
         d="M 10.9258,327.621 V 1349.82" /><path
         id="path2187"
         style="fill:none;stroke:#000000;stroke-width:7.5;stroke-linecap:butt;stroke-linejoin:miter;stroke-miterlimit:10;stroke-dasharray:none;stroke-opacity:1"
         d="M 2322.81,327.621 V 1349.82" /></g></g></svg>