<?xml version="1.0" encoding="UTF-8" standalone="no"?>
<svg
   xmlns:dc="http://purl.org/dc/elements/1.1/"
   xmlns:cc="http://creativecommons.org/ns#"
   xmlns:rdf="http://www.w3.org/1999/02/22-rdf-syntax-ns#"
   xmlns:svg="http://www.w3.org/2000/svg"
   xmlns="http://www.w3.org/2000/svg"
   viewBox="0 0 291.70667 577"
   height="577"
   width="291.70667"
   xml:space="preserve"
   id="svg5740"
   version="1.1"><metadata
     id="metadata5746"><rdf:RDF><cc:Work
         rdf:about=""><dc:format>image/svg+xml</dc:format><dc:type
           rdf:resource="http://purl.org/dc/dcmitype/StillImage" /><dc:title></dc:title></cc:Work></rdf:RDF></metadata><defs
     id="defs5744" /><g
     transform="matrix(1.3333333,0,0,-1.3333333,0,577)"
     id="g5748"><g
       transform="scale(0.1)"
       id="g5750"><path
         id="path5752"
         style="fill:#c2c1c0;fill-opacity:1;fill-rule:evenodd;stroke:none"
         d="M 339.332,2340.46 V 3916.75 H 1772.32 V 2340.46 H 339.332" /><path
         id="path5754"
         style="fill:none;stroke:#100f0d;stroke-width:19.10650063;stroke-linecap:butt;stroke-linejoin:miter;stroke-miterlimit:10;stroke-dasharray:none;stroke-opacity:1"
         d="M 339.332,2340.46 V 3916.75 H 1772.32 V 2340.46 Z" /><path
         id="path5756"
         style="fill:#ffffff;fill-opacity:1;fill-rule:evenodd;stroke:none"
         d="M 482.633,2627.06 V 3773.45 H 1485.72 V 2627.06 H 482.633" /><path
         id="path5758"
         style="fill:none;stroke:#100f0d;stroke-width:19.10650063;stroke-linecap:butt;stroke-linejoin:miter;stroke-miterlimit:10;stroke-dasharray:114.639, 38.213;stroke-dashoffset:0;stroke-opacity:1"
         d="M 482.633,2627.06 V 3773.45 H 1485.72 V 2627.06 Z" /><path
         id="path5760"
         style="fill:none;stroke:#100f0d;stroke-width:19.10650063;stroke-linecap:butt;stroke-linejoin:miter;stroke-miterlimit:10;stroke-dasharray:none;stroke-opacity:1"
         d="m 196.035,3916.75 h 143.297 m -143.297,-143.3 h 143.297 m -143.297,-143.3 h 143.297 m -143.297,-143.3 h 143.297 m -143.297,-143.3 h 143.297 m -143.297,-143.3 h 143.297 m -143.297,-143.3 h 143.297 m -143.297,0 H 339.332 M 196.035,2913.65 H 339.332 M 196.035,2770.36 H 339.332 M 196.035,2627.06 H 339.332 M 196.035,2483.76 H 339.332 M 196.035,2340.46 H 339.332 M 1772.32,4060.05 v -143.3 m -143.3,143.3 v -143.3 m -143.3,143.3 v -143.3 m -143.3,143.3 v -143.3 m -143.3,143.3 v -143.3 m -143.29,143.3 v -143.3 m 0,143.3 v -143.3 m -143.303,143.3 v -143.3 m -143.297,143.3 v -143.3 m -143.296,143.3 v -143.3 m -143.301,143.3 v -143.3 m -143.301,143.3 v -143.3" /><g
         transform="scale(10)"
         id="g5762"><text
           id="text5772"
           style="font-style:oblique;font-variant:normal;font-size:11.46389961px;font-family:Helvetica;-inkscape-font-specification:Helvetica-Oblique;writing-mode:lr-tb;fill:#100f0d;fill-opacity:1;fill-rule:nonzero;stroke:none"
           transform="matrix(1,0,0,-1,10.1875,388.842)"><tspan
             id="tspan5764"
             y="0"
             x="0">0</tspan><tspan
             id="tspan5766"
             y="-20.25"
             x="160.45399 166.82999">50</tspan><tspan
             id="tspan5768"
             y="158.64101"
             x="-10.187 -7.0019398 -0.62644958"> 55</tspan><tspan
             id="tspan5770"
             y="117.75"
             x="42.8521 48.584049 51.130936 53.677818 60.053802 63.238377 67.055855 73.431351 79.806839 82.353729 88.729706">clip region</tspan></text>
</g><path
         id="path5774"
         style="fill:#c2c1c0;fill-opacity:1;fill-rule:evenodd;stroke:none"
         d="M 339.332,162.332 V 1738.59 H 1772.32 V 162.332 H 339.332" /><path
         id="path5776"
         style="fill:none;stroke:#100f0d;stroke-width:19.10650063;stroke-linecap:butt;stroke-linejoin:miter;stroke-miterlimit:10;stroke-dasharray:none;stroke-opacity:1"
         d="M 339.332,162.332 V 1738.59 H 1772.32 V 162.332 Z" /><path
         id="path5778"
         style="fill:#ffffff;fill-opacity:1;fill-rule:evenodd;stroke:none"
         d="m 486.715,448.91 v 1146.4 H 1913.5 V 448.91 H 486.715" /><path
         id="path5780"
         style="fill:none;stroke:#100f0d;stroke-width:19.10650063;stroke-linecap:butt;stroke-linejoin:miter;stroke-miterlimit:10;stroke-dasharray:114.639, 38.213;stroke-dashoffset:0;stroke-opacity:1"
         d="m 486.715,448.91 v 1146.4 H 1913.5 V 448.91 Z" /><path
         id="path5782"
         style="fill:none;stroke:#100f0d;stroke-width:19.10650063;stroke-linecap:butt;stroke-linejoin:miter;stroke-miterlimit:10;stroke-dasharray:none;stroke-opacity:1"
         d="M 196.035,1738.59 H 339.332 M 196.035,1595.31 H 339.332 M 196.035,1452.01 H 339.332 M 196.035,1308.71 H 339.332 M 196.035,1165.41 H 339.332 M 196.035,1022.11 H 339.332 M 196.035,878.809 h 143.297 m -143.297,0 H 339.332 M 196.035,735.512 H 339.332 M 196.035,592.211 H 339.332 M 196.035,448.91 H 339.332 M 196.035,305.629 H 339.332 M 196.035,162.332 H 339.332 M 1772.32,1881.9 v -143.31 m -143.3,143.31 v -143.31 m -143.3,143.31 v -143.31 m -143.3,143.31 v -143.31 m -143.3,143.31 v -143.31 m -143.29,143.31 v -143.31 m 0,143.31 V 1738.59 M 912.527,1881.9 V 1738.59 M 769.23,1881.9 V 1738.59 M 625.934,1881.9 V 1738.59 M 482.633,1881.9 V 1738.59 M 339.332,1881.9 v -143.31" /><g
         transform="scale(10)"
         id="g5784"><text
           id="text5796"
           style="font-style:oblique;font-variant:normal;font-size:11.46389961px;font-family:Helvetica;-inkscape-font-specification:Helvetica-Oblique;writing-mode:lr-tb;fill:#100f0d;fill-opacity:1;fill-rule:nonzero;stroke:none"
           transform="matrix(1,0,0,-1,170.391,190.779)"><tspan
             id="tspan5786"
             y="0"
             x="0 6.3759789">50</tspan><tspan
             id="tspan5788"
             y="178.64"
             x="-166.64101 -160.2655">55</tspan><tspan
             id="tspan5790"
             y="136.5459"
             x="-117.3519 -111.61995 -109.07307 -106.52618 -100.1502 -96.965622 -93.148148 -86.772652 -80.397156 -77.850273 -71.474297">clip region</tspan><tspan
             id="tspan5792"
             y="-31.594101"
             x="-64.812798 -58.436821 -52.061817 -45.685825 -39.309849 -36.76297 -31.031019 -27.845472 -21.470469 -18.923592 -12.5476 -6.8156495 -1.0836997 2.1018486 8.4768515 14.85283">#one’s block box</tspan><tspan
             id="tspan5794"
             y="185.26489"
             x="-64.812798 -58.436821 -55.252251 -46.972958 -40.597954 -38.051064 -32.319115 -29.134542 -22.758564 -20.211685 -13.835694 -8.1042452 -2.3722951 0.81227648 7.1882558 13.564235">#two’s block box</tspan></text>
</g><g
         transform="scale(10)"
         id="g5798"><text
           id="text5802"
           style="font-variant:normal;font-weight:normal;font-size:12px;font-family:MyriadPro;-inkscape-font-specification:MyriadPro-Regular;writing-mode:lr-tb;fill:#ed1e24;fill-opacity:1;fill-rule:nonzero;stroke:none"
           transform="matrix(1,0,0,-1,50.9059,323.686)"><tspan
             id="tspan5800"
             y="0"
             x="0 6.1560001 12.816159">5px</tspan></text>
</g><path
         id="path5804"
         style="fill:none;stroke:#ed1e24;stroke-width:20;stroke-linecap:butt;stroke-linejoin:miter;stroke-miterlimit:4;stroke-dasharray:none;stroke-opacity:1"
         d="M 327.5,3271.86 H 415" /><path
         id="path5806"
         style="fill:#ed1e24;fill-opacity:1;fill-rule:nonzero;stroke:none"
         d="m 438.617,3282.11 c -16.531,4.99 -27.277,9.59 -40.543,14.91 v -50.44 c 4.746,2.25 24.012,9.92 40.543,14.92 17.696,5.34 33.742,9 44.149,10.3 -10.407,1.31 -26.453,4.96 -44.149,10.31" /><path
         id="path5808"
         style="fill:none;stroke:#ed1e24;stroke-width:20;stroke-linecap:butt;stroke-linejoin:miter;stroke-miterlimit:4;stroke-dasharray:none;stroke-opacity:1"
         d="M 327.5,3129.36 H 1425" /><path
         id="path5810"
         style="fill:#ed1e24;fill-opacity:1;fill-rule:nonzero;stroke:none"
         d="m 1448.61,3139.61 c -16.52,4.99 -27.27,9.59 -40.53,14.91 v -50.44 c 4.74,2.25 24.01,9.92 40.53,14.92 17.7,5.34 33.75,9 44.15,10.3 -10.4,1.31 -26.45,4.96 -44.15,10.31" /><g
         transform="scale(10)"
         id="g5812"><text
           id="text5816"
           style="font-variant:normal;font-weight:normal;font-size:12px;font-family:MyriadPro;-inkscape-font-specification:MyriadPro-Regular;writing-mode:lr-tb;fill:#ed1e24;fill-opacity:1;fill-rule:nonzero;stroke:none"
           transform="matrix(1,0,0,-1,150.75,309.686)"><tspan
             id="tspan5814"
             y="0"
             x="0 6.1560001 12.312 18.972153">40px</tspan></text>
</g><path
         id="path5818"
         style="fill:none;stroke:#ed1e24;stroke-width:20;stroke-linecap:butt;stroke-linejoin:miter;stroke-miterlimit:4;stroke-dasharray:none;stroke-opacity:1"
         d="m 1127.7,3924.43 v -87.5" /><path
         id="path5820"
         style="fill:#ed1e24;fill-opacity:1;fill-rule:nonzero;stroke:none"
         d="m 1137.94,3813.31 c 5,16.53 9.6,27.28 14.92,40.54 h -50.44 c 2.25,-4.74 9.92,-24.01 14.91,-40.54 5.35,-17.69 9.01,-33.74 10.31,-44.14 1.31,10.4 4.96,26.45 10.3,44.14" /><path
         id="path5822"
         style="fill:none;stroke:#ed1e24;stroke-width:20;stroke-linecap:butt;stroke-linejoin:miter;stroke-miterlimit:4;stroke-dasharray:none;stroke-opacity:1"
         d="M 1270.2,3924.36 V 2686.93" /><path
         id="path5824"
         style="fill:#ed1e24;fill-opacity:1;fill-rule:nonzero;stroke:none"
         d="m 1280.44,2663.32 c 5,16.52 9.6,27.27 14.92,40.53 h -50.44 c 2.25,-4.74 9.92,-24.01 14.91,-40.53 5.35,-17.7 9.01,-33.75 10.31,-44.15 1.31,10.4 4.96,26.45 10.3,44.15" /><g
         transform="scale(10)"
         id="g5826"><text
           id="text5832"
           style="font-variant:normal;font-weight:normal;font-size:12px;font-family:MyriadPro;-inkscape-font-specification:MyriadPro-Regular;writing-mode:lr-tb;fill:#ed1e24;fill-opacity:1;fill-rule:nonzero;stroke:none"
           transform="matrix(1,0,0,-1,104.155,365.679)"><tspan
             id="tspan5828"
             y="0"
             x="0 6.1560001 12.816154">5px</tspan><tspan
             id="tspan5830"
             y="114.345"
             x="11.5949 17.7509 23.9069 30.567053">45px</tspan></text>
</g><path
         id="path5834"
         style="fill:none;stroke:#ed1e24;stroke-width:20;stroke-linecap:butt;stroke-linejoin:miter;stroke-miterlimit:4;stroke-dasharray:none;stroke-opacity:1"
         d="m 330,1104.36 h 87.5" /><path
         id="path5836"
         style="fill:#ed1e24;fill-opacity:1;fill-rule:nonzero;stroke:none"
         d="m 441.117,1114.61 c -16.531,4.99 -27.277,9.59 -40.543,14.91 v -50.44 c 4.746,2.25 24.012,9.92 40.543,14.92 17.696,5.34 33.742,9 44.149,10.3 -10.407,1.31 -26.453,4.96 -44.149,10.31" /><g
         transform="scale(10)"
         id="g5838"><text
           id="text5842"
           style="font-variant:normal;font-weight:normal;font-size:12px;font-family:MyriadPro;-inkscape-font-specification:MyriadPro-Regular;writing-mode:lr-tb;fill:#ed1e24;fill-opacity:1;fill-rule:nonzero;stroke:none"
           transform="matrix(1,0,0,-1,50.9059,106.686)"><tspan
             id="tspan5840"
             y="0"
             x="0 6.1560001 12.816159">5px</tspan></text>
</g><path
         id="path5844"
         style="fill:none;stroke:#ed1e24;stroke-width:20;stroke-linecap:butt;stroke-linejoin:miter;stroke-miterlimit:4;stroke-dasharray:none;stroke-opacity:1"
         d="M 330,949.359 H 1855" /><path
         id="path5846"
         style="fill:#ed1e24;fill-opacity:1;fill-rule:nonzero;stroke:none"
         d="m 1878.61,959.609 c -16.52,4.993 -27.27,9.59 -40.53,14.911 v -50.438 c 4.74,2.25 24.01,9.918 40.53,14.918 17.7,5.34 33.75,9 44.15,10.301 -10.4,1.308 -26.45,4.961 -44.15,10.308" /><g
         transform="scale(10)"
         id="g5848"><text
           id="text5852"
           style="font-variant:normal;font-weight:normal;font-size:12px;font-family:MyriadPro;-inkscape-font-specification:MyriadPro-Regular;writing-mode:lr-tb;fill:#ed1e24;fill-opacity:1;fill-rule:nonzero;stroke:none"
           transform="matrix(1,0,0,-1,194.25,92.1859)"><tspan
             id="tspan5850"
             y="0"
             x="0 6.1560001 12.312 18.972153">55px</tspan></text>
</g><path
         id="path5854"
         style="fill:none;stroke:#ed1e24;stroke-width:20;stroke-linecap:butt;stroke-linejoin:miter;stroke-miterlimit:4;stroke-dasharray:none;stroke-opacity:1"
         d="m 1275.2,1746.93 v -87.5" /><path
         id="path5856"
         style="fill:#ed1e24;fill-opacity:1;fill-rule:nonzero;stroke:none"
         d="m 1285.44,1635.81 c 5,16.53 9.6,27.28 14.92,40.54 h -50.44 c 2.25,-4.75 9.92,-24.01 14.91,-40.54 5.35,-17.69 9.01,-33.74 10.31,-44.15 1.31,10.41 4.96,26.46 10.3,44.15" /><path
         id="path5858"
         style="fill:none;stroke:#ed1e24;stroke-width:20;stroke-linecap:butt;stroke-linejoin:miter;stroke-miterlimit:4;stroke-dasharray:none;stroke-opacity:1"
         d="M 1417.7,1749.36 V 511.93" /><path
         id="path5860"
         style="fill:#ed1e24;fill-opacity:1;fill-rule:nonzero;stroke:none"
         d="m 1427.94,488.32 c 5,16.52 9.6,27.27 14.92,40.532 h -50.44 c 2.25,-4.75 9.92,-24.012 14.91,-40.532 5.35,-17.691 9.01,-33.75 10.31,-44.16 1.31,10.41 4.96,26.469 10.3,44.16" /><g
         transform="scale(10)"
         id="g5862"><text
           id="text5868"
           style="font-variant:normal;font-weight:normal;font-size:12px;font-family:MyriadPro;-inkscape-font-specification:MyriadPro-Regular;writing-mode:lr-tb;fill:#ed1e24;fill-opacity:1;fill-rule:nonzero;stroke:none"
           transform="matrix(1,0,0,-1,118.155,148.677)"><tspan
             id="tspan5864"
             y="0"
             x="0 6.1560001 12.816154">5px</tspan><tspan
             id="tspan5866"
             y="115.343"
             x="12.3449 18.5009 24.6569 31.317053">45px</tspan></text>
</g><g
         transform="scale(10)"
         id="g5870"><text
           id="text5878"
           style="font-style:oblique;font-variant:normal;font-size:11.46389961px;font-family:Helvetica;-inkscape-font-specification:Helvetica-Oblique;writing-mode:lr-tb;fill:#100f0d;fill-opacity:1;fill-rule:nonzero;stroke:none"
           transform="matrix(1,0,0,-1,29.4375,408.842)"><tspan
             id="tspan5872"
             y="0"
             x="0">0</tspan><tspan
             id="tspan5874"
             y="218.5"
             x="0.5">0</tspan><tspan
             id="tspan5876"
             y="238.75"
             x="-19.25">0</tspan></text>
</g><g
         transform="scale(10)"
         id="g5880"><text
           id="text5886"
           style="font-variant:normal;font-weight:normal;font-size:12px;font-family:MyriadPro;-inkscape-font-specification:MyriadPro-Regular;writing-mode:lr-tb;fill:#ed1e24;fill-opacity:1;fill-rule:nonzero;stroke:none"
           transform="matrix(0,-1,-1,0,110.25,412.186)"><tspan
             id="tspan5882"
             y="0"
             x="0 3.8999052 10.487906">top</tspan><tspan
             id="tspan5884"
             y="-15"
             x="-20.568399 -13.7404 -7.1524 -3.1803999 0.71948081 7.3074808">bottom</tspan></text>
<text
           id="text5896"
           style="font-variant:normal;font-weight:normal;font-size:12px;font-family:MyriadPro;-inkscape-font-specification:MyriadPro-Regular;writing-mode:lr-tb;fill:#ed1e24;fill-opacity:1;fill-rule:nonzero;stroke:none"
           transform="matrix(1,0,0,-1,12.8699,323.686)"><tspan
             id="tspan5888"
             y="0"
             x="0 2.832 8.8439999 12.479741">left</tspan><tspan
             id="tspan5890"
             y="14"
             x="-7.6199198 -3.6482401 -0.84024006 5.8677602 12.47958">right</tspan><tspan
             id="tspan5892"
             y="218.5"
             x="0 2.832 8.8439999 12.479741">left</tspan><tspan
             id="tspan5894"
             y="232"
             x="-7.6199198 -3.6482401 -0.84024006 5.8677602 12.47958">right</tspan></text>
<text
           id="text5902"
           style="font-variant:normal;font-weight:normal;font-size:12px;font-family:MyriadPro;-inkscape-font-specification:MyriadPro-Regular;writing-mode:lr-tb;fill:#ed1e24;fill-opacity:1;fill-rule:nonzero;stroke:none"
           transform="matrix(0,-1,-1,0,124.75,194.186)"><tspan
             id="tspan5898"
             y="0"
             x="0 3.8999052 10.487906">top</tspan><tspan
             id="tspan5900"
             y="-13.5"
             x="-20.5672 -13.7392 -7.1511998 -3.1791999 0.72070533 7.3087053">bottom</tspan></text>
</g></g></g></svg>