<?xml version="1.0" encoding="UTF-8" standalone="no"?>
<svg
   xmlns:dc="http://purl.org/dc/elements/1.1/"
   xmlns:cc="http://creativecommons.org/ns#"
   xmlns:rdf="http://www.w3.org/1999/02/22-rdf-syntax-ns#"
   xmlns:svg="http://www.w3.org/2000/svg"
   xmlns="http://www.w3.org/2000/svg"
   viewBox="0 0 134.66667 69.333336"
   height="69.333336"
   width="134.66667"
   xml:space="preserve"
   id="svg2315"
   version="1.1"><metadata
     id="metadata2321"><rdf:RDF><cc:Work
         rdf:about=""><dc:format>image/svg+xml</dc:format><dc:type
           rdf:resource="http://purl.org/dc/dcmitype/StillImage" /><dc:title></dc:title></cc:Work></rdf:RDF></metadata><defs
     id="defs2319" /><g
     transform="matrix(1.3333333,0,0,-1.3333333,0,69.333333)"
     id="g2323"><g
       transform="scale(0.1)"
       id="g2325"><g
         transform="scale(10)"
         id="g2327"><text
           id="text2331"
           style="font-variant:normal;font-weight:normal;font-size:28.65970039px;font-family:'New Peninim MT';-inkscape-font-specification:NewCenturySchlbk-Roman;writing-mode:lr-tb;fill:#000000;fill-opacity:1;fill-rule:nonzero;stroke:none"
           transform="matrix(1,0,0,-1,1.28164,31.3969)"><tspan
             id="tspan2329"
             y="0"
             x="0">T</tspan></text>
<text
           id="text2341"
           style="font-variant:normal;font-weight:normal;font-size:11.46389961px;font-family:'New Peninim MT';-inkscape-font-specification:NewCenturySchlbk-Roman;writing-mode:lr-tb;fill:#000000;fill-opacity:1;fill-rule:nonzero;stroke:none"
           transform="matrix(1,0,0,-1,23.25394,39.57815)"><tspan
             id="tspan2333"
             y="0"
             x="0 9.5494289 17.826365 21.013329 28.65975 33.325558 41.602493 48.824749 56.471172 59.658134 63.475613 69.207565">HE FIRST few</tspan><tspan
             id="tspan2335"
             y="11.4641"
             x="0 8.9189138 14.650865 19.740835 26.321114 31.628901 34.815865 40.547813 44.365292 47.552258 53.926186">words of an</tspan><tspan
             id="tspan2337"
             y="22.927799"
             x="-21.9723 -15.598372 -10.5084 -6.048943 -2.4378145 2.6521573 6.2632856 11.995235 15.182199 18.793329 25.797771 28.984735 33.444191 40.448635">article in the</tspan><tspan
             id="tspan2339"
             y="34.391899"
             x="-21.9723 -13.695364 -8.6053925 -2.8734426 4.1310005 9.8629503 20.054358 23.665485 28.973272">Economist</tspan></text>
</g></g></g></svg>