<?xml version="1.0" encoding="UTF-8" standalone="no"?>
<svg
   xmlns:dc="http://purl.org/dc/elements/1.1/"
   xmlns:cc="http://creativecommons.org/ns#"
   xmlns:rdf="http://www.w3.org/1999/02/22-rdf-syntax-ns#"
   xmlns:svg="http://www.w3.org/2000/svg"
   xmlns="http://www.w3.org/2000/svg"
   viewBox="0 0 145.33333 92"
   height="92"
   width="145.33333"
   xml:space="preserve"
   id="svg2381"
   version="1.1"><metadata
     id="metadata2387"><rdf:RDF><cc:Work
         rdf:about=""><dc:format>image/svg+xml</dc:format><dc:type
           rdf:resource="http://purl.org/dc/dcmitype/StillImage" /><dc:title></dc:title></cc:Work></rdf:RDF></metadata><defs
     id="defs2385" /><g
     transform="matrix(1.3333333,0,0,-1.3333333,0,92)"
     id="g2389"><g
       transform="scale(0.1)"
       id="g2391"><g
         transform="scale(10)"
         id="g2393"><text
           id="text2397"
           style="font-style:italic;font-variant:normal;font-size:47.76620102px;font-family:'New Peninim MT';-inkscape-font-specification:NewCenturySchlbk-Italic;writing-mode:lr-tb;fill:#000000;fill-opacity:1;fill-rule:nonzero;stroke:none"
           transform="matrix(1,0,0,-1,1.28477,34.048)"><tspan
             id="tspan2395"
             y="0"
             x="0 19.10648">&quot;A</tspan></text>
<text
           id="text2409"
           style="font-variant:normal;font-weight:normal;font-size:11.46389961px;font-family:'New Peninim MT';-inkscape-font-specification:NewCenturySchlbk-Roman;writing-mode:lr-tb;fill:#000000;fill-opacity:1;fill-rule:nonzero;stroke:none"
           transform="matrix(1,0,0,-1,58.60427,51.8875)"><tspan
             id="tspan2399"
             y="0"
             x="0 6.3739285 9.9850569 15.075028 21.655308 24.842272 28.4534">bird in</tspan><tspan
             id="tspan2401"
             y="11.4637"
             x="0 4.4594569 11.4639 17.19585 20.382814 27.387257 33.761185 40.765629">the hand</tspan><tspan
             id="tspan2403"
             y="22.927401"
             x="0 3.6111286 8.9189138 12.105879 21.024792 26.756742 31.846714 36.306171">is worth</tspan><tspan
             id="tspan2405"
             y="35.3465"
             x="-57.3195 -52.860043 -43.941128 -38.209179 -35.022213 -31.411085 -24.406643 -21.219679 -16.760221 -9.7557793 -4.023829 -0.83686471 5.5370636 12.541507 17.849293 24.853735 28.040699">two in the bush,&quot;</tspan><tspan
             id="tspan2407"
             y="46.8102"
             x="-57.3195 -52.011715 -45.637787 -39.48167 -34.173885 -30.986921 -24.612993 -17.608551 -14.421586 -8.6896362 -5.0785079 1.5017709 4.688735 11.269013 16.358986 22.090935 28.247049 33.979 39.06897 45.442898">says an old proverb.</tspan></text>
</g></g></g></svg>