<?xml version="1.0" encoding="UTF-8" standalone="no"?>
<svg
   xmlns:dc="http://purl.org/dc/elements/1.1/"
   xmlns:cc="http://creativecommons.org/ns#"
   xmlns:rdf="http://www.w3.org/1999/02/22-rdf-syntax-ns#"
   xmlns:svg="http://www.w3.org/2000/svg"
   xmlns="http://www.w3.org/2000/svg"
   viewBox="0 0 493.33334 441.33334"
   height="441.33334"
   width="493.33334"
   xml:space="preserve"
   id="svg2669"
   version="1.1"><metadata
     id="metadata2675"><rdf:RDF><cc:Work
         rdf:about=""><dc:format>image/svg+xml</dc:format><dc:type
           rdf:resource="http://purl.org/dc/dcmitype/StillImage" /><dc:title></dc:title></cc:Work></rdf:RDF></metadata><defs
     id="defs2673" /><g
     transform="matrix(1.3333333,0,0,-1.3333333,0,441.33333)"
     id="g2677"><g
       transform="scale(0.1)"
       id="g2679"><path
         id="path2681"
         style="fill:none;stroke:#000000;stroke-width:7.5;stroke-linecap:butt;stroke-linejoin:miter;stroke-miterlimit:10;stroke-dasharray:none;stroke-opacity:1"
         d="m 739.035,201.574 h 2227.75 v 2875.53 H 739.035 Z" /><g
         transform="scale(10)"
         id="g2683"><text
           id="text2701"
           style="font-variant:normal;font-weight:normal;font-size:11.46389961px;font-family:Helvetica;-inkscape-font-specification:Helvetica;writing-mode:lr-tb;fill:#000000;fill-opacity:1;fill-rule:nonzero;stroke:none"
           transform="matrix(1,0,0,-1,59.5734,274.836)"><tspan
             id="tspan2685"
             y="0"
             x="0">1</tspan><tspan
             id="tspan2687"
             y="34.3918"
             x="0">2</tspan><tspan
             id="tspan2689"
             y="70.694099"
             x="0">3</tspan><tspan
             id="tspan2691"
             y="106.9964"
             x="0">4</tspan><tspan
             id="tspan2693"
             y="142.3437"
             x="0">5</tspan><tspan
             id="tspan2695"
             y="178.646"
             x="0">6</tspan><tspan
             id="tspan2697"
             y="213.9929"
             x="0">7</tspan><tspan
             id="tspan2699"
             y="247.4292"
             x="0">8</tspan></text>
</g><path
         id="path2703"
         style="fill:none;stroke:#000000;stroke-width:7.5;stroke-linecap:butt;stroke-linejoin:miter;stroke-miterlimit:10;stroke-dasharray:none;stroke-opacity:1"
         d="M 739.035,2723.63 H 996.973" /><path
         id="path2705"
         style="fill:none;stroke:#000000;stroke-width:7.5;stroke-linecap:butt;stroke-linejoin:miter;stroke-miterlimit:10;stroke-dasharray:none;stroke-opacity:1"
         d="M 739.035,2360.61 H 996.973" /><path
         id="path2707"
         style="fill:none;stroke:#000000;stroke-width:7.5;stroke-linecap:butt;stroke-linejoin:miter;stroke-miterlimit:10;stroke-dasharray:none;stroke-opacity:1"
         d="M 739.035,564.598 H 996.973" /><path
         id="path2709"
         style="fill:none;stroke:#000000;stroke-width:7.5;stroke-linecap:butt;stroke-linejoin:miter;stroke-miterlimit:10;stroke-dasharray:none;stroke-opacity:1"
         d="M 739.035,1644.12 H 996.973" /><path
         id="path2711"
         style="fill:none;stroke:#000000;stroke-width:7.5;stroke-linecap:butt;stroke-linejoin:miter;stroke-miterlimit:10;stroke-dasharray:none;stroke-opacity:1"
         d="M 739.035,1997.59 H 996.973" /><path
         id="path2713"
         style="fill:none;stroke:#000000;stroke-width:7.5;stroke-linecap:butt;stroke-linejoin:miter;stroke-miterlimit:10;stroke-dasharray:none;stroke-opacity:1"
         d="M 739.035,1281.09 H 996.973" /><path
         id="path2715"
         style="fill:none;stroke:#000000;stroke-width:7.5;stroke-linecap:butt;stroke-linejoin:miter;stroke-miterlimit:10;stroke-dasharray:none;stroke-opacity:1"
         d="M 739.035,918.07 H 996.973" /><g
         transform="scale(10)"
         id="g2717"><text
           id="text2721"
           style="font-style:oblique;font-variant:normal;font-weight:bold;font-size:11.46389961px;font-family:Helvetica;-inkscape-font-specification:Helvetica-BoldOblique;writing-mode:lr-tb;fill:#000000;fill-opacity:1;fill-rule:nonzero;stroke:none"
           transform="matrix(1,0,0,-1,132.293,318.895)"><tspan
             id="tspan2719"
             y="0"
             x="0 8.2769356 15.281379 21.655308 28.65975 38.851158 45.225086 52.229527 56.047009 59.233971 70.055893 73.242859 80.247299 87.25174 94.256187">Document Window</tspan></text>
<text
           id="text2729"
           style="font-variant:normal;font-weight:normal;font-size:10.50860023px;font-family:Helvetica;-inkscape-font-specification:Helvetica;writing-mode:lr-tb;fill:#000000;fill-opacity:1;fill-rule:nonzero;stroke:none"
           transform="matrix(1,0,0,-1,64.3504,315.62859)"><tspan
             id="tspan2723"
             y="0"
             x="0 3.4993639 9.342145 12.263536 18.106318">(0,0)</tspan><tspan
             id="tspan2725"
             y="-1.9109401"
             x="208.261 211.76036 217.60315 220.52454 223.44592 229.28871 235.13148 240.97427">(0, 400)</tspan><tspan
             id="tspan2727"
             y="309.52505"
             x="-6.6869998 -3.1876361 2.6551454 8.4979267 14.340709 17.2621 20.183491 26.026272 203.48399 206.98337 212.82614 218.66893 224.5117 227.43311 230.35449 236.19727 242.04005 247.88283">(400, 0)(400, 400)</tspan></text>
<text
           id="text2733"
           style="font-variant:normal;font-weight:normal;font-size:13.37450027px;font-family:Helvetica;-inkscape-font-specification:Helvetica;writing-mode:lr-tb;fill:#000000;fill-opacity:1;fill-rule:nonzero;stroke:none"
           transform="matrix(1,0,0,-1,83.4564,275.40653)"><tspan
             id="tspan2731"
             y="0"
             x="0 8.9207916 16.357014 23.793236 26.762375 34.198597 41.634819 44.603958 52.04018 59.476402 63.194511 70.630737 74.348846 78.066956 85.503181 92.9394 100.37563 107.06287 110.78098 117.46823 124.90446 132.34068 136.05879 143.49501 150.93123 154.64934 161.33659">Beginning of body contents.</tspan></text>
</g><g
         transform="scale(10)"
         id="g2735"><text
           id="text2739"
           style="font-variant:normal;font-weight:normal;font-size:13.37450027px;font-family:Helvetica;-inkscape-font-specification:Helvetica;writing-mode:lr-tb;fill:#f91340;fill-opacity:1;fill-rule:nonzero;stroke:none"
           transform="matrix(1,0,0,-1,256.371,275.407)"><tspan
             id="tspan2737"
             y="0"
             x="0 8.9207916 12.638903 20.075125 24.528833">Start</tspan></text>
</g><path
         id="path2741"
         style="fill:none;stroke:#000000;stroke-width:7.5;stroke-linecap:butt;stroke-linejoin:miter;stroke-miterlimit:10;stroke-dasharray:none;stroke-opacity:1"
         d="M 433.332,2723.63 H 309.137 v -343.92 h 143.301" /><g
         transform="scale(10)"
         id="g2743"><text
           id="text2747"
           style="font-style:oblique;font-variant:normal;font-size:10.50860023px;font-family:Helvetica;-inkscape-font-specification:Helvetica-Oblique;writing-mode:lr-tb;fill:#000000;fill-opacity:1;fill-rule:nonzero;stroke:none"
           transform="matrix(1,0,0,-1,3.20938,251.465)"><tspan
             id="tspan2745"
             y="0"
             x="0 5.8427815 11.685563 14.606954 20.449736">24 px</tspan></text>
</g><g
         transform="scale(10)"
         id="g2749"><text
           id="text2755"
           style="font-variant:normal;font-weight:normal;font-size:13.37450027px;font-family:Helvetica;-inkscape-font-specification:Helvetica;writing-mode:lr-tb;fill:#f91340;fill-opacity:1;fill-rule:nonzero;stroke:none"
           transform="matrix(1,0,0,-1,83.4566,241.015)"><tspan
             id="tspan2751"
             y="0"
             x="0 7.4362221 11.154333 14.872444 22.308666 29.744888 33.462997 40.89922 45.352928 49.071041 55.758289 63.194511 70.630737 74.348846 81.785065 89.221291 92.9394 99.626648 103.34476 107.06287 115.98367 123.41988 130.85611 134.57422 142.01044 145.72855 149.44667 156.88289 164.31911 168.03722 175.47343">of outer contents. End of outer</tspan><tspan
             id="tspan2753"
             y="37.257401"
             x="0 6.6872501 14.123472 21.559694 25.277805 32.714027 40.150249 43.868359 50.555611">contents.</tspan></text>
</g><path
         id="path2757"
         style="fill:none;stroke:#000000;stroke-width:7.5;stroke-linecap:butt;stroke-linejoin:miter;stroke-miterlimit:10;stroke-dasharray:114.639, 38.213;stroke-dashoffset:0;stroke-opacity:1"
         d="m 1990.51,864.07 h 926.664 v 757.523 H 1990.51 Z" /><g
         transform="scale(10)"
         id="g2759"><text
           id="text2765"
           style="font-variant:normal;font-weight:normal;font-size:13.37450027px;font-family:Helvetica;-inkscape-font-specification:Helvetica;writing-mode:lr-tb;fill:#5151fa;fill-opacity:1;fill-rule:nonzero;stroke:none"
           transform="matrix(1,0,0,-1,200.962,133.064)"><tspan
             id="tspan2761"
             y="0"
             x="0 3.718111 11.154333 18.590555 26.026777">Inner</tspan><tspan
             id="tspan2763"
             y="26.749201"
             x="0 9.6563892 17.092611 24.528833 28.246944 35.683167 43.119389 46.837498 53.52475">Contents.</tspan></text>
</g><g
         transform="scale(10)"
         id="g2767"><text
           id="text2775"
           style="font-style:oblique;font-variant:normal;font-size:10.50860023px;font-family:Helvetica;-inkscape-font-specification:Helvetica-Oblique;writing-mode:lr-tb;fill:#000000;fill-opacity:1;fill-rule:nonzero;stroke:none"
           transform="matrix(1,0,0,-1,216.247,74.7297)"><tspan
             id="tspan2769"
             y="0"
             x="0 7.5872092 9.9201183 15.7629 18.68429 24.527073 27.448463 33.585487 36.506878 42.349659 48.19244 54.035221 56.956612 62.799393">width = 130 px</tspan><tspan
             id="tspan2771"
             y="-51.587502"
             x="85.979301 91.822083 97.664864 99.997772 105.84055 111.68333 114.60473 117.52612 123.66314 126.58453 132.42731 138.2701 144.11287 149.95566">height = 130px</tspan><tspan
             id="tspan2773"
             y="-92.666397"
             x="-57.319698 -53.820335 -47.683315 -41.84053 -35.997749 -30.154968 -27.233578 -24.312187 -18.175165 -12.332383 -6.4896016 -0.64682019">(+200, −100)</tspan></text>
<text
           id="text2779"
           style="font-variant:normal;font-weight:normal;font-size:13.37450027px;font-family:Helvetica;-inkscape-font-specification:Helvetica;writing-mode:lr-tb;fill:#000000;fill-opacity:1;fill-rule:nonzero;stroke:none"
           transform="matrix(1,0,0,-1,144.5976,203.7578)"><tspan
             id="tspan2777"
             y="0"
             x="0 8.9207916 16.357014 23.793236 27.511347 34.947567 38.66568 42.383789 49.820011 57.256233 64.692459 71.379707 75.097816 81.785065 89.221291 96.657509 100.37563 107.81184 115.24807 118.96618 125.65343">End of body contents.</tspan></text>
</g><path
         id="path2781"
         style="fill:none;stroke:#000000;stroke-width:28.65979958;stroke-linecap:butt;stroke-linejoin:miter;stroke-miterlimit:10;stroke-dasharray:114.639, 38.213;stroke-dashoffset:0;stroke-opacity:1"
         d="M 2792.98,3058 H 2544.6 v -305.71" /></g></g></svg>