<?xml version="1.0" encoding="UTF-8" standalone="no"?>
<svg
   xmlns:dc="http://purl.org/dc/elements/1.1/"
   xmlns:cc="http://creativecommons.org/ns#"
   xmlns:rdf="http://www.w3.org/1999/02/22-rdf-syntax-ns#"
   xmlns:svg="http://www.w3.org/2000/svg"
   xmlns="http://www.w3.org/2000/svg"
   viewBox="0 0 417.33334 437.33334"
   height="437.33334"
   width="417.33334"
   xml:space="preserve"
   id="svg3277"
   version="1.1"><metadata
     id="metadata3283"><rdf:RDF><cc:Work
         rdf:about=""><dc:format>image/svg+xml</dc:format><dc:type
           rdf:resource="http://purl.org/dc/dcmitype/StillImage" /><dc:title></dc:title></cc:Work></rdf:RDF></metadata><defs
     id="defs3281" /><g
     transform="matrix(1.3333333,0,0,-1.3333333,0,437.33333)"
     id="g3285"><g
       transform="scale(0.1)"
       id="g3287"><path
         id="path3289"
         style="fill:none;stroke:#000000;stroke-width:7.5;stroke-linecap:butt;stroke-linejoin:miter;stroke-miterlimit:10;stroke-dasharray:none;stroke-opacity:1"
         d="m 719.035,191.574 h 2227.75 v 2875.53 H 719.035 Z" /><g
         transform="scale(10)"
         id="g3291"><text
           id="text3309"
           style="font-variant:normal;font-weight:normal;font-size:11.46389961px;font-family:Helvetica;-inkscape-font-specification:Helvetica;writing-mode:lr-tb;fill:#000000;fill-opacity:1;fill-rule:nonzero;stroke:none"
           transform="matrix(1,0,0,-1,57.5734,273.836)"><tspan
             id="tspan3293"
             y="0"
             x="0">1</tspan><tspan
             id="tspan3295"
             y="34.3918"
             x="0">2</tspan><tspan
             id="tspan3297"
             y="70.694099"
             x="0">3</tspan><tspan
             id="tspan3299"
             y="106.9964"
             x="0">4</tspan><tspan
             id="tspan3301"
             y="142.3437"
             x="0">5</tspan><tspan
             id="tspan3303"
             y="178.646"
             x="0">6</tspan><tspan
             id="tspan3305"
             y="213.9929"
             x="0">7</tspan><tspan
             id="tspan3307"
             y="247.4292"
             x="0">8</tspan></text>
</g><path
         id="path3311"
         style="fill:none;stroke:#000000;stroke-width:7.5;stroke-linecap:butt;stroke-linejoin:miter;stroke-miterlimit:10;stroke-dasharray:none;stroke-opacity:1"
         d="M 719.035,2713.63 H 976.973" /><path
         id="path3313"
         style="fill:none;stroke:#000000;stroke-width:7.5;stroke-linecap:butt;stroke-linejoin:miter;stroke-miterlimit:10;stroke-dasharray:none;stroke-opacity:1"
         d="M 719.035,2350.61 H 976.973" /><path
         id="path3315"
         style="fill:none;stroke:#000000;stroke-width:7.5;stroke-linecap:butt;stroke-linejoin:miter;stroke-miterlimit:10;stroke-dasharray:none;stroke-opacity:1"
         d="M 719.035,554.598 H 976.973" /><path
         id="path3317"
         style="fill:none;stroke:#000000;stroke-width:7.5;stroke-linecap:butt;stroke-linejoin:miter;stroke-miterlimit:10;stroke-dasharray:none;stroke-opacity:1"
         d="M 719.035,1634.12 H 976.973" /><path
         id="path3319"
         style="fill:none;stroke:#000000;stroke-width:7.5;stroke-linecap:butt;stroke-linejoin:miter;stroke-miterlimit:10;stroke-dasharray:none;stroke-opacity:1"
         d="M 719.035,1987.59 H 976.973" /><path
         id="path3321"
         style="fill:none;stroke:#000000;stroke-width:7.5;stroke-linecap:butt;stroke-linejoin:miter;stroke-miterlimit:10;stroke-dasharray:none;stroke-opacity:1"
         d="M 719.035,1271.09 H 976.973" /><path
         id="path3323"
         style="fill:none;stroke:#000000;stroke-width:7.5;stroke-linecap:butt;stroke-linejoin:miter;stroke-miterlimit:10;stroke-dasharray:none;stroke-opacity:1"
         d="M 719.035,908.07 H 976.973" /><g
         transform="scale(10)"
         id="g3325"><text
           id="text3329"
           style="font-style:oblique;font-variant:normal;font-weight:bold;font-size:11.46389961px;font-family:Helvetica;-inkscape-font-specification:Helvetica-BoldOblique;writing-mode:lr-tb;fill:#000000;fill-opacity:1;fill-rule:nonzero;stroke:none"
           transform="matrix(1,0,0,-1,130.293,317.895)"><tspan
             id="tspan3327"
             y="0"
             x="0 8.2769356 15.281379 21.655308 28.65975 38.851158 45.225086 52.229527 56.047009 59.233971 70.055893 73.242859 80.247299 87.25174 94.256187">Document Window</tspan></text>
<text
           id="text3337"
           style="font-variant:normal;font-weight:normal;font-size:10.50860023px;font-family:Helvetica;-inkscape-font-specification:Helvetica;writing-mode:lr-tb;fill:#000000;fill-opacity:1;fill-rule:nonzero;stroke:none"
           transform="matrix(1,0,0,-1,62.3504,314.62859)"><tspan
             id="tspan3331"
             y="0"
             x="0 3.4993639 9.342145 12.263536 18.106318">(0,0)</tspan><tspan
             id="tspan3333"
             y="-1.9109401"
             x="208.261 211.76036 217.60315 220.52454 223.44592 229.28871 235.13148 240.97427">(0, 400)</tspan><tspan
             id="tspan3335"
             y="309.52505"
             x="-6.6869998 -3.1876361 2.6551454 8.4979267 14.340709 17.2621 20.183491 26.026272 203.48399 206.98337 212.82614 218.66893 224.5117 227.43311 230.35449 236.19727 242.04005 247.88283">(400, 0)(400, 400)</tspan></text>
<text
           id="text3341"
           style="font-variant:normal;font-weight:normal;font-size:13.37450027px;font-family:Helvetica;-inkscape-font-specification:Helvetica;writing-mode:lr-tb;fill:#000000;fill-opacity:1;fill-rule:nonzero;stroke:none"
           transform="matrix(1,0,0,-1,81.4564,274.40653)"><tspan
             id="tspan3339"
             y="0"
             x="0 8.9207916 16.357014 23.793236 26.762375 34.198597 41.634819 44.603958 52.04018 59.476402 63.194511 70.630737 74.348846 78.066956 85.503181 92.9394 100.37563 107.06287 110.78098 117.46823 124.90446 132.34068 136.05879 143.49501 150.93123 154.64934 161.33659">Beginning of body contents.</tspan></text>
</g><g
         transform="scale(10)"
         id="g3343"><text
           id="text3347"
           style="font-variant:normal;font-weight:normal;font-size:13.37450027px;font-family:Helvetica;-inkscape-font-specification:Helvetica;writing-mode:lr-tb;fill:#f91340;fill-opacity:1;fill-rule:nonzero;stroke:none"
           transform="matrix(1,0,0,-1,254.371,274.407)"><tspan
             id="tspan3345"
             y="0"
             x="0 8.9207916 12.638903 20.075125 24.528833">Start</tspan></text>
</g><path
         id="path3349"
         style="fill:none;stroke:#000000;stroke-width:7.5;stroke-linecap:butt;stroke-linejoin:miter;stroke-miterlimit:10;stroke-dasharray:none;stroke-opacity:1"
         d="M 413.332,2713.63 H 289.137 v -343.92 h 143.301" /><g
         transform="scale(10)"
         id="g3351"><text
           id="text3355"
           style="font-style:oblique;font-variant:normal;font-size:10.50860023px;font-family:Helvetica;-inkscape-font-specification:Helvetica-Oblique;writing-mode:lr-tb;fill:#000000;fill-opacity:1;fill-rule:nonzero;stroke:none"
           transform="matrix(1,0,0,-1,1.20938,250.465)"><tspan
             id="tspan3353"
             y="0"
             x="0 5.8427815 11.685563 14.606954 20.449736">24 px</tspan></text>
</g><g
         transform="scale(10)"
         id="g3357"><text
           id="text3363"
           style="font-variant:normal;font-weight:normal;font-size:13.37450027px;font-family:Helvetica;-inkscape-font-specification:Helvetica;writing-mode:lr-tb;fill:#f91340;fill-opacity:1;fill-rule:nonzero;stroke:none"
           transform="matrix(1,0,0,-1,81.4566,202.758)"><tspan
             id="tspan3359"
             y="0"
             x="0 7.4362221 11.154333 14.872444 22.308666 29.744888 33.462997 40.89922 45.352928 49.071041 55.758289 63.194511 70.630737 74.348846 81.785065 89.221291 92.9394 99.626648">of outer contents.</tspan><tspan
             id="tspan3361"
             y="-37.257401"
             x="0 7.4362221 11.154333 14.872444 22.308666 29.744888 33.462997 40.89922 45.352928 49.071041 55.758289 63.194511 70.630737 74.348846 81.785065 89.221291 92.9394 99.626648 103.34476 107.06287 115.98367 123.41988">of outer contents. End</tspan></text>
</g><g
         transform="scale(10)"
         id="g3365"><text
           id="text3371"
           style="font-variant:normal;font-weight:normal;font-size:13.37450027px;font-family:Helvetica;-inkscape-font-specification:Helvetica;writing-mode:lr-tb;fill:#000000;fill-opacity:1;fill-rule:nonzero;stroke:none"
           transform="matrix(1,0,0,-1,191.319,202.758)"><tspan
             id="tspan3367"
             y="0"
             x="0 8.9207916 16.357014">End</tspan><tspan
             id="tspan3369"
             y="35.347301"
             x="-109.862 -102.42578 -98.707664 -94.989555 -87.553337 -80.117111 -72.680893 -65.993637 -62.275528 -55.58828 -48.152058 -40.715836 -36.997723 -29.561502 -22.12528 -18.407169 -11.719919">of body contents.</tspan></text>
</g><path
         id="path3373"
         style="fill:none;stroke:#000000;stroke-width:7.5;stroke-linecap:butt;stroke-linejoin:miter;stroke-miterlimit:10;stroke-dasharray:114.639, 38.213;stroke-dashoffset:0;stroke-opacity:1"
         d="m 2161.57,2350.61 v 0 h 19.11 v 0 z" /><path
         id="path3375"
         style="fill:none;stroke:#000000;stroke-width:7.5;stroke-linecap:butt;stroke-linejoin:miter;stroke-miterlimit:10;stroke-dasharray:114.639, 38.213;stroke-dashoffset:0;stroke-opacity:1"
         d="m 2209.34,1997.14 h 716.492 v 716.492 H 2209.34 Z" /><g
         transform="scale(10)"
         id="g3377"><text
           id="text3383"
           style="font-variant:normal;font-weight:normal;font-size:13.37450027px;font-family:Helvetica;-inkscape-font-specification:Helvetica;writing-mode:lr-tb;fill:#5151fa;fill-opacity:1;fill-rule:nonzero;stroke:none"
           transform="matrix(1,0,0,-1,224.755,240.971)"><tspan
             id="tspan3379"
             y="0"
             x="0 3.718111 11.154333 18.590555 26.026777">Inner</tspan><tspan
             id="tspan3381"
             y="37.257801"
             x="0 6.6872501 14.123472 21.559694 25.277805 32.714027 40.150249 43.868359 50.555611">contents.</tspan></text>
</g><g
         transform="scale(10)"
         id="g3385"><text
           id="text3389"
           style="font-style:oblique;font-variant:normal;font-size:10.50860023px;font-family:Helvetica;-inkscape-font-specification:Helvetica-Oblique;writing-mode:lr-tb;fill:#000000;fill-opacity:1;fill-rule:nonzero;stroke:none"
           transform="matrix(1,0,0,-1,225.711,189.324)"><tspan
             id="tspan3387"
             y="0"
             x="0 7.5872092 9.9201183 15.7629 18.68429 24.527073 30.664095 33.585487 39.428268 45.271049 51.113831 54.035221 59.878002">width= 130 px</tspan></text>
</g></g></g></svg>