<?xml version="1.0" encoding="UTF-8" standalone="no"?>
<svg
   xmlns:dc="http://purl.org/dc/elements/1.1/"
   xmlns:cc="http://creativecommons.org/ns#"
   xmlns:rdf="http://www.w3.org/1999/02/22-rdf-syntax-ns#"
   xmlns:svg="http://www.w3.org/2000/svg"
   xmlns="http://www.w3.org/2000/svg"
   viewBox="0 0 417.33334 437.33334"
   height="437.33334"
   width="417.33334"
   xml:space="preserve"
   id="svg3121"
   version="1.1"><metadata
     id="metadata3127"><rdf:RDF><cc:Work
         rdf:about=""><dc:format>image/svg+xml</dc:format><dc:type
           rdf:resource="http://purl.org/dc/dcmitype/StillImage" /><dc:title></dc:title></cc:Work></rdf:RDF></metadata><defs
     id="defs3125" /><g
     transform="matrix(1.3333333,0,0,-1.3333333,0,437.33333)"
     id="g3129"><g
       transform="scale(0.1)"
       id="g3131"><path
         id="path3133"
         style="fill:none;stroke:#000000;stroke-width:7.5;stroke-linecap:butt;stroke-linejoin:miter;stroke-miterlimit:10;stroke-dasharray:none;stroke-opacity:1"
         d="m 719.035,191.574 h 2227.75 v 2875.53 H 719.035 Z" /><g
         transform="scale(10)"
         id="g3135"><text
           id="text3153"
           style="font-variant:normal;font-weight:normal;font-size:11.46389961px;font-family:Helvetica;-inkscape-font-specification:Helvetica;writing-mode:lr-tb;fill:#000000;fill-opacity:1;fill-rule:nonzero;stroke:none"
           transform="matrix(1,0,0,-1,57.5734,273.836)"><tspan
             id="tspan3137"
             y="0"
             x="0">1</tspan><tspan
             id="tspan3139"
             y="34.3918"
             x="0">2</tspan><tspan
             id="tspan3141"
             y="70.694099"
             x="0">3</tspan><tspan
             id="tspan3143"
             y="106.9964"
             x="0">4</tspan><tspan
             id="tspan3145"
             y="142.3437"
             x="0">5</tspan><tspan
             id="tspan3147"
             y="178.646"
             x="0">6</tspan><tspan
             id="tspan3149"
             y="213.9929"
             x="0">7</tspan><tspan
             id="tspan3151"
             y="247.4292"
             x="0">8</tspan></text>
</g><path
         id="path3155"
         style="fill:none;stroke:#000000;stroke-width:7.5;stroke-linecap:butt;stroke-linejoin:miter;stroke-miterlimit:10;stroke-dasharray:none;stroke-opacity:1"
         d="M 719.035,2713.63 H 976.973" /><path
         id="path3157"
         style="fill:none;stroke:#000000;stroke-width:7.5;stroke-linecap:butt;stroke-linejoin:miter;stroke-miterlimit:10;stroke-dasharray:none;stroke-opacity:1"
         d="M 719.035,2350.61 H 976.973" /><path
         id="path3159"
         style="fill:none;stroke:#000000;stroke-width:7.5;stroke-linecap:butt;stroke-linejoin:miter;stroke-miterlimit:10;stroke-dasharray:none;stroke-opacity:1"
         d="M 719.035,554.598 H 976.973" /><path
         id="path3161"
         style="fill:none;stroke:#000000;stroke-width:7.5;stroke-linecap:butt;stroke-linejoin:miter;stroke-miterlimit:10;stroke-dasharray:none;stroke-opacity:1"
         d="M 719.035,1634.12 H 976.973" /><path
         id="path3163"
         style="fill:none;stroke:#000000;stroke-width:7.5;stroke-linecap:butt;stroke-linejoin:miter;stroke-miterlimit:10;stroke-dasharray:none;stroke-opacity:1"
         d="M 719.035,1987.59 H 976.973" /><path
         id="path3165"
         style="fill:none;stroke:#000000;stroke-width:7.5;stroke-linecap:butt;stroke-linejoin:miter;stroke-miterlimit:10;stroke-dasharray:none;stroke-opacity:1"
         d="M 719.035,1271.09 H 976.973" /><path
         id="path3167"
         style="fill:none;stroke:#000000;stroke-width:7.5;stroke-linecap:butt;stroke-linejoin:miter;stroke-miterlimit:10;stroke-dasharray:none;stroke-opacity:1"
         d="M 719.035,908.07 H 976.973" /><g
         transform="scale(10)"
         id="g3169"><text
           id="text3173"
           style="font-style:oblique;font-variant:normal;font-weight:bold;font-size:11.46389961px;font-family:Helvetica;-inkscape-font-specification:Helvetica-BoldOblique;writing-mode:lr-tb;fill:#000000;fill-opacity:1;fill-rule:nonzero;stroke:none"
           transform="matrix(1,0,0,-1,130.293,317.895)"><tspan
             id="tspan3171"
             y="0"
             x="0 8.2769356 15.281379 21.655308 28.65975 38.851158 45.225086 52.229527 56.047009 59.233971 70.055893 73.242859 80.247299 87.25174 94.256187">Document Window</tspan></text>
<text
           id="text3181"
           style="font-variant:normal;font-weight:normal;font-size:10.50860023px;font-family:Helvetica;-inkscape-font-specification:Helvetica;writing-mode:lr-tb;fill:#000000;fill-opacity:1;fill-rule:nonzero;stroke:none"
           transform="matrix(1,0,0,-1,62.3504,314.62859)"><tspan
             id="tspan3175"
             y="0"
             x="0 3.4993639 9.342145 12.263536 18.106318">(0,0)</tspan><tspan
             id="tspan3177"
             y="-1.9109401"
             x="208.261 211.76036 217.60315 220.52454 223.44592 229.28871 235.13148 240.97427">(0, 400)</tspan><tspan
             id="tspan3179"
             y="309.52505"
             x="-6.6869998 -3.1876361 2.6551454 8.4979267 14.340709 17.2621 20.183491 26.026272 203.48399 206.98337 212.82614 218.66893 224.5117 227.43311 230.35449 236.19727 242.04005 247.88283">(400, 0)(400, 400)</tspan></text>
<text
           id="text3185"
           style="font-variant:normal;font-weight:normal;font-size:13.37450027px;font-family:Helvetica;-inkscape-font-specification:Helvetica;writing-mode:lr-tb;fill:#000000;fill-opacity:1;fill-rule:nonzero;stroke:none"
           transform="matrix(1,0,0,-1,81.4564,274.40653)"><tspan
             id="tspan3183"
             y="0"
             x="0 8.9207916 16.357014 23.793236 26.762375 34.198597 41.634819 44.603958 52.04018 59.476402 63.194511 70.630737 74.348846 78.066956 85.503181 92.9394 100.37563 107.06287 110.78098 117.46823 124.90446 132.34068 136.05879 143.49501 150.93123 154.64934 161.33659">Beginning of body contents.</tspan></text>
</g><g
         transform="scale(10)"
         id="g3187"><text
           id="text3191"
           style="font-variant:normal;font-weight:normal;font-size:13.37450027px;font-family:Helvetica;-inkscape-font-specification:Helvetica;writing-mode:lr-tb;fill:#f91340;fill-opacity:1;fill-rule:nonzero;stroke:none"
           transform="matrix(1,0,0,-1,254.371,274.407)"><tspan
             id="tspan3189"
             y="0"
             x="0 8.9207916 12.638903 20.075125 24.528833">Start</tspan></text>
</g><path
         id="path3193"
         style="fill:none;stroke:#000000;stroke-width:7.5;stroke-linecap:butt;stroke-linejoin:miter;stroke-miterlimit:10;stroke-dasharray:none;stroke-opacity:1"
         d="M 413.332,2713.63 H 289.137 v -343.92 h 143.301" /><g
         transform="scale(10)"
         id="g3195"><text
           id="text3199"
           style="font-style:oblique;font-variant:normal;font-size:10.50860023px;font-family:Helvetica;-inkscape-font-specification:Helvetica-Oblique;writing-mode:lr-tb;fill:#000000;fill-opacity:1;fill-rule:nonzero;stroke:none"
           transform="matrix(1,0,0,-1,1.20938,250.465)"><tspan
             id="tspan3197"
             y="0"
             x="0 5.8427815 11.685563 14.606954 20.449736">24 px</tspan></text>
</g><path
         id="path3201"
         style="fill:none;stroke:#000000;stroke-width:7.5;stroke-linecap:butt;stroke-linejoin:miter;stroke-miterlimit:10;stroke-dasharray:114.639, 38.213;stroke-dashoffset:0;stroke-opacity:1"
         d="m 2161.57,2713.63 v 0 h 19.11 v 0 z" /><path
         id="path3203"
         style="fill:none;stroke:#000000;stroke-width:7.5;stroke-linecap:butt;stroke-linejoin:miter;stroke-miterlimit:10;stroke-dasharray:114.639, 38.213;stroke-dashoffset:0;stroke-opacity:1"
         d="m 2209.34,1997.14 h 716.492 v 716.492 H 2209.34 Z" /><g
         transform="scale(10)"
         id="g3205"><text
           id="text3211"
           style="font-variant:normal;font-weight:normal;font-size:13.37450027px;font-family:Helvetica;-inkscape-font-specification:Helvetica;writing-mode:lr-tb;fill:#5151fa;fill-opacity:1;fill-rule:nonzero;stroke:none"
           transform="matrix(1,0,0,-1,227.621,239.06)"><tspan
             id="tspan3207"
             y="0"
             x="0 3.718111 11.154333 18.590555 26.026777">Inner</tspan><tspan
             id="tspan3209"
             y="35.347301"
             x="0 6.6872501 14.123472 21.559694 25.277805 32.714027 40.150249 43.868359 50.555611">contents.</tspan></text>
</g><g
         transform="scale(10)"
         id="g3213"><text
           id="text3217"
           style="font-style:oblique;font-variant:normal;font-size:10.50860023px;font-family:Helvetica;-inkscape-font-specification:Helvetica-Oblique;writing-mode:lr-tb;fill:#000000;fill-opacity:1;fill-rule:nonzero;stroke:none"
           transform="matrix(1,0,0,-1,227.621,189.324)"><tspan
             id="tspan3215"
             y="0"
             x="0 7.5872092 9.9201183 15.7629 18.68429 24.527073 30.664095 33.585487 39.428268 45.271049 51.113831 54.035221 59.878002">width= 130 px</tspan></text>
</g><g
         transform="scale(10)"
         id="g3219"><text
           id="text3225"
           style="font-variant:normal;font-weight:normal;font-size:13.37450027px;font-family:Helvetica;-inkscape-font-specification:Helvetica;writing-mode:lr-tb;fill:#f91340;fill-opacity:1;fill-rule:nonzero;stroke:none"
           transform="matrix(1,0,0,-1,81.4566,240.015)"><tspan
             id="tspan3221"
             y="0"
             x="0 7.4362221 11.154333 14.872444 22.308666 29.744888 33.462997 40.89922 45.352928 49.071041 55.758289 63.194511 70.630737 74.348846 81.785065 89.221291 92.9394 99.626648">of outer contents.</tspan><tspan
             id="tspan3223"
             y="108.907"
             x="0 6.6872501 14.123472 21.559694 25.277805 32.714027 40.150249 43.868359 50.555611">contents.</tspan></text>
</g><g
         transform="scale(10)"
         id="g3227"><text
           id="text3231"
           style="font-variant:normal;font-weight:normal;font-size:13.37450027px;font-family:Helvetica;-inkscape-font-specification:Helvetica;writing-mode:lr-tb;fill:#000000;fill-opacity:1;fill-rule:nonzero;stroke:none"
           transform="matrix(1,0,0,-1,141.642,131.108)"><tspan
             id="tspan3229"
             y="0"
             x="0 8.9207916 16.357014 23.793236 27.511347 34.947567 38.66568 42.383789 49.820011 57.256233 64.692459 71.379707 75.097816 81.785065 89.221291 96.657509 100.37563 107.81184 115.24807 118.96618 125.65343">End of body contents.</tspan></text>
</g><g
         transform="scale(10)"
         id="g3233"><text
           id="text3237"
           style="font-variant:normal;font-weight:normal;font-size:13.37450027px;font-family:Helvetica;-inkscape-font-specification:Helvetica;writing-mode:lr-tb;fill:#f91340;fill-opacity:1;fill-rule:nonzero;stroke:none"
           transform="matrix(1,0,0,-1,81.4566,168.366)"><tspan
             id="tspan3235"
             y="0"
             x="0 8.9207916 11.889931 19.326153 22.295292 25.264431 32.700653 40.136875 43.854984 50.542236 57.978458 65.41468 69.13279 76.569016 84.005234 87.723343 94.410599 98.128708 101.84682 110.76761 118.20383 125.64005 129.35817 136.79439 140.5125 144.23061 151.66682 159.10306 162.82117 170.25739">Sibling contents. End of outer</tspan></text>
</g></g></g></svg>