<?xml version="1.0" encoding="UTF-8" standalone="no"?>
<svg
   xmlns:dc="http://purl.org/dc/elements/1.1/"
   xmlns:cc="http://creativecommons.org/ns#"
   xmlns:rdf="http://www.w3.org/1999/02/22-rdf-syntax-ns#"
   xmlns:svg="http://www.w3.org/2000/svg"
   xmlns="http://www.w3.org/2000/svg"
   viewBox="0 0 417.33334 437.33334"
   height="437.33334"
   width="417.33334"
   xml:space="preserve"
   id="svg2821"
   version="1.1"><metadata
     id="metadata2827"><rdf:RDF><cc:Work
         rdf:about=""><dc:format>image/svg+xml</dc:format><dc:type
           rdf:resource="http://purl.org/dc/dcmitype/StillImage" /><dc:title></dc:title></cc:Work></rdf:RDF></metadata><defs
     id="defs2825" /><g
     transform="matrix(1.3333333,0,0,-1.3333333,0,437.33333)"
     id="g2829"><g
       transform="scale(0.1)"
       id="g2831"><path
         id="path2833"
         style="fill:none;stroke:#000000;stroke-width:7.5;stroke-linecap:butt;stroke-linejoin:miter;stroke-miterlimit:10;stroke-dasharray:none;stroke-opacity:1"
         d="m 719.035,191.574 h 2227.75 v 2875.53 H 719.035 Z" /><g
         transform="scale(10)"
         id="g2835"><text
           id="text2853"
           style="font-variant:normal;font-weight:normal;font-size:11.46389961px;font-family:Helvetica;-inkscape-font-specification:Helvetica;writing-mode:lr-tb;fill:#000000;fill-opacity:1;fill-rule:nonzero;stroke:none"
           transform="matrix(1,0,0,-1,57.5734,273.836)"><tspan
             id="tspan2837"
             y="0"
             x="0">1</tspan><tspan
             id="tspan2839"
             y="34.3918"
             x="0">2</tspan><tspan
             id="tspan2841"
             y="70.694099"
             x="0">3</tspan><tspan
             id="tspan2843"
             y="106.9964"
             x="0">4</tspan><tspan
             id="tspan2845"
             y="142.3437"
             x="0">5</tspan><tspan
             id="tspan2847"
             y="178.646"
             x="0">6</tspan><tspan
             id="tspan2849"
             y="213.9929"
             x="0">7</tspan><tspan
             id="tspan2851"
             y="247.4292"
             x="0">8</tspan></text>
</g><path
         id="path2855"
         style="fill:none;stroke:#000000;stroke-width:7.5;stroke-linecap:butt;stroke-linejoin:miter;stroke-miterlimit:10;stroke-dasharray:none;stroke-opacity:1"
         d="M 719.035,2713.63 H 976.973" /><path
         id="path2857"
         style="fill:none;stroke:#000000;stroke-width:7.5;stroke-linecap:butt;stroke-linejoin:miter;stroke-miterlimit:10;stroke-dasharray:none;stroke-opacity:1"
         d="M 719.035,2350.61 H 976.973" /><path
         id="path2859"
         style="fill:none;stroke:#000000;stroke-width:7.5;stroke-linecap:butt;stroke-linejoin:miter;stroke-miterlimit:10;stroke-dasharray:none;stroke-opacity:1"
         d="M 719.035,554.598 H 976.973" /><path
         id="path2861"
         style="fill:none;stroke:#000000;stroke-width:7.5;stroke-linecap:butt;stroke-linejoin:miter;stroke-miterlimit:10;stroke-dasharray:none;stroke-opacity:1"
         d="M 719.035,1634.12 H 976.973" /><path
         id="path2863"
         style="fill:none;stroke:#000000;stroke-width:7.5;stroke-linecap:butt;stroke-linejoin:miter;stroke-miterlimit:10;stroke-dasharray:none;stroke-opacity:1"
         d="M 719.035,1987.59 H 976.973" /><path
         id="path2865"
         style="fill:none;stroke:#000000;stroke-width:7.5;stroke-linecap:butt;stroke-linejoin:miter;stroke-miterlimit:10;stroke-dasharray:none;stroke-opacity:1"
         d="M 719.035,1271.09 H 976.973" /><path
         id="path2867"
         style="fill:none;stroke:#000000;stroke-width:7.5;stroke-linecap:butt;stroke-linejoin:miter;stroke-miterlimit:10;stroke-dasharray:none;stroke-opacity:1"
         d="M 719.035,908.07 H 976.973" /><g
         transform="scale(10)"
         id="g2869"><text
           id="text2873"
           style="font-style:oblique;font-variant:normal;font-weight:bold;font-size:11.46389961px;font-family:Helvetica;-inkscape-font-specification:Helvetica-BoldOblique;writing-mode:lr-tb;fill:#000000;fill-opacity:1;fill-rule:nonzero;stroke:none"
           transform="matrix(1,0,0,-1,130.293,317.895)"><tspan
             id="tspan2871"
             y="0"
             x="0 8.2769356 15.281379 21.655308 28.65975 38.851158 45.225086 52.229527 56.047009 59.233971 70.055893 73.242859 80.247299 87.25174 94.256187">Document Window</tspan></text>
<text
           id="text2881"
           style="font-variant:normal;font-weight:normal;font-size:10.50860023px;font-family:Helvetica;-inkscape-font-specification:Helvetica;writing-mode:lr-tb;fill:#000000;fill-opacity:1;fill-rule:nonzero;stroke:none"
           transform="matrix(1,0,0,-1,62.3504,314.62859)"><tspan
             id="tspan2875"
             y="0"
             x="0 3.4993639 9.342145 12.263536 18.106318">(0,0)</tspan><tspan
             id="tspan2877"
             y="-1.9109401"
             x="208.261 211.76036 217.60315 220.52454 223.44592 229.28871 235.13148 240.97427">(0, 400)</tspan><tspan
             id="tspan2879"
             y="309.52505"
             x="-6.6869998 -3.1876361 2.6551454 8.4979267 14.340709 17.2621 20.183491 26.026272 203.48399 206.98337 212.82614 218.66893 224.5117 227.43311 230.35449 236.19727 242.04005 247.88283">(400, 0)(400, 400)</tspan></text>
</g><path
         id="path2883"
         style="fill:none;stroke:#000000;stroke-width:7.5;stroke-linecap:butt;stroke-linejoin:miter;stroke-miterlimit:10;stroke-dasharray:none;stroke-opacity:1"
         d="M 413.332,2713.63 H 289.137 v -343.92 h 143.301" /><g
         transform="scale(10)"
         id="g2885"><text
           id="text2889"
           style="font-style:oblique;font-variant:normal;font-size:10.50860023px;font-family:Helvetica;-inkscape-font-specification:Helvetica-Oblique;writing-mode:lr-tb;fill:#000000;fill-opacity:1;fill-rule:nonzero;stroke:none"
           transform="matrix(1,0,0,-1,1.20938,250.465)"><tspan
             id="tspan2887"
             y="0"
             x="0 5.8427815 11.685563 14.606954 20.449736">24 px</tspan></text>
<text
           id="text2895"
           style="font-variant:normal;font-weight:normal;font-size:13.37450027px;font-family:Helvetica;-inkscape-font-specification:Helvetica;writing-mode:lr-tb;fill:#000000;fill-opacity:1;fill-rule:nonzero;stroke:none"
           transform="matrix(1,0,0,-1,81.45668,274.4072)"><tspan
             id="tspan2891"
             y="0"
             x="0 8.9207916 16.357014 23.793236 26.762375 34.198597 41.634819 44.603958 52.04018 59.476402 63.194511 70.630737 74.348846 78.066956 85.503181 92.9394 100.37563 107.06287 110.78098 117.46823 124.90446 132.34068 136.05879 143.49501 150.93123 154.64934 161.33659 165.0547 168.77281 177.6936 185.12982 192.56606 196.28416 203.72038">Beginning of body contents. End of</tspan><tspan
             id="tspan2893"
             y="35.346901"
             x="0 7.4362221 14.872444 22.308666 28.995916 32.714027 39.401276 46.837498 54.27372 57.991833 65.428055 72.864273 76.58239 83.269638">body contents.</tspan></text>
</g><path
         id="path2897"
         style="fill:none;stroke:#000000;stroke-width:7.5;stroke-linecap:butt;stroke-linejoin:miter;stroke-miterlimit:10;stroke-dasharray:114.639, 38.213;stroke-dashoffset:0;stroke-opacity:1"
         d="m 1807.79,221.637 h 1118.05 v 1389.99 H 1807.79 Z" /><g
         transform="scale(10)"
         id="g2899"><text
           id="text2903"
           style="font-style:oblique;font-variant:normal;font-size:10.50860023px;font-family:Helvetica;-inkscape-font-specification:Helvetica-Oblique;writing-mode:lr-tb;fill:#000000;fill-opacity:1;fill-rule:nonzero;stroke:none"
           transform="matrix(1,0,0,-1,155.017,164.486)"><tspan
             id="tspan2901"
             y="0"
             x="0 3.4993639 9.342145 15.184927 21.027708 23.949099 26.870491 32.713272 38.556053 44.398834">(200, 200)</tspan></text>
</g><g
         transform="scale(10)"
         id="g2905"><text
           id="text2911"
           style="font-variant:normal;font-weight:normal;font-size:13.37450027px;font-family:Helvetica;-inkscape-font-specification:Helvetica;writing-mode:lr-tb;fill:#f91340;fill-opacity:1;fill-rule:nonzero;stroke:none"
           transform="matrix(1,0,0,-1,182.721,128.242)"><tspan
             id="tspan2907"
             y="0"
             x="0 8.9207916 12.638903 20.075125 24.528833 28.246944 31.965055 39.401276 43.119389 46.837498 54.27372 61.709942 65.428055 72.864273">Start of outer</tspan><tspan
             id="tspan2909"
             y="34.3918"
             x="0 6.6872501 14.123472 21.559694 25.277805 32.714027 40.150249 43.868359 50.555611">contents.</tspan></text>
</g><g
         transform="scale(10)"
         id="g2913"><text
           id="text2919"
           style="font-variant:normal;font-weight:normal;font-size:13.37450027px;font-family:Helvetica;-inkscape-font-specification:Helvetica;writing-mode:lr-tb;fill:#5151fa;fill-opacity:1;fill-rule:nonzero;stroke:none"
           transform="matrix(1,0,0,-1,246.728,93.8504)"><tspan
             id="tspan2915"
             y="0"
             x="0 3.718111 11.154333 18.590555 26.026777">Inner</tspan><tspan
             id="tspan2917"
             y="31.5254"
             x="-64.007004 -57.319752 -49.88353 -42.447308 -38.729195 -31.292973 -23.85675 -20.138639 -13.45139">contents.</tspan></text>
</g><g
         transform="scale(10)"
         id="g2921"><text
           id="text2927"
           style="font-variant:normal;font-weight:normal;font-size:13.37450027px;font-family:Helvetica;-inkscape-font-specification:Helvetica;writing-mode:lr-tb;fill:#f91340;fill-opacity:1;fill-rule:nonzero;stroke:none"
           transform="matrix(1,0,0,-1,246.728,62.325)"><tspan
             id="tspan2923"
             y="0"
             x="0 8.9207916 16.357014 23.793236 27.511347 34.947567">End of</tspan><tspan
             id="tspan2925"
             y="32.4813"
             x="-64.007004 -56.570778 -49.134556 -45.416447 -37.980225 -33.526516 -29.808403 -23.121153 -15.684932 -8.2487097 -4.5305986 2.9056234 10.341846 14.059957 20.747206">outer contents.</tspan></text>
</g></g></g></svg>