<?xml version="1.0" encoding="UTF-8" standalone="no"?>
<svg
   xmlns:dc="http://purl.org/dc/elements/1.1/"
   xmlns:cc="http://creativecommons.org/ns#"
   xmlns:rdf="http://www.w3.org/1999/02/22-rdf-syntax-ns#"
   xmlns:svg="http://www.w3.org/2000/svg"
   xmlns="http://www.w3.org/2000/svg"
   viewBox="0 0 333.33334 126.66667"
   height="126.66667"
   width="333.33334"
   xml:space="preserve"
   id="svg4032"
   version="1.1"><metadata
     id="metadata4038"><rdf:RDF><cc:Work
         rdf:about=""><dc:format>image/svg+xml</dc:format><dc:type
           rdf:resource="http://purl.org/dc/dcmitype/StillImage" /><dc:title></dc:title></cc:Work></rdf:RDF></metadata><defs
     id="defs4036" /><g
     transform="matrix(1.3333333,0,0,-1.3333333,0,126.66667)"
     id="g4040"><g
       transform="scale(0.1)"
       id="g4042"><g
         transform="scale(10)"
         id="g4044"><text
           id="text4048"
           style="font-variant:normal;font-weight:normal;font-size:11.46389961px;font-family:Helvetica;-inkscape-font-specification:Helvetica;writing-mode:lr-tb;fill:#000000;fill-opacity:1;fill-rule:nonzero;stroke:none"
           transform="matrix(1,0,0,-1,14.5734,68.1176)"><tspan
             id="tspan4046"
             y="0"
             x="0 7.6464214 14.02035 19.7523 26.126228 29.943707 36.317635">Several</tspan></text>
<text
           id="text4054"
           style="font-style:oblique;font-variant:normal;font-size:11.46389961px;font-family:Helvetica;-inkscape-font-specification:Helvetica-Oblique;writing-mode:lr-tb;fill:#000000;fill-opacity:1;fill-rule:nonzero;stroke:none"
           transform="matrix(1,0,0,-1,66.1613,67.945725)"><tspan
             id="tspan4050"
             y="0"
             x="0 6.3739285 15.923357 22.297285 28.671213 35.045143 40.777092 43.322079 49.054028 55.427956">emphasized</tspan><tspan
             id="tspan4052"
             y="21.0172"
             x="-51.587898 -43.310963 -36.937035 -33.119556 -26.745628">words</tspan></text>
<text
           id="text4058"
           style="font-variant:normal;font-weight:normal;font-size:11.46389961px;font-family:Helvetica;-inkscape-font-specification:Helvetica;writing-mode:lr-tb;fill:#000000;fill-opacity:1;fill-rule:nonzero;stroke:none"
           transform="matrix(1,0,0,-1,58.5183,47.100791)"><tspan
             id="tspan4056"
             y="0"
             x="0 6.3739285 12.747857 19.121786 25.495714 31.869642 35.687122 38.874084 45.248013 51.621941 55.439419 61.813351">appear here.</tspan></text>
</g><path
         id="path4060"
         style="fill:#808080;fill-opacity:1;fill-rule:evenodd;stroke:none"
         d="m 23.8242,125.785 h 112.363 v 783.25 H 23.8242 Z" /><path
         id="path4062"
         style="fill:none;stroke:#000000;stroke-width:7.5;stroke-linecap:butt;stroke-linejoin:miter;stroke-miterlimit:10;stroke-dasharray:none;stroke-opacity:1"
         d="m 23.8242,125.785 h 112.363 v 783.25 H 23.8242 Z" /><path
         id="path4064"
         style="fill:#808080;fill-opacity:1;fill-rule:evenodd;stroke:none"
         d="m 1294.41,125.785 h 112.363 v 783.25 H 1294.41 Z" /><path
         id="path4066"
         style="fill:none;stroke:#000000;stroke-width:7.5;stroke-linecap:butt;stroke-linejoin:miter;stroke-miterlimit:10;stroke-dasharray:none;stroke-opacity:1"
         d="m 1294.41,125.785 h 112.363 v 783.25 H 1294.41 Z" /><path
         id="path4068"
         style="fill:none;stroke:#000000;stroke-width:7.5;stroke-linecap:butt;stroke-linejoin:miter;stroke-miterlimit:10;stroke-dasharray:none;stroke-opacity:1"
         d="M 174.395,197.898 H 1253.91" /><path
         id="path4070"
         style="fill:#808080;fill-opacity:1;fill-rule:evenodd;stroke:none"
         d="m 250.82,178.789 -76.425,19.109 76.425,19.106" /><path
         id="path4072"
         style="fill:none;stroke:#000000;stroke-width:7.5;stroke-linecap:butt;stroke-linejoin:miter;stroke-miterlimit:10;stroke-dasharray:none;stroke-opacity:1"
         d="m 250.82,178.789 -76.425,19.109 76.425,19.106" /><path
         id="path4074"
         style="fill:#808080;fill-opacity:1;fill-rule:evenodd;stroke:none"
         d="m 1177.49,217.004 76.42,-19.106 -76.42,-19.109" /><path
         id="path4076"
         style="fill:none;stroke:#000000;stroke-width:7.5;stroke-linecap:butt;stroke-linejoin:miter;stroke-miterlimit:10;stroke-dasharray:none;stroke-opacity:1"
         d="m 1177.49,217.004 76.42,-19.106 -76.42,-19.109" /><g
         transform="scale(10)"
         id="g4078"><text
           id="text4082"
           style="font-style:oblique;font-variant:normal;font-size:10.50860023px;font-family:Helvetica;-inkscape-font-specification:Helvetica-Oblique;writing-mode:lr-tb;fill:#000000;fill-opacity:1;fill-rule:nonzero;stroke:none"
           transform="matrix(1,0,0,-1,30.3363,5.57852)"><tspan
             id="tspan4080"
             y="0"
             x="0 9.9201183 12.253028 18.09581 21.0172 26.859982 29.781372 35.624153 38.545544 41.466934 47.309719 53.1525 56.651863 62.494644 68.337425 71.836792 77.679573 83.522354">Width of paragraph</tspan></text>
</g><path
         id="path4084"
         style="fill:none;stroke:#000000;stroke-width:19.10650063;stroke-linecap:butt;stroke-linejoin:miter;stroke-miterlimit:10;stroke-dasharray:114.639, 38.213;stroke-dashoffset:0;stroke-opacity:1"
         d="M 1292.13,776.078 H 632.953 V 626.137 h 668.727" /><path
         id="path4086"
         style="fill:none;stroke:#000000;stroke-width:19.10650063;stroke-linecap:butt;stroke-linejoin:miter;stroke-miterlimit:10;stroke-dasharray:114.639, 38.213;stroke-dashoffset:0;stroke-opacity:1"
         d="M 136.184,551.367 H 480.098 V 427.176 H 145.734 v 0" /><path
         id="path4088"
         style="fill:none;stroke:#000000;stroke-width:7.5;stroke-linecap:butt;stroke-linejoin:miter;stroke-miterlimit:10;stroke-dasharray:none;stroke-opacity:1"
         d="m 1416.32,656.453 h 38.21" /><path
         id="path4090"
         style="fill:none;stroke:#000000;stroke-width:7.5;stroke-linecap:butt;stroke-linejoin:miter;stroke-miterlimit:10;stroke-dasharray:none;stroke-opacity:1"
         d="m 1416.32,895.285 h 38.21" /><path
         id="path4092"
         style="fill:none;stroke:#000000;stroke-width:7.5;stroke-linecap:butt;stroke-linejoin:miter;stroke-miterlimit:10;stroke-dasharray:none;stroke-opacity:1"
         d="m 1416.32,207.449 h 38.21" /><path
         id="path4094"
         style="fill:none;stroke:#000000;stroke-width:7.5;stroke-linecap:butt;stroke-linejoin:miter;stroke-miterlimit:10;stroke-dasharray:none;stroke-opacity:1"
         d="m 1416.32,446.281 h 38.21" /><path
         id="path4096"
         style="fill:none;stroke:#000000;stroke-width:7.5;stroke-linecap:butt;stroke-linejoin:miter;stroke-miterlimit:10;stroke-dasharray:none;stroke-opacity:1"
         d="M 1550.06,895.285 V 656.453" /><path
         id="path4098"
         style="fill:none;stroke:#000000;stroke-width:7.5;stroke-linecap:butt;stroke-linejoin:miter;stroke-miterlimit:10;stroke-dasharray:none;stroke-opacity:1"
         d="m 1530.96,818.859 19.1,76.426 19.11,-76.426" /><path
         id="path4100"
         style="fill:none;stroke:#000000;stroke-width:7.5;stroke-linecap:butt;stroke-linejoin:miter;stroke-miterlimit:10;stroke-dasharray:none;stroke-opacity:1"
         d="m 1569.17,732.879 -19.11,-76.426 -19.1,76.426" /><g
         transform="scale(10)"
         id="g4102"><text
           id="text4106"
           style="font-style:oblique;font-variant:normal;font-size:10.50860023px;font-family:Helvetica;-inkscape-font-specification:Helvetica-Oblique;writing-mode:lr-tb;fill:#000000;fill-opacity:1;fill-rule:nonzero;stroke:none"
           transform="matrix(1,0,0,-1,162.649,74.8395)"><tspan
             id="tspan4104"
             y="0"
             x="0 5.8427815 8.1756907 14.018473 19.861254 22.782644 28.625427 34.468208 36.801117 42.643898 48.486679 51.40807 54.32946 60.172245 63.093636 68.936417 74.779198">Line height 2.4em</tspan></text>
</g><path
         id="path4108"
         style="fill:none;stroke:#ffffff;stroke-width:7.5;stroke-linecap:butt;stroke-linejoin:miter;stroke-miterlimit:10;stroke-dasharray:none;stroke-opacity:1"
         d="m 1492.75,618.242 h 993.535 V 933.5 H 1492.75 Z" /></g></g></svg>