<?xml version="1.0" encoding="UTF-8" standalone="no"?>
<svg
   xmlns:dc="http://purl.org/dc/elements/1.1/"
   xmlns:cc="http://creativecommons.org/ns#"
   xmlns:rdf="http://www.w3.org/1999/02/22-rdf-syntax-ns#"
   xmlns:svg="http://www.w3.org/2000/svg"
   xmlns="http://www.w3.org/2000/svg"
   viewBox="0 0 261.33334 280"
   height="280"
   width="261.33334"
   xml:space="preserve"
   id="svg4148"
   version="1.1"><metadata
     id="metadata4154"><rdf:RDF><cc:Work
         rdf:about=""><dc:format>image/svg+xml</dc:format><dc:type
           rdf:resource="http://purl.org/dc/dcmitype/StillImage" /><dc:title></dc:title></cc:Work></rdf:RDF></metadata><defs
     id="defs4152" /><g
     transform="matrix(1.3333333,0,0,-1.3333333,0,280)"
     id="g4156"><g
       transform="scale(0.1)"
       id="g4158"><g
         transform="scale(10)"
         id="g4160"><text
           id="text4170"
           style="font-variant:normal;font-weight:normal;font-size:11.46389961px;font-family:Helvetica;-inkscape-font-specification:Helvetica;writing-mode:lr-tb;fill:#000000;fill-opacity:1;fill-rule:nonzero;stroke:none"
           transform="matrix(1,0,0,-1,62.1098,199.661)"><tspan
             id="tspan4162"
             y="0"
             x="0 3.1869643 5.7319498 9.5494289 15.281379 18.468344 21.655308 24.200293 26.745279 32.47723 35.664192 38.851158 41.396141 44.583107 50.957035">first list item</tspan><tspan
             id="tspan4164"
             y="11.4637"
             x="0 5.7319498 12.105879 21.655308 28.029236 33.761185 36.948151 40.135113 42.680099 46.497578 52.229527">comes first</tspan><tspan
             id="tspan4166"
             y="34.3918"
             x="0 5.7319498 12.105879 17.837828 24.211758 30.585686 36.959614 40.146576 42.691563 45.236549 50.968498 54.155464 57.342426 59.887413 63.074379 69.448303">second list item</tspan><tspan
             id="tspan4168"
             y="45.855499"
             x="0 5.7319498 12.105879 21.655308 28.029236 33.761185 36.948151 42.680099 49.054028 54.785976 61.159908 67.533836">comes second</tspan></text>
</g><path
         id="path4172"
         style="fill:#000000;fill-opacity:1;fill-rule:evenodd;stroke:none"
         d="m 554.223,1675.73 c 0,10.55 -8.555,19.11 -19.106,19.11 -10.551,0 -19.105,-8.56 -19.105,-19.11 0,-10.55 8.554,-19.1 19.105,-19.1 10.551,0 19.106,8.55 19.106,19.1" /><path
         id="path4174"
         style="fill:none;stroke:#000000;stroke-width:7.5;stroke-linecap:butt;stroke-linejoin:miter;stroke-miterlimit:10;stroke-dasharray:none;stroke-opacity:1"
         d="m 554.223,1675.73 c 0,10.55 -8.555,19.11 -19.106,19.11 -10.551,0 -19.105,-8.56 -19.105,-19.11 0,-10.55 8.554,-19.1 19.105,-19.1 10.551,0 19.106,8.55 19.106,19.1" /><path
         id="path4176"
         style="fill:#000000;fill-opacity:1;fill-rule:evenodd;stroke:none"
         d="m 554.223,2029.2 c 0,10.55 -8.555,19.11 -19.106,19.11 -10.551,0 -19.105,-8.56 -19.105,-19.11 0,-10.55 8.554,-19.11 19.105,-19.11 10.551,0 19.106,8.56 19.106,19.11" /><path
         id="path4178"
         style="fill:none;stroke:#000000;stroke-width:7.5;stroke-linecap:butt;stroke-linejoin:miter;stroke-miterlimit:10;stroke-dasharray:none;stroke-opacity:1"
         d="m 554.223,2029.2 c 0,10.55 -8.555,19.11 -19.106,19.11 -10.551,0 -19.105,-8.56 -19.105,-19.11 0,-10.55 8.554,-19.11 19.105,-19.11 10.551,0 19.106,8.56 19.106,19.11" /><path
         id="path4180"
         style="fill:#000000;fill-opacity:1;fill-rule:evenodd;stroke:none"
         d="m 659.309,806.387 c 0,10.551 -8.555,19.105 -19.106,19.105 -10.551,0 -19.105,-8.554 -19.105,-19.105 0,-10.551 8.554,-19.11 19.105,-19.11 10.551,0 19.106,8.559 19.106,19.11" /><path
         id="path4182"
         style="fill:none;stroke:#000000;stroke-width:7.5;stroke-linecap:butt;stroke-linejoin:miter;stroke-miterlimit:10;stroke-dasharray:none;stroke-opacity:1"
         d="m 659.309,806.387 c 0,10.551 -8.555,19.105 -19.106,19.105 -10.551,0 -19.105,-8.554 -19.105,-19.105 0,-10.551 8.554,-19.11 19.105,-19.11 10.551,0 19.106,8.559 19.106,19.11" /><path
         id="path4184"
         style="fill:#000000;fill-opacity:1;fill-rule:evenodd;stroke:none"
         d="m 659.309,1150.3 c 0,10.56 -8.555,19.11 -19.106,19.11 -10.551,0 -19.105,-8.55 -19.105,-19.11 0,-10.55 8.554,-19.1 19.105,-19.1 10.551,0 19.106,8.55 19.106,19.1" /><path
         id="path4186"
         style="fill:none;stroke:#000000;stroke-width:7.5;stroke-linecap:butt;stroke-linejoin:miter;stroke-miterlimit:10;stroke-dasharray:none;stroke-opacity:1"
         d="m 659.309,1150.3 c 0,10.56 -8.555,19.11 -19.106,19.11 -10.551,0 -19.105,-8.55 -19.105,-19.11 0,-10.55 8.554,-19.1 19.105,-19.1 10.551,0 19.106,8.55 19.106,19.1" /><g
         transform="scale(10)"
         id="g4188"><text
           id="text4198"
           style="font-variant:normal;font-weight:normal;font-size:11.46389961px;font-family:Helvetica;-inkscape-font-specification:Helvetica;writing-mode:lr-tb;fill:#000000;fill-opacity:1;fill-rule:nonzero;stroke:none"
           transform="matrix(1,0,0,-1,71.670693,111.771)"><tspan
             id="tspan4190"
             y="0"
             x="0 3.1869643 5.7319498 9.5494289 15.281379 18.468344 21.655308 24.200293 26.745279 32.47723 35.664192">first list </tspan><tspan
             id="tspan4192"
             y="11.4641"
             x="-9.5608931 -7.0159068 -3.8289425 2.5449858 12.094415 15.281379 21.013329 27.387257 36.936687 43.310616 49.042564 52.229527 55.416492 57.961479 61.778957 67.51091">item comes first</tspan><tspan
             id="tspan4194"
             y="34.3918"
             x="-9.5608931 0 5.7319498 12.105879 17.837828 24.211758 30.585686 36.959614 40.146576 42.691563 45.236549 50.968498"> second list</tspan><tspan
             id="tspan4196"
             y="45.855499"
             x="-9.5608931 -7.0159068 -3.8289425 2.5449858 12.094415 15.281379 21.013329 27.387257 36.936687 43.310616 49.042564 52.229527 57.961479 64.335403 70.06736 76.441284 82.815216">item comes second</tspan></text>
</g><path
         id="path4200"
         style="fill:none;stroke:#000000;stroke-width:7.5;stroke-linecap:butt;stroke-linejoin:miter;stroke-miterlimit:10;stroke-dasharray:none;stroke-opacity:1"
         d="M 1929.89,1389.13 H 19.2422" /><path
         id="path4202"
         style="fill:none;stroke:#000000;stroke-width:7.5;stroke-linecap:butt;stroke-linejoin:miter;stroke-miterlimit:10;stroke-dasharray:none;stroke-opacity:1"
         d="M 630.648,472.023 V 13.4648" /><path
         id="path4204"
         style="fill:#000000;fill-opacity:1;fill-rule:evenodd;stroke:none"
         d="m 611.543,395.598 19.105,76.425 19.11,-76.425" /><path
         id="path4206"
         style="fill:none;stroke:#000000;stroke-width:7.5;stroke-linecap:butt;stroke-linejoin:miter;stroke-miterlimit:10;stroke-dasharray:none;stroke-opacity:1"
         d="m 611.543,395.598 19.105,76.425 19.11,-76.425" /><g
         transform="scale(10)"
         id="g4208"><text
           id="text4216"
           style="font-style:oblique;font-variant:normal;font-size:10.50860023px;font-family:Helvetica;-inkscape-font-specification:Helvetica-Oblique;writing-mode:lr-tb;fill:#000000;fill-opacity:1;fill-rule:nonzero;stroke:none"
           transform="matrix(1,0,0,-1,70.7074,27.259)"><tspan
             id="tspan4210"
             y="0"
             x="0 6.4207544 12.263536 18.106318 21.027708 23.360619 29.2034 32.12479 35.046181 37.967571 43.22187 45.554783 51.397564 57.240345 62.494644 65.416039 71.25882 74.180206 77.101601 80.022987 85.865768">The left sides of the</tspan><tspan
             id="tspan4212"
             y="10.5086"
             x="0 2.3329091 4.6658182 9.9201183 12.841509 15.7629 18.09581 21.0172 26.859982 35.613644 38.535038 44.377819 50.2206 55.474899 61.31768 66.571983 69.49337 75.336151 78.835518 84.678299 87.599693 93.442474 99.285255 102.20664">list item boxes are not </tspan><tspan
             id="tspan4214"
             y="21.0172"
             x="0 5.8427815 8.7641726 11.685563 17.528345 22.782644 25.704035 31.546818 37.389599 40.310989 46.15377 51.40807 54.32946 63.083126 68.925911 72.42527 77.679573 83.522354 87.021713 89.943108 95.785889 98.118797 103.96158 109.21588 115.05866 123.81232 129.65511 135.49789">affected by marker placement</tspan></text>
</g></g></g></svg>