<?xml version="1.0" encoding="UTF-8" standalone="no"?>
<svg
   xmlns:dc="http://purl.org/dc/elements/1.1/"
   xmlns:cc="http://creativecommons.org/ns#"
   xmlns:rdf="http://www.w3.org/1999/02/22-rdf-syntax-ns#"
   xmlns:svg="http://www.w3.org/2000/svg"
   xmlns="http://www.w3.org/2000/svg"
   viewBox="0 0 226.66667 221.33333"
   height="221.33333"
   width="226.66667"
   xml:space="preserve"
   id="svg4256"
   version="1.1"><metadata
     id="metadata4262"><rdf:RDF><cc:Work
         rdf:about=""><dc:format>image/svg+xml</dc:format><dc:type
           rdf:resource="http://purl.org/dc/dcmitype/StillImage" /><dc:title></dc:title></cc:Work></rdf:RDF></metadata><defs
     id="defs4260" /><g
     transform="matrix(1.3333333,0,0,-1.3333333,0,221.33333)"
     id="g4264"><g
       transform="scale(0.1)"
       id="g4266"><path
         id="path4268"
         style="fill:none;stroke:#f91340;stroke-width:19.10650063;stroke-linecap:butt;stroke-linejoin:miter;stroke-miterlimit:10;stroke-dasharray:none;stroke-opacity:1"
         d="m 31.8203,688.961 h 955.324 v 955.328 H 31.8203 Z" /><g
         transform="scale(10)"
         id="g4270"><text
           id="text4276"
           style="font-style:oblique;font-variant:normal;font-size:11.46389961px;font-family:Helvetica;-inkscape-font-specification:Helvetica-Oblique;writing-mode:lr-tb;fill:#000000;fill-opacity:1;fill-rule:nonzero;stroke:none"
           transform="matrix(1,0,0,-1,2.22656,52.0902)"><tspan
             id="tspan4272"
             y="0"
             x="0 8.2769356 11.4639">DIV</tspan><tspan
             id="tspan4274"
             y="46.810902"
             x="47.766399 55.412823 61.786751 70.705666 78.982597 86.629021 95.547935 103.82487 112.74378 119.74823">BLOCKQUOTE</tspan></text>
</g><path
         id="path4278"
         style="fill:none;stroke:#000000;stroke-width:19.10650063;stroke-linecap:butt;stroke-linejoin:miter;stroke-miterlimit:10;stroke-dasharray:114.639, 38.213;stroke-dashoffset:0;stroke-opacity:1"
         d="m 509.477,211.305 h 1178.59 v 925.094 H 509.477 Z" /><g
         transform="scale(10)"
         id="g4280"><text
           id="text4294"
           style="font-variant:normal;font-weight:normal;font-size:11.46389961px;font-family:Helvetica;-inkscape-font-specification:Helvetica;writing-mode:lr-tb;fill:#000000;fill-opacity:1;fill-rule:nonzero;stroke:none"
           transform="matrix(1,0,0,-1,53.8141,101.782)"><tspan
             id="tspan4282"
             y="0"
             x="0 3.1869643 6.3739285 12.747857 15.292843 21.666771 28.040699 30.585686 33.772648 36.959614 39.504601 42.049583 47.781536 54.155464 57.342426 60.529392 66.90332 73.277252 76.464211 82.838142 85.383125 91.757057 97.489006">I didn’t like the play,</tspan><tspan
             id="tspan4284"
             y="11.4641"
             x="0 6.3739285 12.747857 15.934821 19.121786 22.30875 28.682678 35.056606 41.430534 44.6175 47.804462 50.991428 56.723377 63.097305 71.374245 74.561203 77.106194">but then I saw it</tspan><tspan
             id="tspan4286"
             y="22.9282"
             x="0 6.3739285 12.747857 19.121786 25.495714 29.313192 32.500156 38.874084 45.248013 50.979961 57.353893 61.171371 66.90332 73.277252">under adverse </tspan><tspan
             id="tspan4288"
             y="34.3923"
             x="0 5.7319498 12.105879 18.479807 24.853735 27.398722 30.585686 33.130672 39.504601 45.878529 51.610477 54.797443 61.492359 64.679321 67.866287 74.240219 80.614143">conditions − the </tspan><tspan
             id="tspan4290"
             y="45.8564"
             x="0 5.7319498 12.105879 15.923357 19.110321 25.484249 28.029236 34.403164 37.59013 45.867065 52.240993 57.972942 61.159908 67.533836 73.907761">curtain was up.</tspan><tspan
             id="tspan4292"
             y="57.320499"
             x="0 22.30875 29.003668 32.190632 41.109547 44.927025 51.300953 57.674881 63.40683 69.780762 76.154686 79.341652 88.891083 95.265007 99.082489"> − Groucho Marx</tspan></text>
</g></g></g></svg>