<?xml version="1.0" encoding="UTF-8" standalone="no"?>
<svg
   xmlns:dc="http://purl.org/dc/elements/1.1/"
   xmlns:cc="http://creativecommons.org/ns#"
   xmlns:rdf="http://www.w3.org/1999/02/22-rdf-syntax-ns#"
   xmlns:svg="http://www.w3.org/2000/svg"
   xmlns="http://www.w3.org/2000/svg"
   viewBox="0 0 142.66667 142.66667"
   height="142.66667"
   width="142.66667"
   xml:space="preserve"
   id="svg4334"
   version="1.1"><metadata
     id="metadata4340"><rdf:RDF><cc:Work
         rdf:about=""><dc:format>image/svg+xml</dc:format><dc:type
           rdf:resource="http://purl.org/dc/dcmitype/StillImage" /><dc:title></dc:title></cc:Work></rdf:RDF></metadata><defs
     id="defs4338" /><g
     transform="matrix(1.3333333,0,0,-1.3333333,0,142.66667)"
     id="g4342"><g
       transform="scale(0.1)"
       id="g4344"><path
         id="path4346"
         style="fill:#ffffff;fill-opacity:1;fill-rule:evenodd;stroke:none"
         d="M 493.805,97.5664 H 972.61 v 434.797 H 493.805 Z" /><path
         id="path4348"
         style="fill:none;stroke:#000000;stroke-width:19.10650063;stroke-linecap:butt;stroke-linejoin:miter;stroke-miterlimit:10;stroke-dasharray:114.639, 38.213;stroke-dashoffset:0;stroke-opacity:1"
         d="M 493.805,97.5664 H 972.61 v 434.797 H 493.805 Z" /><g
         transform="scale(10)"
         id="g4350"><text
           id="text4360"
           style="font-variant:normal;font-weight:normal;font-size:11.46389961px;font-family:Helvetica;-inkscape-font-specification:Helvetica;writing-mode:lr-tb;fill:#000000;fill-opacity:1;fill-rule:nonzero;stroke:none"
           transform="matrix(1,0,0,-1,52.8133,40.8719)"><tspan
             id="tspan4352"
             y="0"
             x="0 3.1869643 6.3739285 12.747857 15.292843 21.666771 28.040699 30.585686 33.772648 36.959614 39.504601">I didn’t li</tspan><tspan
             id="tspan4354"
             y="11.4641"
             x="0 6.3739285 12.747857 15.934821 19.121786 22.30875 28.682678 35.056606 41.430534">but then </tspan><tspan
             id="tspan4356"
             y="22.9282"
             x="0 6.3739285 12.747857 19.121786 25.495714 29.313192 32.500156 38.874084 45.248013">under ad </tspan><tspan
             id="tspan4358"
             y="34.3923"
             x="0 5.7319498 12.105879 18.479807 24.853735 27.398722 30.585686 33.130672 39.504601">condition</tspan></text>
</g><path
         id="path4362"
         style="fill:none;stroke:#f91340;stroke-width:19.10650063;stroke-linecap:butt;stroke-linejoin:miter;stroke-miterlimit:10;stroke-dasharray:none;stroke-opacity:1"
         d="m 21.8203,98.9609 h 955.324 v 955.328 H 21.8203 Z" /><path
         id="path4364"
         style="fill:#ffffff;fill-opacity:1;fill-rule:evenodd;stroke:none"
         d="m 442.16,22.5352 h 573.195 v 66.875 H 442.16 Z" /><path
         id="path4366"
         style="fill:#ffffff;fill-opacity:1;fill-rule:evenodd;stroke:none"
         d="m 991.473,103.738 h 66.875 v 573.195 h -66.875 z" /></g></g></svg>