<?xml version="1.0" encoding="UTF-8" standalone="no"?>
<svg
   xmlns:dc="http://purl.org/dc/elements/1.1/"
   xmlns:cc="http://creativecommons.org/ns#"
   xmlns:rdf="http://www.w3.org/1999/02/22-rdf-syntax-ns#"
   xmlns:svg="http://www.w3.org/2000/svg"
   xmlns="http://www.w3.org/2000/svg"
   viewBox="0 0 412 454.66666"
   height="454.66666"
   width="412"
   xml:space="preserve"
   id="svg4406"
   version="1.1"><metadata
     id="metadata4412"><rdf:RDF><cc:Work
         rdf:about=""><dc:format>image/svg+xml</dc:format><dc:type
           rdf:resource="http://purl.org/dc/dcmitype/StillImage" /><dc:title></dc:title></cc:Work></rdf:RDF></metadata><defs
     id="defs4410" /><g
     transform="matrix(1.3333333,0,0,-1.3333333,0,454.66667)"
     id="g4414"><g
       transform="scale(0.1)"
       id="g4416"><path
         id="path4418"
         style="fill:#ffffff;fill-opacity:1;fill-rule:evenodd;stroke:none"
         d="m 18.9688,1058.11 h 1404.32 V 2395.56 H 18.9688 Z" /><path
         id="path4420"
         style="fill:none;stroke:#000000;stroke-width:7.5;stroke-linecap:butt;stroke-linejoin:miter;stroke-miterlimit:10;stroke-dasharray:none;stroke-opacity:1"
         d="m 18.9688,1058.11 h 1404.32 V 2395.56 H 18.9688 Z" /><path
         id="path4422"
         style="fill:#ffffff;fill-opacity:1;fill-rule:evenodd;stroke:none"
         d="m 281.68,1535.77 h 878.902 v 611.406 H 281.68 Z" /><path
         id="path4424"
         style="fill:none;stroke:#000000;stroke-width:7.5;stroke-linecap:butt;stroke-linejoin:miter;stroke-miterlimit:10;stroke-dasharray:none;stroke-opacity:1"
         d="m 281.68,1535.77 h 878.902 v 611.406 H 281.68 Z" /><g
         transform="scale(10)"
         id="g4426"><text
           id="text4434"
           style="font-variant:normal;font-weight:normal;font-size:11.46389961px;font-family:Helvetica;-inkscape-font-specification:Helvetica;writing-mode:lr-tb;fill:#000000;fill-opacity:1;fill-rule:nonzero;stroke:none"
           transform="matrix(1,0,0,-1,1.89688,244.895)"><tspan
             id="tspan4428"
             y="0"
             x="0 7.6464214 14.02035 20.394278 26.768206 29.955172 36.329098 42.703026">Page box</tspan><tspan
             id="tspan4430"
             y="42.989799"
             x="28.181999 35.828423 42.202351 48.576279 54.950207 58.137169 64.511101 68.328575 74.702507">Page area</tspan><tspan
             id="tspan4432"
             y="130.87959"
             x="1.9105 11.459929 17.833857 21.651337 28.025265 30.57025 36.94418 40.131142 46.50507 50.322548 56.69648">Margin area</tspan></text>
</g><path
         id="path4436"
         style="fill:#ffffff;fill-opacity:1;fill-rule:evenodd;stroke:none"
         d="m 1986.94,1468.89 h 1098.62 v 869.348 H 1986.94 Z" /><path
         id="path4438"
         style="fill:none;stroke:#000000;stroke-width:7.5;stroke-linecap:butt;stroke-linejoin:miter;stroke-miterlimit:10;stroke-dasharray:none;stroke-opacity:1"
         d="m 1986.94,1468.89 h 1098.62 v 869.348 H 1986.94 Z" /><g
         transform="scale(10)"
         id="g4440"><text
           id="text4444"
           style="font-variant:normal;font-weight:normal;font-size:11.46389961px;font-family:Helvetica;-inkscape-font-specification:Helvetica;writing-mode:lr-tb;fill:#000000;fill-opacity:1;fill-rule:nonzero;stroke:none"
           transform="matrix(1,0,0,-1,198.694,240.118)"><tspan
             id="tspan4442"
             y="0"
             x="0 7.6464214 14.02035 20.394278 26.768206">Sheet</tspan></text>
</g><path
         id="path4446"
         style="fill:#ffffff;fill-opacity:1;fill-rule:evenodd;stroke:none"
         d="m 1986.94,2911.44 h 315.258 v 334.363 H 1986.94 Z" /><path
         id="path4448"
         style="fill:none;stroke:#000000;stroke-width:7.5;stroke-linecap:butt;stroke-linejoin:miter;stroke-miterlimit:10;stroke-dasharray:none;stroke-opacity:1"
         d="m 1986.94,2911.44 h 315.258 v 334.363 H 1986.94 Z" /><g
         transform="scale(10)"
         id="g4450"><text
           id="text4454"
           style="font-variant:normal;font-weight:normal;font-size:11.46389961px;font-family:Helvetica;-inkscape-font-specification:Helvetica;writing-mode:lr-tb;fill:#000000;fill-opacity:1;fill-rule:nonzero;stroke:none"
           transform="matrix(1,0,0,-1,198.694,330.874)"><tspan
             id="tspan4452"
             y="0"
             x="0 7.6464214 14.02035 20.394278 26.768206">Sheet</tspan></text>
</g><path
         id="path4456"
         style="fill:none;stroke:#000000;stroke-width:7.5;stroke-linecap:butt;stroke-linejoin:miter;stroke-miterlimit:10;stroke-dasharray:none;stroke-opacity:1"
         d="m 1471.06,2452.88 439.45,544.53" /><path
         id="path4458"
         style="fill:#ffffff;fill-opacity:1;fill-rule:evenodd;stroke:none"
         d="m 1847.64,2949.94 62.87,47.47 -33.13,-71.47" /><path
         id="path4460"
         style="fill:none;stroke:#000000;stroke-width:7.5;stroke-linecap:butt;stroke-linejoin:miter;stroke-miterlimit:10;stroke-dasharray:none;stroke-opacity:1"
         d="m 1847.64,2949.94 62.87,47.47 -33.13,-71.47" /><path
         id="path4462"
         style="fill:none;stroke:#000000;stroke-width:7.5;stroke-linecap:butt;stroke-linejoin:miter;stroke-miterlimit:10;stroke-dasharray:none;stroke-opacity:1"
         d="m 1480.61,1860.58 h 429.9" /><path
         id="path4464"
         style="fill:#ffffff;fill-opacity:1;fill-rule:evenodd;stroke:none"
         d="m 1834.09,1879.68 76.42,-19.1 -76.42,-19.11" /><path
         id="path4466"
         style="fill:none;stroke:#000000;stroke-width:7.5;stroke-linecap:butt;stroke-linejoin:miter;stroke-miterlimit:10;stroke-dasharray:none;stroke-opacity:1"
         d="m 1834.09,1879.68 76.42,-19.1 -76.42,-19.11" /><g
         transform="scale(10)"
         id="g4468"><text
           id="text4476"
           style="font-style:oblique;font-variant:normal;font-size:10.50860023px;font-family:Helvetica;-inkscape-font-specification:Helvetica-Oblique;writing-mode:lr-tb;fill:#000000;fill-opacity:1;fill-rule:nonzero;stroke:none"
           transform="matrix(1,0,0,-1,128.955,273.111)"><tspan
             id="tspan4470"
             y="0"
             x="0 2.9213908 6.4207544 12.263536 18.106318 23.360619 26.282009 32.12479">transfer</tspan><tspan
             id="tspan4472"
             y="98.398399"
             x="24.838301 27.759691 31.259054 37.101837 42.944618 48.198917 51.120308 56.963089">transfer</tspan><tspan
             id="tspan4474"
             y="195.8418"
             x="3.8211 6.7424908 10.241855 16.084637 21.927418 27.181717 30.103109 35.945889">transfer</tspan></text>
</g><path
         id="path4478"
         style="fill:#ffffff;fill-opacity:1;fill-rule:evenodd;stroke:none"
         d="m 1986.94,169.652 h 429.895 v 1069.96 H 1986.94 Z" /><path
         id="path4480"
         style="fill:none;stroke:#000000;stroke-width:7.5;stroke-linecap:butt;stroke-linejoin:miter;stroke-miterlimit:10;stroke-dasharray:none;stroke-opacity:1"
         d="m 1986.94,169.652 h 429.895 v 1069.96 H 1986.94 Z" /><g
         transform="scale(10)"
         id="g4482"><text
           id="text4486"
           style="font-variant:normal;font-weight:normal;font-size:11.46389961px;font-family:Helvetica;-inkscape-font-specification:Helvetica;writing-mode:lr-tb;fill:#000000;fill-opacity:1;fill-rule:nonzero;stroke:none"
           transform="matrix(1,0,0,-1,198.694,5.10781)"><tspan
             id="tspan4484"
             y="0"
             x="0 7.6464214 14.02035 20.394278 26.768206">Sheet</tspan></text>
</g><path
         id="path4488"
         style="fill:none;stroke:#000000;stroke-width:7.5;stroke-linecap:butt;stroke-linejoin:miter;stroke-miterlimit:10;stroke-dasharray:none;stroke-opacity:1"
         d="M 1461.51,1029.45 1853.19,761.953" /><path
         id="path4490"
         style="fill:#ffffff;fill-opacity:1;fill-rule:evenodd;stroke:none"
         d="m 1800.86,820.832 52.33,-58.879 -73.89,27.324" /><path
         id="path4492"
         style="fill:none;stroke:#000000;stroke-width:7.5;stroke-linecap:butt;stroke-linejoin:miter;stroke-miterlimit:10;stroke-dasharray:none;stroke-opacity:1"
         d="m 1800.86,820.832 52.33,-58.879 -73.89,27.324" /></g></g></svg>