<?xml version="1.0" encoding="UTF-8" standalone="no"?>
<svg
   xmlns:dc="http://purl.org/dc/elements/1.1/"
   xmlns:cc="http://creativecommons.org/ns#"
   xmlns:rdf="http://www.w3.org/1999/02/22-rdf-syntax-ns#"
   xmlns:svg="http://www.w3.org/2000/svg"
   xmlns="http://www.w3.org/2000/svg"
   viewBox="0 0 326.66666 234.66667"
   height="234.66667"
   width="326.66666"
   xml:space="preserve"
   id="svg4532"
   version="1.1"><metadata
     id="metadata4538"><rdf:RDF><cc:Work
         rdf:about=""><dc:format>image/svg+xml</dc:format><dc:type
           rdf:resource="http://purl.org/dc/dcmitype/StillImage" /><dc:title></dc:title></cc:Work></rdf:RDF></metadata><defs
     id="defs4536" /><g
     transform="matrix(1.3333333,0,0,-1.3333333,0,234.66667)"
     id="g4540"><g
       transform="scale(0.1)"
       id="g4542"><path
         id="path4544"
         style="fill:#c3c3c3;fill-opacity:1;fill-rule:evenodd;stroke:none"
         d="M 2428,1734.13 V 373.645 L 2132.8,696.93 v 790.25 z" /><path
         id="path4546"
         style="fill:none;stroke:#c3c3c3;stroke-width:7.19999981;stroke-linecap:butt;stroke-linejoin:miter;stroke-miterlimit:10;stroke-dasharray:none;stroke-opacity:1"
         d="M 2428,1734.13 V 373.645 L 2132.8,696.93 v 790.25 z" /><path
         id="path4548"
         style="fill:none;stroke:#000000;stroke-width:7.19999981;stroke-linecap:butt;stroke-linejoin:miter;stroke-miterlimit:10;stroke-dasharray:none;stroke-opacity:1"
         d="M 2168.8,1333.25 V 852.988" /><path
         id="path4550"
         style="fill:none;stroke:#000000;stroke-width:7.19999981;stroke-linecap:butt;stroke-linejoin:miter;stroke-miterlimit:10;stroke-dasharray:none;stroke-opacity:1"
         d="m 2334.4,833.199 -216,122.403" /><path
         id="path4552"
         style="fill:none;stroke:#000000;stroke-width:7.19999981;stroke-linecap:butt;stroke-linejoin:miter;stroke-miterlimit:10;stroke-dasharray:none;stroke-opacity:1"
         d="m 2334.4,1308.4 -216,-72" /><path
         id="path4554"
         style="fill:#ffc4d0;fill-opacity:1;fill-rule:evenodd;stroke:none"
         d="M 2183.2,1250.8 275.199,1092.4 2183.2,934" /><path
         id="path4556"
         style="fill:none;stroke:#000000;stroke-width:14.39999962;stroke-linecap:butt;stroke-linejoin:miter;stroke-miterlimit:10;stroke-dasharray:none;stroke-opacity:1"
         d="M 354.398,1250.8 30.3984,1092.4 354.398,934" /><path
         id="path4558"
         style="fill:none;stroke:#000000;stroke-width:14.39999962;stroke-linecap:butt;stroke-linejoin:miter;stroke-miterlimit:10;stroke-dasharray:none;stroke-opacity:1"
         d="m 289.602,1222 c 0,0 0,0 10.796,-9.6 10.801,-9.6 32.403,-28.8 43.204,-61.2 10.796,-32.4 10.796,-78 0,-110.4 -10.801,-32.4 -32.403,-51.601 -43.204,-61.198 C 289.602,970 289.602,970 289.602,970" /><path
         id="path4560"
         style="fill:#c3c3c3;fill-opacity:1;fill-rule:evenodd;stroke:none"
         d="M 1196.8,1459.6 V 689.199 l -172.8,216 V 1286.8 Z" /><path
         id="path4562"
         style="fill:none;stroke:#c3c3c3;stroke-width:7.19999981;stroke-linecap:butt;stroke-linejoin:miter;stroke-miterlimit:10;stroke-dasharray:none;stroke-opacity:1"
         d="M 1196.8,1459.6 V 689.199 l -172.8,216 V 1286.8 Z" /><path
         id="path4564"
         style="fill:none;stroke:#000000;stroke-width:7.19999981;stroke-linecap:butt;stroke-linejoin:miter;stroke-miterlimit:10;stroke-dasharray:none;stroke-opacity:1"
         d="M 1056.4,1219.43 V 979.676" /><path
         id="path4566"
         style="fill:none;stroke:#000000;stroke-width:7.19999981;stroke-linecap:butt;stroke-linejoin:miter;stroke-miterlimit:10;stroke-dasharray:none;stroke-opacity:1"
         d="M 1124.8,1291.44 V 925.57" /><path
         id="path4568"
         style="fill:none;stroke:#000000;stroke-width:7.19999981;stroke-linecap:butt;stroke-linejoin:miter;stroke-miterlimit:10;stroke-dasharray:none;stroke-opacity:1"
         d="m 1038.4,1164.4 122.4,57.6" /><path
         id="path4570"
         style="fill:none;stroke:#000000;stroke-width:7.19999981;stroke-linecap:butt;stroke-linejoin:miter;stroke-miterlimit:10;stroke-dasharray:none;stroke-opacity:1"
         d="m 1038.4,1034.8 115.2,-50.402" /><path
         id="path4572"
         style="fill:#ffc4d0;fill-opacity:1;fill-rule:evenodd;stroke:none"
         d="M 1067.2,1171.6 275.199,1092.4 1067.2,1013.2" /><path
         id="path4574"
         style="fill:none;stroke:#000000;stroke-width:7.19999981;stroke-linecap:butt;stroke-linejoin:miter;stroke-miterlimit:10;stroke-dasharray:none;stroke-opacity:1"
         d="M 2284,1394.26 V 773.711" /><path
         id="path4576"
         style="fill:none;stroke:#000000;stroke-width:7.19999981;stroke-linecap:butt;stroke-linejoin:miter;stroke-miterlimit:10;stroke-dasharray:none;stroke-opacity:1"
         d="M 275.199,674.801 H 1016.8" /><path
         id="path4578"
         style="fill:#000000;fill-opacity:1;fill-rule:evenodd;stroke:none"
         d="m 260.355,674.801 76.043,-19.012 v 38.024" /><path
         id="path4580"
         style="fill:none;stroke:#000000;stroke-width:7.19999981;stroke-linecap:butt;stroke-linejoin:miter;stroke-miterlimit:10;stroke-dasharray:none;stroke-opacity:1"
         d="m 275.199,674.801 57.602,-14.403 v 28.801 z" /><path
         id="path4582"
         style="fill:#000000;fill-opacity:1;fill-rule:evenodd;stroke:none"
         d="m 1031.64,674.801 -76.038,19.012 v -38.024" /><path
         id="path4584"
         style="fill:none;stroke:#000000;stroke-width:7.19999981;stroke-linecap:butt;stroke-linejoin:miter;stroke-miterlimit:10;stroke-dasharray:none;stroke-opacity:1"
         d="m 1016.8,674.801 -57.601,14.398 v -28.801 z" /><g
         transform="scale(10)"
         id="g4586"><text
           id="text4592"
           style="font-variant:normal;font-weight:normal;font-size:10.07999992px;font-family:Helvetica;-inkscape-font-specification:Helvetica;writing-mode:lr-tb;fill:#000000;fill-opacity:1;fill-rule:nonzero;stroke:none"
           transform="matrix(1,0,0,-1,46.9602,55.4555)"><tspan
             id="tspan4588"
             y="0"
             x="0 5.6044798 11.20896 14.0112 16.24896 21.853439 26.89344 32.497921 38.102402">28 inches</tspan><tspan
             id="tspan4590"
             y="10.0801"
             x="0 5.6044798 11.20896 14.0112 19.051201">71 cm</tspan></text>
</g><path
         id="path4594"
         style="fill:none;stroke:#000000;stroke-width:7.19999981;stroke-linecap:butt;stroke-linejoin:miter;stroke-miterlimit:10;stroke-dasharray:none;stroke-opacity:1"
         d="M 282.398,300.398 H 2147.2" /><path
         id="path4596"
         style="fill:#000000;fill-opacity:1;fill-rule:evenodd;stroke:none"
         d="m 267.559,300.398 76.043,-19.007 v 38.019" /><path
         id="path4598"
         style="fill:none;stroke:#000000;stroke-width:7.19999981;stroke-linecap:butt;stroke-linejoin:miter;stroke-miterlimit:10;stroke-dasharray:none;stroke-opacity:1"
         d="M 282.398,300.398 340,286 v 28.801 z" /><path
         id="path4600"
         style="fill:#000000;fill-opacity:1;fill-rule:evenodd;stroke:none"
         d="M 2162.04,300.398 2086,319.41 v -38.019" /><path
         id="path4602"
         style="fill:none;stroke:#000000;stroke-width:7.19999981;stroke-linecap:butt;stroke-linejoin:miter;stroke-miterlimit:10;stroke-dasharray:none;stroke-opacity:1"
         d="m 2147.2,300.398 -57.6,14.403 V 286 Z" /><g
         transform="scale(10)"
         id="g4604"><text
           id="text4610"
           style="font-variant:normal;font-weight:normal;font-size:10.07999992px;font-family:Helvetica;-inkscape-font-specification:Helvetica;writing-mode:lr-tb;fill:#000000;fill-opacity:1;fill-rule:nonzero;stroke:none"
           transform="matrix(1,0,0,-1,95.9199,13.6953)"><tspan
             id="tspan4606"
             y="0"
             x="0 5.6044798 11.20896 16.81344 19.615681 21.853439 27.45792 32.497921 38.102402 43.706879">140 inches</tspan><tspan
             id="tspan4608"
             y="10.0801"
             x="0 5.6044798 8.4067202 14.0112 16.81344">3.5 m</tspan></text>
</g><path
         id="path4612"
         style="fill:none;stroke:#000000;stroke-width:7.19999981;stroke-linecap:butt;stroke-linejoin:miter;stroke-miterlimit:10;stroke-dasharray:none;stroke-opacity:1"
         d="M 952,1187.73 V 994.531" /><path
         id="path4614"
         style="fill:#000000;fill-opacity:1;fill-rule:evenodd;stroke:none"
         d="m 952,1202.57 -19.012,-76.04 h 38.024" /><path
         id="path4616"
         style="fill:none;stroke:#000000;stroke-width:7.19999981;stroke-linecap:butt;stroke-linejoin:miter;stroke-miterlimit:10;stroke-dasharray:none;stroke-opacity:1"
         d="m 952,1187.73 -14.398,-57.6 h 28.796 z" /><path
         id="path4618"
         style="fill:#000000;fill-opacity:1;fill-rule:evenodd;stroke:none"
         d="m 952,979.688 19.012,76.042 h -38.024" /><path
         id="path4620"
         style="fill:none;stroke:#000000;stroke-width:7.19999981;stroke-linecap:butt;stroke-linejoin:miter;stroke-miterlimit:10;stroke-dasharray:none;stroke-opacity:1"
         d="m 952,994.531 14.398,57.599 h -28.796 z" /><g
         transform="scale(10)"
         id="g4622"><text
           id="text4626"
           style="font-variant:normal;font-weight:normal;font-size:10.07999992px;font-family:Helvetica;-inkscape-font-specification:Helvetica;writing-mode:lr-tb;fill:#000000;fill-opacity:1;fill-rule:nonzero;stroke:none"
           transform="matrix(1,0,0,-1,56.3199,121.695)"><tspan
             id="tspan4624"
             y="0"
             x="0 5.6044798 8.4067202 14.0112 19.615681 22.417919 30.81456">0.26 mm</tspan></text>
</g><path
         id="path4628"
         style="fill:none;stroke:#000000;stroke-width:7.19999981;stroke-linecap:butt;stroke-linejoin:miter;stroke-miterlimit:10;stroke-dasharray:none;stroke-opacity:1"
         d="M 2024.8,1330 V 934" /><path
         id="path4630"
         style="fill:#000000;fill-opacity:1;fill-rule:evenodd;stroke:none"
         d="m 2024.8,1344.84 -19.01,-76.04 h 38.02" /><path
         id="path4632"
         style="fill:none;stroke:#000000;stroke-width:7.19999981;stroke-linecap:butt;stroke-linejoin:miter;stroke-miterlimit:10;stroke-dasharray:none;stroke-opacity:1"
         d="m 2024.8,1330 -14.4,-57.6 h 28.8 z" /><path
         id="path4634"
         style="fill:#000000;fill-opacity:1;fill-rule:evenodd;stroke:none"
         d="m 2024.8,919.156 19.01,76.043 h -38.02" /><path
         id="path4636"
         style="fill:none;stroke:#000000;stroke-width:7.19999981;stroke-linecap:butt;stroke-linejoin:miter;stroke-miterlimit:10;stroke-dasharray:none;stroke-opacity:1"
         d="m 2024.8,934 14.4,57.602 h -28.8 z" /><g
         transform="scale(10)"
         id="g4638"><text
           id="text4644"
           style="font-variant:normal;font-weight:normal;font-size:10.07999992px;font-family:Helvetica;-inkscape-font-specification:Helvetica;writing-mode:lr-tb;fill:#000000;fill-opacity:1;fill-rule:nonzero;stroke:none"
           transform="matrix(1,0,0,-1,170.08,133.935)"><tspan
             id="tspan4640"
             y="0"
             x="0 5.6044798 8.4067202 14.0112 16.81344 25.210079">1.3 mm</tspan><tspan
             id="tspan4642"
             y="52.3797"
             x="-167.03999 -162 -159.76224 -154.15776 -146.88 -141.27551">viewer</tspan></text>
</g></g></g></svg>