<?xml version="1.0" encoding="UTF-8" standalone="no"?>
<svg
   xmlns:dc="http://purl.org/dc/elements/1.1/"
   xmlns:cc="http://creativecommons.org/ns#"
   xmlns:rdf="http://www.w3.org/1999/02/22-rdf-syntax-ns#"
   xmlns:svg="http://www.w3.org/2000/svg"
   xmlns="http://www.w3.org/2000/svg"
   viewBox="0 0 412 321.33334"
   height="321.33334"
   width="412"
   xml:space="preserve"
   id="svg4684"
   version="1.1"><metadata
     id="metadata4690"><rdf:RDF><cc:Work
         rdf:about=""><dc:format>image/svg+xml</dc:format><dc:type
           rdf:resource="http://purl.org/dc/dcmitype/StillImage" /><dc:title></dc:title></cc:Work></rdf:RDF></metadata><defs
     id="defs4688" /><g
     transform="matrix(1.3333333,0,0,-1.3333333,0,321.33333)"
     id="g4692"><g
       transform="scale(0.1)"
       id="g4694"><path
         id="path4696"
         style="fill:#ff1441;fill-opacity:1;fill-rule:evenodd;stroke:none"
         d="m 679.801,1598.8 c 0,22.86 -18.539,41.4 -41.403,41.4 -22.863,0 -41.398,-18.54 -41.398,-41.4 0,-22.86 18.535,-41.4 41.398,-41.4 22.864,0 41.403,18.54 41.403,41.4" /><path
         id="path4698"
         style="fill:none;stroke:#ff1441;stroke-width:7.19999981;stroke-linecap:butt;stroke-linejoin:miter;stroke-miterlimit:10;stroke-dasharray:none;stroke-opacity:1"
         d="m 679.801,1598.8 c 0,22.86 -18.539,41.4 -41.403,41.4 -22.863,0 -41.398,-18.54 -41.398,-41.4 0,-22.86 18.535,-41.4 41.398,-41.4 22.864,0 41.403,18.54 41.403,41.4" /><path
         id="path4700"
         style="fill:#ff1441;fill-opacity:1;fill-rule:evenodd;stroke:none"
         d="m 678,1512.4 c 0,22.86 -18.535,41.4 -41.398,41.4 -22.864,0 -41.403,-18.54 -41.403,-41.4 0,-22.86 18.539,-41.4 41.403,-41.4 22.863,0 41.398,18.54 41.398,41.4" /><path
         id="path4702"
         style="fill:none;stroke:#ff1441;stroke-width:7.19999981;stroke-linecap:butt;stroke-linejoin:miter;stroke-miterlimit:10;stroke-dasharray:none;stroke-opacity:1"
         d="m 678,1512.4 c 0,22.86 -18.535,41.4 -41.398,41.4 -22.864,0 -41.403,-18.54 -41.403,-41.4 0,-22.86 18.539,-41.4 41.403,-41.4 22.863,0 41.398,18.54 41.398,41.4" /><path
         id="path4704"
         style="fill:#ff1441;fill-opacity:1;fill-rule:evenodd;stroke:none"
         d="m 678,1424.2 c 0,22.86 -18.535,41.4 -41.398,41.4 -22.864,0 -41.403,-18.54 -41.403,-41.4 0,-22.86 18.539,-41.4 41.403,-41.4 22.863,0 41.398,18.54 41.398,41.4" /><path
         id="path4706"
         style="fill:none;stroke:#ff1441;stroke-width:7.19999981;stroke-linecap:butt;stroke-linejoin:miter;stroke-miterlimit:10;stroke-dasharray:none;stroke-opacity:1"
         d="m 678,1424.2 c 0,22.86 -18.535,41.4 -41.398,41.4 -22.864,0 -41.403,-18.54 -41.403,-41.4 0,-22.86 18.539,-41.4 41.403,-41.4 22.863,0 41.398,18.54 41.398,41.4" /><path
         id="path4708"
         style="fill:#ff1441;fill-opacity:1;fill-rule:evenodd;stroke:none"
         d="m 676.199,1339.6 c 0,22.86 -18.535,41.4 -41.398,41.4 -22.863,0 -41.403,-18.54 -41.403,-41.4 0,-22.86 18.54,-41.4 41.403,-41.4 22.863,0 41.398,18.54 41.398,41.4" /><path
         id="path4710"
         style="fill:none;stroke:#ff1441;stroke-width:7.19999981;stroke-linecap:butt;stroke-linejoin:miter;stroke-miterlimit:10;stroke-dasharray:none;stroke-opacity:1"
         d="m 676.199,1339.6 c 0,22.86 -18.535,41.4 -41.398,41.4 -22.863,0 -41.403,-18.54 -41.403,-41.4 0,-22.86 18.54,-41.4 41.403,-41.4 22.863,0 41.398,18.54 41.398,41.4" /><path
         id="path4712"
         style="fill:#ff1441;fill-opacity:1;fill-rule:evenodd;stroke:none"
         d="m 593.398,1341.4 c 0,22.86 -18.535,41.4 -41.398,41.4 -22.863,0 -41.398,-18.54 -41.398,-41.4 0,-22.86 18.535,-41.4 41.398,-41.4 22.863,0 41.398,18.54 41.398,41.4" /><path
         id="path4714"
         style="fill:none;stroke:#ff1441;stroke-width:7.19999981;stroke-linecap:butt;stroke-linejoin:miter;stroke-miterlimit:10;stroke-dasharray:none;stroke-opacity:1"
         d="m 593.398,1341.4 c 0,22.86 -18.535,41.4 -41.398,41.4 -22.863,0 -41.398,-18.54 -41.398,-41.4 0,-22.86 18.535,-41.4 41.398,-41.4 22.863,0 41.398,18.54 41.398,41.4" /><path
         id="path4716"
         style="fill:#ff1441;fill-opacity:1;fill-rule:evenodd;stroke:none"
         d="m 595.199,1426 c 0,22.86 -18.535,41.4 -41.398,41.4 -22.863,0 -41.403,-18.54 -41.403,-41.4 0,-22.86 18.54,-41.4 41.403,-41.4 22.863,0 41.398,18.54 41.398,41.4" /><path
         id="path4718"
         style="fill:none;stroke:#ff1441;stroke-width:7.19999981;stroke-linecap:butt;stroke-linejoin:miter;stroke-miterlimit:10;stroke-dasharray:none;stroke-opacity:1"
         d="m 595.199,1426 c 0,22.86 -18.535,41.4 -41.398,41.4 -22.863,0 -41.403,-18.54 -41.403,-41.4 0,-22.86 18.54,-41.4 41.403,-41.4 22.863,0 41.398,18.54 41.398,41.4" /><path
         id="path4720"
         style="fill:#ff1441;fill-opacity:1;fill-rule:evenodd;stroke:none"
         d="m 595.199,1514.2 c 0,22.86 -18.535,41.4 -41.398,41.4 -22.863,0 -41.403,-18.54 -41.403,-41.4 0,-22.86 18.54,-41.4 41.403,-41.4 22.863,0 41.398,18.54 41.398,41.4" /><path
         id="path4722"
         style="fill:none;stroke:#ff1441;stroke-width:7.19999981;stroke-linecap:butt;stroke-linejoin:miter;stroke-miterlimit:10;stroke-dasharray:none;stroke-opacity:1"
         d="m 595.199,1514.2 c 0,22.86 -18.535,41.4 -41.398,41.4 -22.863,0 -41.403,-18.54 -41.403,-41.4 0,-22.86 18.54,-41.4 41.403,-41.4 22.863,0 41.398,18.54 41.398,41.4" /><path
         id="path4724"
         style="fill:#ff1441;fill-opacity:1;fill-rule:evenodd;stroke:none"
         d="m 597,1600.6 c 0,22.86 -18.535,41.4 -41.398,41.4 -22.864,0 -41.403,-18.54 -41.403,-41.4 0,-22.86 18.539,-41.4 41.403,-41.4 22.863,0 41.398,18.54 41.398,41.4" /><path
         id="path4726"
         style="fill:none;stroke:#ff1441;stroke-width:7.19999981;stroke-linecap:butt;stroke-linejoin:miter;stroke-miterlimit:10;stroke-dasharray:none;stroke-opacity:1"
         d="m 597,1600.6 c 0,22.86 -18.535,41.4 -41.398,41.4 -22.864,0 -41.403,-18.54 -41.403,-41.4 0,-22.86 18.539,-41.4 41.403,-41.4 22.863,0 41.398,18.54 41.398,41.4" /><path
         id="path4728"
         style="fill:#ff1441;fill-opacity:1;fill-rule:evenodd;stroke:none"
         d="m 510.602,1597 c 0,22.86 -18.539,41.4 -41.403,41.4 -22.863,0 -41.398,-18.54 -41.398,-41.4 0,-22.86 18.535,-41.4 41.398,-41.4 22.864,0 41.403,18.54 41.403,41.4" /><path
         id="path4730"
         style="fill:none;stroke:#ff1441;stroke-width:7.19999981;stroke-linecap:butt;stroke-linejoin:miter;stroke-miterlimit:10;stroke-dasharray:none;stroke-opacity:1"
         d="m 510.602,1597 c 0,22.86 -18.539,41.4 -41.403,41.4 -22.863,0 -41.398,-18.54 -41.398,-41.4 0,-22.86 18.535,-41.4 41.398,-41.4 22.864,0 41.403,18.54 41.403,41.4" /><path
         id="path4732"
         style="fill:#ff1441;fill-opacity:1;fill-rule:evenodd;stroke:none"
         d="m 508.801,1510.6 c 0,22.86 -18.539,41.4 -41.403,41.4 -22.863,0 -41.398,-18.54 -41.398,-41.4 0,-22.86 18.535,-41.4 41.398,-41.4 22.864,0 41.403,18.54 41.403,41.4" /><path
         id="path4734"
         style="fill:none;stroke:#ff1441;stroke-width:7.19999981;stroke-linecap:butt;stroke-linejoin:miter;stroke-miterlimit:10;stroke-dasharray:none;stroke-opacity:1"
         d="m 508.801,1510.6 c 0,22.86 -18.539,41.4 -41.403,41.4 -22.863,0 -41.398,-18.54 -41.398,-41.4 0,-22.86 18.535,-41.4 41.398,-41.4 22.864,0 41.403,18.54 41.403,41.4" /><path
         id="path4736"
         style="fill:#ff1441;fill-opacity:1;fill-rule:evenodd;stroke:none"
         d="m 508.801,1422.4 c 0,22.86 -18.539,41.4 -41.403,41.4 -22.863,0 -41.398,-18.54 -41.398,-41.4 0,-22.86 18.535,-41.4 41.398,-41.4 22.864,0 41.403,18.54 41.403,41.4" /><path
         id="path4738"
         style="fill:none;stroke:#ff1441;stroke-width:7.19999981;stroke-linecap:butt;stroke-linejoin:miter;stroke-miterlimit:10;stroke-dasharray:none;stroke-opacity:1"
         d="m 508.801,1422.4 c 0,22.86 -18.539,41.4 -41.403,41.4 -22.863,0 -41.398,-18.54 -41.398,-41.4 0,-22.86 18.535,-41.4 41.398,-41.4 22.864,0 41.403,18.54 41.403,41.4" /><path
         id="path4740"
         style="fill:#ff1441;fill-opacity:1;fill-rule:evenodd;stroke:none"
         d="m 507,1337.8 c 0,22.86 -18.535,41.4 -41.398,41.4 -22.864,0 -41.403,-18.54 -41.403,-41.4 0,-22.86 18.539,-41.4 41.403,-41.4 22.863,0 41.398,18.54 41.398,41.4" /><path
         id="path4742"
         style="fill:none;stroke:#ff1441;stroke-width:7.19999981;stroke-linecap:butt;stroke-linejoin:miter;stroke-miterlimit:10;stroke-dasharray:none;stroke-opacity:1"
         d="m 507,1337.8 c 0,22.86 -18.535,41.4 -41.398,41.4 -22.864,0 -41.403,-18.54 -41.403,-41.4 0,-22.86 18.539,-41.4 41.403,-41.4 22.863,0 41.398,18.54 41.398,41.4" /><path
         id="path4744"
         style="fill:#ff1441;fill-opacity:1;fill-rule:evenodd;stroke:none"
         d="m 427.801,1598.8 c 0,22.86 -18.539,41.4 -41.403,41.4 -22.863,0 -41.398,-18.54 -41.398,-41.4 0,-22.86 18.535,-41.4 41.398,-41.4 22.864,0 41.403,18.54 41.403,41.4" /><path
         id="path4746"
         style="fill:none;stroke:#ff1441;stroke-width:7.19999981;stroke-linecap:butt;stroke-linejoin:miter;stroke-miterlimit:10;stroke-dasharray:none;stroke-opacity:1"
         d="m 427.801,1598.8 c 0,22.86 -18.539,41.4 -41.403,41.4 -22.863,0 -41.398,-18.54 -41.398,-41.4 0,-22.86 18.535,-41.4 41.398,-41.4 22.864,0 41.403,18.54 41.403,41.4" /><path
         id="path4748"
         style="fill:#ff1441;fill-opacity:1;fill-rule:evenodd;stroke:none"
         d="m 426,1512.4 c 0,22.86 -18.535,41.4 -41.398,41.4 -22.864,0 -41.403,-18.54 -41.403,-41.4 0,-22.86 18.539,-41.4 41.403,-41.4 22.863,0 41.398,18.54 41.398,41.4" /><path
         id="path4750"
         style="fill:none;stroke:#ff1441;stroke-width:7.19999981;stroke-linecap:butt;stroke-linejoin:miter;stroke-miterlimit:10;stroke-dasharray:none;stroke-opacity:1"
         d="m 426,1512.4 c 0,22.86 -18.535,41.4 -41.398,41.4 -22.864,0 -41.403,-18.54 -41.403,-41.4 0,-22.86 18.539,-41.4 41.403,-41.4 22.863,0 41.398,18.54 41.398,41.4" /><path
         id="path4752"
         style="fill:#ff1441;fill-opacity:1;fill-rule:evenodd;stroke:none"
         d="m 426,1424.2 c 0,22.86 -18.535,41.4 -41.398,41.4 -22.864,0 -41.403,-18.54 -41.403,-41.4 0,-22.86 18.539,-41.4 41.403,-41.4 22.863,0 41.398,18.54 41.398,41.4" /><path
         id="path4754"
         style="fill:none;stroke:#ff1441;stroke-width:7.19999981;stroke-linecap:butt;stroke-linejoin:miter;stroke-miterlimit:10;stroke-dasharray:none;stroke-opacity:1"
         d="m 426,1424.2 c 0,22.86 -18.535,41.4 -41.398,41.4 -22.864,0 -41.403,-18.54 -41.403,-41.4 0,-22.86 18.539,-41.4 41.403,-41.4 22.863,0 41.398,18.54 41.398,41.4" /><path
         id="path4756"
         style="fill:#ff1441;fill-opacity:1;fill-rule:evenodd;stroke:none"
         d="m 424.199,1339.6 c 0,22.86 -18.535,41.4 -41.398,41.4 -22.863,0 -41.403,-18.54 -41.403,-41.4 0,-22.86 18.54,-41.4 41.403,-41.4 22.863,0 41.398,18.54 41.398,41.4" /><path
         id="path4758"
         style="fill:none;stroke:#ff1441;stroke-width:7.19999981;stroke-linecap:butt;stroke-linejoin:miter;stroke-miterlimit:10;stroke-dasharray:none;stroke-opacity:1"
         d="m 424.199,1339.6 c 0,22.86 -18.535,41.4 -41.398,41.4 -22.863,0 -41.403,-18.54 -41.403,-41.4 0,-22.86 18.54,-41.4 41.403,-41.4 22.863,0 41.398,18.54 41.398,41.4" /><g
         transform="scale(10)"
         id="g4760"><text
           id="text4766"
           style="font-variant:normal;font-weight:normal;font-size:10.07999992px;font-family:Helvetica;-inkscape-font-specification:Helvetica;writing-mode:lr-tb;fill:#000000;fill-opacity:1;fill-rule:nonzero;stroke:none"
           transform="matrix(1,0,0,-1,22.4398,227.055)"><tspan
             id="tspan4762"
             y="0"
             x="0 2.2377601 7.8422399 12.88224 18.486719 21.843361 27.44784 30.80448 33.04224 38.646721">laserprint</tspan><tspan
             id="tspan4764"
             y="25.200001"
             x="156.24001 164.63664 170.24112 175.8456 178.08336 180.8856 186.49008 189.84673 192.64896 197.68896 202.72896 206.0856 211.69008 217.29456">monitor screen</tspan></text>
</g><path
         id="path4768"
         style="fill:none;stroke:#000000;stroke-width:7.19999981;stroke-linecap:butt;stroke-linejoin:miter;stroke-miterlimit:10;stroke-dasharray:none;stroke-opacity:1"
         d="m 1866,1217.2 h 338.398 v 345.602 H 1866 Z" /><path
         id="path4770"
         style="fill:none;stroke:#000000;stroke-width:7.19999981;stroke-linecap:butt;stroke-linejoin:miter;stroke-miterlimit:10;stroke-dasharray:none;stroke-opacity:1"
         d="M 339.602,1296.4 H 678 v 345.602 H 339.602 Z" /><path
         id="path4772"
         style="fill:none;stroke:#000000;stroke-width:7.19999981;stroke-linecap:butt;stroke-linejoin:miter;stroke-miterlimit:10;stroke-dasharray:none;stroke-opacity:1"
         d="M 332.398,1786 H 678" /><path
         id="path4774"
         style="fill:#000000;fill-opacity:1;fill-rule:evenodd;stroke:none"
         d="m 317.559,1786 76.043,-19.01 v 38.02" /><path
         id="path4776"
         style="fill:none;stroke:#000000;stroke-width:7.19999981;stroke-linecap:butt;stroke-linejoin:miter;stroke-miterlimit:10;stroke-dasharray:none;stroke-opacity:1"
         d="M 332.398,1786 390,1771.6 v 28.8 z" /><path
         id="path4778"
         style="fill:#000000;fill-opacity:1;fill-rule:evenodd;stroke:none"
         d="m 692.844,1786 -76.043,19.01 v -38.02" /><path
         id="path4780"
         style="fill:none;stroke:#000000;stroke-width:7.19999981;stroke-linecap:butt;stroke-linejoin:miter;stroke-miterlimit:10;stroke-dasharray:none;stroke-opacity:1"
         d="m 678,1786 -57.602,14.4 v -28.8 z" /><g
         transform="scale(10)"
         id="g4782"><text
           id="text4786"
           style="font-variant:normal;font-weight:normal;font-size:10.07999992px;font-family:Helvetica;-inkscape-font-specification:Helvetica;writing-mode:lr-tb;fill:#000000;fill-opacity:1;fill-rule:nonzero;stroke:none"
           transform="matrix(1,0,0,-1,41.8801,182.415)"><tspan
             id="tspan4784"
             y="0"
             x="0 5.6044798 11.20896">1px</tspan></text>
</g><path
         id="path4788"
         style="fill:none;stroke:#000000;stroke-width:7.19999981;stroke-linecap:butt;stroke-linejoin:miter;stroke-miterlimit:10;stroke-dasharray:none;stroke-opacity:1"
         d="m 1858.8,1678 h 345.6" /><path
         id="path4790"
         style="fill:#000000;fill-opacity:1;fill-rule:evenodd;stroke:none"
         d="m 1843.96,1678 76.04,-19.01 v 38.02" /><path
         id="path4792"
         style="fill:none;stroke:#000000;stroke-width:7.19999981;stroke-linecap:butt;stroke-linejoin:miter;stroke-miterlimit:10;stroke-dasharray:none;stroke-opacity:1"
         d="m 1858.8,1678 57.6,-14.4 v 28.8 z" /><path
         id="path4794"
         style="fill:#000000;fill-opacity:1;fill-rule:evenodd;stroke:none"
         d="m 2219.24,1678 -76.04,19.01 v -38.02" /><path
         id="path4796"
         style="fill:none;stroke:#000000;stroke-width:7.19999981;stroke-linecap:butt;stroke-linejoin:miter;stroke-miterlimit:10;stroke-dasharray:none;stroke-opacity:1"
         d="m 2204.4,1678 -57.6,14.4 v -28.8 z" /><g
         transform="scale(10)"
         id="g4798"><text
           id="text4802"
           style="font-variant:normal;font-weight:normal;font-size:10.07999992px;font-family:Helvetica;-inkscape-font-specification:Helvetica;writing-mode:lr-tb;fill:#000000;fill-opacity:1;fill-rule:nonzero;stroke:none"
           transform="matrix(1,0,0,-1,194.52,172.335)"><tspan
             id="tspan4800"
             y="0"
             x="0 5.6044798 11.20896">1px</tspan></text>
</g><path
         id="path4804"
         style="fill:#ff1441;fill-opacity:1;fill-rule:evenodd;stroke:none"
         d="m 2197.2,1390.6 c 0,99.08 -74.14,179.4 -165.6,179.4 -91.46,0 -165.6,-80.32 -165.6,-179.4 0,-99.08 74.14,-179.41 165.6,-179.41 91.46,0 165.6,80.33 165.6,179.41" /><path
         id="path4806"
         style="fill:none;stroke:#ff1441;stroke-width:7.19999981;stroke-linecap:butt;stroke-linejoin:miter;stroke-miterlimit:10;stroke-dasharray:none;stroke-opacity:1"
         d="m 2197.2,1390.6 c 0,99.08 -74.14,179.4 -165.6,179.4 -91.46,0 -165.6,-80.32 -165.6,-179.4 0,-99.08 74.14,-179.41 165.6,-179.41 91.46,0 165.6,80.33 165.6,179.41" /><path
         id="path4808"
         style="fill:#ff1441;fill-opacity:1;fill-rule:evenodd;stroke:none"
         d="m 202.801,122.801 c 0,47.715 -38.688,86.398 -86.403,86.398 C 68.6836,209.199 30,170.516 30,122.801 30,75.0859 68.6836,36.3984 116.398,36.3984 c 47.715,0 86.403,38.6875 86.403,86.4026" /><path
         id="path4810"
         style="fill:none;stroke:#ff1441;stroke-width:7.19999981;stroke-linecap:butt;stroke-linejoin:miter;stroke-miterlimit:10;stroke-dasharray:none;stroke-opacity:1"
         d="m 202.801,122.801 c 0,47.715 -38.688,86.398 -86.403,86.398 C 68.6836,209.199 30,170.516 30,122.801 30,75.0859 68.6836,36.3984 116.398,36.3984 c 47.715,0 86.403,38.6875 86.403,86.4026" /><g
         transform="scale(10)"
         id="g4812"><text
           id="text4816"
           style="font-variant:normal;font-weight:normal;font-size:10.07999992px;font-family:Helvetica;-inkscape-font-specification:Helvetica;writing-mode:lr-tb;fill:#000000;fill-opacity:1;fill-rule:nonzero;stroke:none"
           transform="matrix(1,0,0,-1,31.0801,3.85547)"><tspan
             id="tspan4814"
             y="0"
             x="0 5.8867202 8.6889601 14.29344 17.09568 22.700159 28.30464 33.344639 35.582401 40.622398 46.226879 49.029121 54.633598 56.871361 61.911362 67.515839">= 1 device pixel</tspan></text>
</g><path
         id="path4818"
         style="fill:#ff1441;fill-opacity:1;fill-rule:evenodd;stroke:none"
         d="m 676.199,1339.6 c 0,22.86 -18.535,41.4 -41.398,41.4 -22.863,0 -41.403,-18.54 -41.403,-41.4 0,-22.86 18.54,-41.4 41.403,-41.4 22.863,0 41.398,18.54 41.398,41.4" /><path
         id="path4820"
         style="fill:none;stroke:#ff1441;stroke-width:7.19999981;stroke-linecap:butt;stroke-linejoin:miter;stroke-miterlimit:10;stroke-dasharray:none;stroke-opacity:1"
         d="m 676.199,1339.6 c 0,22.86 -18.535,41.4 -41.398,41.4 -22.863,0 -41.403,-18.54 -41.403,-41.4 0,-22.86 18.54,-41.4 41.403,-41.4 22.863,0 41.398,18.54 41.398,41.4" /><path
         id="path4822"
         style="fill:none;stroke:#000000;stroke-width:7.19999981;stroke-linecap:butt;stroke-linejoin:miter;stroke-miterlimit:10;stroke-dasharray:none;stroke-opacity:1"
         d="M 825.602,1638.4 V 1300" /><path
         id="path4824"
         style="fill:#000000;fill-opacity:1;fill-rule:evenodd;stroke:none"
         d="M 825.602,1653.24 806.59,1577.2 h 38.019" /><path
         id="path4826"
         style="fill:none;stroke:#000000;stroke-width:7.19999981;stroke-linecap:butt;stroke-linejoin:miter;stroke-miterlimit:10;stroke-dasharray:none;stroke-opacity:1"
         d="m 825.602,1638.4 -14.403,-57.6 H 840 Z" /><path
         id="path4828"
         style="fill:#000000;fill-opacity:1;fill-rule:evenodd;stroke:none"
         d="m 825.602,1285.16 19.007,76.04 H 806.59" /><path
         id="path4830"
         style="fill:none;stroke:#000000;stroke-width:7.19999981;stroke-linecap:butt;stroke-linejoin:miter;stroke-miterlimit:10;stroke-dasharray:none;stroke-opacity:1"
         d="M 825.602,1300 840,1357.6 h -28.801 z" /><path
         id="path4832"
         style="fill:none;stroke:#000000;stroke-width:7.19999981;stroke-linecap:butt;stroke-linejoin:miter;stroke-miterlimit:10;stroke-dasharray:none;stroke-opacity:1"
         d="M 2344.8,1573.6 V 1235.2" /><path
         id="path4834"
         style="fill:#000000;fill-opacity:1;fill-rule:evenodd;stroke:none"
         d="m 2344.8,1588.44 -19.01,-76.04 h 38.02" /><path
         id="path4836"
         style="fill:none;stroke:#000000;stroke-width:7.19999981;stroke-linecap:butt;stroke-linejoin:miter;stroke-miterlimit:10;stroke-dasharray:none;stroke-opacity:1"
         d="m 2344.8,1573.6 -14.4,-57.6 h 28.8 z" /><path
         id="path4838"
         style="fill:#000000;fill-opacity:1;fill-rule:evenodd;stroke:none"
         d="m 2344.8,1220.36 19.01,76.04 h -38.02" /><path
         id="path4840"
         style="fill:none;stroke:#000000;stroke-width:7.19999981;stroke-linecap:butt;stroke-linejoin:miter;stroke-miterlimit:10;stroke-dasharray:none;stroke-opacity:1"
         d="m 2344.8,1235.2 14.4,57.6 h -28.8 z" /><path
         id="path4842"
         style="fill:none;stroke:#000000;stroke-width:7.19999981;stroke-linecap:butt;stroke-linejoin:miter;stroke-miterlimit:10;stroke-dasharray:none;stroke-opacity:1"
         d="m 1866,871.602 h 338.398 V 1217.2 H 1866 Z" /><path
         id="path4844"
         style="fill:#39fb31;fill-opacity:1;fill-rule:evenodd;stroke:none"
         d="m 2197.2,1045 c 0,99.08 -74.14,179.4 -165.6,179.4 -91.46,0 -165.6,-80.32 -165.6,-179.4 0,-99.082 74.14,-179.406 165.6,-179.406 91.46,0 165.6,80.324 165.6,179.406" /><path
         id="path4846"
         style="fill:none;stroke:#39fb31;stroke-width:7.19999981;stroke-linecap:butt;stroke-linejoin:miter;stroke-miterlimit:10;stroke-dasharray:none;stroke-opacity:1"
         d="m 2197.2,1045 c 0,99.08 -74.14,179.4 -165.6,179.4 -91.46,0 -165.6,-80.32 -165.6,-179.4 0,-99.082 74.14,-179.406 165.6,-179.406 91.46,0 165.6,80.324 165.6,179.406" /><path
         id="path4848"
         style="fill:none;stroke:#000000;stroke-width:7.19999981;stroke-linecap:butt;stroke-linejoin:miter;stroke-miterlimit:10;stroke-dasharray:none;stroke-opacity:1"
         d="m 2204.4,871.602 h 338.402 V 1217.2 H 2204.4 Z" /><path
         id="path4850"
         style="fill:#5151ff;fill-opacity:1;fill-rule:evenodd;stroke:none"
         d="m 2535.6,1045 c 0,99.08 -74.14,179.4 -165.6,179.4 -91.46,0 -165.6,-80.32 -165.6,-179.4 0,-99.082 74.14,-179.406 165.6,-179.406 91.46,0 165.6,80.324 165.6,179.406" /><path
         id="path4852"
         style="fill:none;stroke:#5151ff;stroke-width:7.19999981;stroke-linecap:butt;stroke-linejoin:miter;stroke-miterlimit:10;stroke-dasharray:none;stroke-opacity:1"
         d="m 2535.6,1045 c 0,99.08 -74.14,179.4 -165.6,179.4 -91.46,0 -165.6,-80.32 -165.6,-179.4 0,-99.082 74.14,-179.406 165.6,-179.406 91.46,0 165.6,80.324 165.6,179.406" /><path
         id="path4854"
         style="fill:#5151ff;fill-opacity:1;fill-rule:evenodd;stroke:none"
         d="m 1018.2,1253.2 c 0,22.86 -18.536,41.4 -41.399,41.4 -22.863,0 -41.403,-18.54 -41.403,-41.4 0,-22.86 18.54,-41.4 41.403,-41.4 22.863,0 41.399,18.54 41.399,41.4" /><path
         id="path4856"
         style="fill:none;stroke:#5151ff;stroke-width:7.19999981;stroke-linecap:butt;stroke-linejoin:miter;stroke-miterlimit:10;stroke-dasharray:none;stroke-opacity:1"
         d="m 1018.2,1253.2 c 0,22.86 -18.536,41.4 -41.399,41.4 -22.863,0 -41.403,-18.54 -41.403,-41.4 0,-22.86 18.54,-41.4 41.403,-41.4 22.863,0 41.399,18.54 41.399,41.4" /><path
         id="path4858"
         style="fill:#5151ff;fill-opacity:1;fill-rule:evenodd;stroke:none"
         d="m 1016.4,1166.8 c 0,22.86 -18.537,41.4 -41.4,41.4 -22.863,0 -41.398,-18.54 -41.398,-41.4 0,-22.86 18.535,-41.4 41.398,-41.4 22.863,0 41.4,18.54 41.4,41.4" /><path
         id="path4860"
         style="fill:none;stroke:#5151ff;stroke-width:7.19999981;stroke-linecap:butt;stroke-linejoin:miter;stroke-miterlimit:10;stroke-dasharray:none;stroke-opacity:1"
         d="m 1016.4,1166.8 c 0,22.86 -18.537,41.4 -41.4,41.4 -22.863,0 -41.398,-18.54 -41.398,-41.4 0,-22.86 18.535,-41.4 41.398,-41.4 22.863,0 41.4,18.54 41.4,41.4" /><path
         id="path4862"
         style="fill:#5151ff;fill-opacity:1;fill-rule:evenodd;stroke:none"
         d="m 1016.4,1078.6 c 0,22.86 -18.537,41.4 -41.4,41.4 -22.863,0 -41.398,-18.54 -41.398,-41.4 0,-22.86 18.535,-41.4 41.398,-41.4 22.863,0 41.4,18.54 41.4,41.4" /><path
         id="path4864"
         style="fill:none;stroke:#5151ff;stroke-width:7.19999981;stroke-linecap:butt;stroke-linejoin:miter;stroke-miterlimit:10;stroke-dasharray:none;stroke-opacity:1"
         d="m 1016.4,1078.6 c 0,22.86 -18.537,41.4 -41.4,41.4 -22.863,0 -41.398,-18.54 -41.398,-41.4 0,-22.86 18.535,-41.4 41.398,-41.4 22.863,0 41.4,18.54 41.4,41.4" /><path
         id="path4866"
         style="fill:#ff1441;fill-opacity:1;fill-rule:evenodd;stroke:none"
         d="m 676.199,1339.6 c 0,22.86 -18.535,41.4 -41.398,41.4 -22.863,0 -41.403,-18.54 -41.403,-41.4 0,-22.86 18.54,-41.4 41.403,-41.4 22.863,0 41.398,18.54 41.398,41.4" /><path
         id="path4868"
         style="fill:none;stroke:#ff1441;stroke-width:7.19999981;stroke-linecap:butt;stroke-linejoin:miter;stroke-miterlimit:10;stroke-dasharray:none;stroke-opacity:1"
         d="m 676.199,1339.6 c 0,22.86 -18.535,41.4 -41.398,41.4 -22.863,0 -41.403,-18.54 -41.403,-41.4 0,-22.86 18.54,-41.4 41.403,-41.4 22.863,0 41.398,18.54 41.398,41.4" /><path
         id="path4870"
         style="fill:#5151ff;fill-opacity:1;fill-rule:evenodd;stroke:none"
         d="m 931.801,995.801 c 0,22.859 -18.539,41.399 -41.403,41.399 -22.863,0 -41.398,-18.54 -41.398,-41.399 0,-22.863 18.535,-41.403 41.398,-41.403 22.864,0 41.403,18.54 41.403,41.403" /><path
         id="path4872"
         style="fill:none;stroke:#5151ff;stroke-width:7.19999981;stroke-linecap:butt;stroke-linejoin:miter;stroke-miterlimit:10;stroke-dasharray:none;stroke-opacity:1"
         d="m 931.801,995.801 c 0,22.859 -18.539,41.399 -41.403,41.399 -22.863,0 -41.398,-18.54 -41.398,-41.399 0,-22.863 18.535,-41.403 41.398,-41.403 22.864,0 41.403,18.54 41.403,41.403" /><path
         id="path4874"
         style="fill:#5151ff;fill-opacity:1;fill-rule:evenodd;stroke:none"
         d="m 933.602,1080.4 c 0,22.86 -18.539,41.4 -41.403,41.4 -22.863,0 -41.398,-18.54 -41.398,-41.4 0,-22.86 18.535,-41.4 41.398,-41.4 22.864,0 41.403,18.54 41.403,41.4" /><path
         id="path4876"
         style="fill:none;stroke:#5151ff;stroke-width:7.19999981;stroke-linecap:butt;stroke-linejoin:miter;stroke-miterlimit:10;stroke-dasharray:none;stroke-opacity:1"
         d="m 933.602,1080.4 c 0,22.86 -18.539,41.4 -41.403,41.4 -22.863,0 -41.398,-18.54 -41.398,-41.4 0,-22.86 18.535,-41.4 41.398,-41.4 22.864,0 41.403,18.54 41.403,41.4" /><path
         id="path4878"
         style="fill:#5151ff;fill-opacity:1;fill-rule:evenodd;stroke:none"
         d="m 933.602,1168.6 c 0,22.86 -18.539,41.4 -41.403,41.4 -22.863,0 -41.398,-18.54 -41.398,-41.4 0,-22.86 18.535,-41.4 41.398,-41.4 22.864,0 41.403,18.54 41.403,41.4" /><path
         id="path4880"
         style="fill:none;stroke:#5151ff;stroke-width:7.19999981;stroke-linecap:butt;stroke-linejoin:miter;stroke-miterlimit:10;stroke-dasharray:none;stroke-opacity:1"
         d="m 933.602,1168.6 c 0,22.86 -18.539,41.4 -41.403,41.4 -22.863,0 -41.398,-18.54 -41.398,-41.4 0,-22.86 18.535,-41.4 41.398,-41.4 22.864,0 41.403,18.54 41.403,41.4" /><path
         id="path4882"
         style="fill:#5151ff;fill-opacity:1;fill-rule:evenodd;stroke:none"
         d="m 935.398,1255 c 0,22.86 -18.535,41.4 -41.398,41.4 -22.863,0 -41.398,-18.54 -41.398,-41.4 0,-22.86 18.535,-41.4 41.398,-41.4 22.863,0 41.398,18.54 41.398,41.4" /><path
         id="path4884"
         style="fill:none;stroke:#5151ff;stroke-width:7.19999981;stroke-linecap:butt;stroke-linejoin:miter;stroke-miterlimit:10;stroke-dasharray:none;stroke-opacity:1"
         d="m 935.398,1255 c 0,22.86 -18.535,41.4 -41.398,41.4 -22.863,0 -41.398,-18.54 -41.398,-41.4 0,-22.86 18.535,-41.4 41.398,-41.4 22.863,0 41.398,18.54 41.398,41.4" /><path
         id="path4886"
         style="fill:#5151ff;fill-opacity:1;fill-rule:evenodd;stroke:none"
         d="m 849,1251.4 c 0,22.86 -18.535,41.4 -41.398,41.4 -22.864,0 -41.403,-18.54 -41.403,-41.4 0,-22.86 18.539,-41.4 41.403,-41.4 22.863,0 41.398,18.54 41.398,41.4" /><path
         id="path4888"
         style="fill:none;stroke:#5151ff;stroke-width:7.19999981;stroke-linecap:butt;stroke-linejoin:miter;stroke-miterlimit:10;stroke-dasharray:none;stroke-opacity:1"
         d="m 849,1251.4 c 0,22.86 -18.535,41.4 -41.398,41.4 -22.864,0 -41.403,-18.54 -41.403,-41.4 0,-22.86 18.539,-41.4 41.403,-41.4 22.863,0 41.398,18.54 41.398,41.4" /><path
         id="path4890"
         style="fill:#5151ff;fill-opacity:1;fill-rule:evenodd;stroke:none"
         d="m 847.199,1165 c 0,22.86 -18.535,41.4 -41.398,41.4 -22.863,0 -41.403,-18.54 -41.403,-41.4 0,-22.86 18.54,-41.4 41.403,-41.4 22.863,0 41.398,18.54 41.398,41.4" /><path
         id="path4892"
         style="fill:none;stroke:#5151ff;stroke-width:7.19999981;stroke-linecap:butt;stroke-linejoin:miter;stroke-miterlimit:10;stroke-dasharray:none;stroke-opacity:1"
         d="m 847.199,1165 c 0,22.86 -18.535,41.4 -41.398,41.4 -22.863,0 -41.403,-18.54 -41.403,-41.4 0,-22.86 18.54,-41.4 41.403,-41.4 22.863,0 41.398,18.54 41.398,41.4" /><path
         id="path4894"
         style="fill:#5151ff;fill-opacity:1;fill-rule:evenodd;stroke:none"
         d="m 847.199,1076.8 c 0,22.86 -18.535,41.4 -41.398,41.4 -22.863,0 -41.403,-18.54 -41.403,-41.4 0,-22.86 18.54,-41.4 41.403,-41.4 22.863,0 41.398,18.54 41.398,41.4" /><path
         id="path4896"
         style="fill:none;stroke:#5151ff;stroke-width:7.19999981;stroke-linecap:butt;stroke-linejoin:miter;stroke-miterlimit:10;stroke-dasharray:none;stroke-opacity:1"
         d="m 847.199,1076.8 c 0,22.86 -18.535,41.4 -41.398,41.4 -22.863,0 -41.403,-18.54 -41.403,-41.4 0,-22.86 18.54,-41.4 41.403,-41.4 22.863,0 41.398,18.54 41.398,41.4" /><path
         id="path4898"
         style="fill:#5151ff;fill-opacity:1;fill-rule:evenodd;stroke:none"
         d="m 845.398,992.199 c 0,22.861 -18.535,41.401 -41.398,41.401 -22.863,0 -41.398,-18.54 -41.398,-41.401 0,-22.863 18.535,-41.398 41.398,-41.398 22.863,0 41.398,18.535 41.398,41.398" /><path
         id="path4900"
         style="fill:none;stroke:#5151ff;stroke-width:7.19999981;stroke-linecap:butt;stroke-linejoin:miter;stroke-miterlimit:10;stroke-dasharray:none;stroke-opacity:1"
         d="m 845.398,992.199 c 0,22.861 -18.535,41.401 -41.398,41.401 -22.863,0 -41.398,-18.54 -41.398,-41.401 0,-22.863 18.535,-41.398 41.398,-41.398 22.863,0 41.398,18.535 41.398,41.398" /><path
         id="path4902"
         style="fill:#5151ff;fill-opacity:1;fill-rule:evenodd;stroke:none"
         d="m 766.199,1253.2 c 0,22.86 -18.535,41.4 -41.398,41.4 -22.863,0 -41.403,-18.54 -41.403,-41.4 0,-22.86 18.54,-41.4 41.403,-41.4 22.863,0 41.398,18.54 41.398,41.4" /><path
         id="path4904"
         style="fill:none;stroke:#5151ff;stroke-width:7.19999981;stroke-linecap:butt;stroke-linejoin:miter;stroke-miterlimit:10;stroke-dasharray:none;stroke-opacity:1"
         d="m 766.199,1253.2 c 0,22.86 -18.535,41.4 -41.398,41.4 -22.863,0 -41.403,-18.54 -41.403,-41.4 0,-22.86 18.54,-41.4 41.403,-41.4 22.863,0 41.398,18.54 41.398,41.4" /><path
         id="path4906"
         style="fill:#5151ff;fill-opacity:1;fill-rule:evenodd;stroke:none"
         d="m 764.398,1166.8 c 0,22.86 -18.535,41.4 -41.398,41.4 -22.863,0 -41.398,-18.54 -41.398,-41.4 0,-22.86 18.535,-41.4 41.398,-41.4 22.863,0 41.398,18.54 41.398,41.4" /><path
         id="path4908"
         style="fill:none;stroke:#5151ff;stroke-width:7.19999981;stroke-linecap:butt;stroke-linejoin:miter;stroke-miterlimit:10;stroke-dasharray:none;stroke-opacity:1"
         d="m 764.398,1166.8 c 0,22.86 -18.535,41.4 -41.398,41.4 -22.863,0 -41.398,-18.54 -41.398,-41.4 0,-22.86 18.535,-41.4 41.398,-41.4 22.863,0 41.398,18.54 41.398,41.4" /><path
         id="path4910"
         style="fill:#5151ff;fill-opacity:1;fill-rule:evenodd;stroke:none"
         d="m 764.398,1078.6 c 0,22.86 -18.535,41.4 -41.398,41.4 -22.863,0 -41.398,-18.54 -41.398,-41.4 0,-22.86 18.535,-41.4 41.398,-41.4 22.863,0 41.398,18.54 41.398,41.4" /><path
         id="path4912"
         style="fill:none;stroke:#5151ff;stroke-width:7.19999981;stroke-linecap:butt;stroke-linejoin:miter;stroke-miterlimit:10;stroke-dasharray:none;stroke-opacity:1"
         d="m 764.398,1078.6 c 0,22.86 -18.535,41.4 -41.398,41.4 -22.863,0 -41.398,-18.54 -41.398,-41.4 0,-22.86 18.535,-41.4 41.398,-41.4 22.863,0 41.398,18.54 41.398,41.4" /><path
         id="path4914"
         style="fill:#5151ff;fill-opacity:1;fill-rule:evenodd;stroke:none"
         d="m 762.602,994 c 0,22.86 -18.539,41.4 -41.403,41.4 -22.863,0 -41.398,-18.54 -41.398,-41.4 0,-22.863 18.535,-41.398 41.398,-41.398 22.864,0 41.403,18.535 41.403,41.398" /><path
         id="path4916"
         style="fill:none;stroke:#5151ff;stroke-width:7.19999981;stroke-linecap:butt;stroke-linejoin:miter;stroke-miterlimit:10;stroke-dasharray:none;stroke-opacity:1"
         d="m 762.602,994 c 0,22.86 -18.539,41.4 -41.403,41.4 -22.863,0 -41.398,-18.54 -41.398,-41.4 0,-22.863 18.535,-41.398 41.398,-41.398 22.864,0 41.403,18.535 41.403,41.398" /><path
         id="path4918"
         style="fill:none;stroke:#000000;stroke-width:7.19999981;stroke-linecap:butt;stroke-linejoin:miter;stroke-miterlimit:10;stroke-dasharray:none;stroke-opacity:1"
         d="m 678,950.801 h 338.398 v 345.598 H 678 Z" /><path
         id="path4920"
         style="fill:#5151ff;fill-opacity:1;fill-rule:evenodd;stroke:none"
         d="m 1014.6,994 c 0,22.86 -18.537,41.4 -41.401,41.4 -22.863,0 -41.398,-18.54 -41.398,-41.4 0,-22.863 18.535,-41.398 41.398,-41.398 22.864,0 41.401,18.535 41.401,41.398" /><path
         id="path4922"
         style="fill:none;stroke:#5151ff;stroke-width:7.19999981;stroke-linecap:butt;stroke-linejoin:miter;stroke-miterlimit:10;stroke-dasharray:none;stroke-opacity:1"
         d="m 1014.6,994 c 0,22.86 -18.537,41.4 -41.401,41.4 -22.863,0 -41.398,-18.54 -41.398,-41.4 0,-22.863 18.535,-41.398 41.398,-41.398 22.864,0 41.401,18.535 41.401,41.398" /><path
         id="path4924"
         style="fill:#39fb31;fill-opacity:1;fill-rule:evenodd;stroke:none"
         d="m 679.801,1253.2 c 0,22.86 -18.539,41.4 -41.403,41.4 -22.863,0 -41.398,-18.54 -41.398,-41.4 0,-22.86 18.535,-41.4 41.398,-41.4 22.864,0 41.403,18.54 41.403,41.4" /><path
         id="path4926"
         style="fill:none;stroke:#39fb31;stroke-width:7.19999981;stroke-linecap:butt;stroke-linejoin:miter;stroke-miterlimit:10;stroke-dasharray:none;stroke-opacity:1"
         d="m 679.801,1253.2 c 0,22.86 -18.539,41.4 -41.403,41.4 -22.863,0 -41.398,-18.54 -41.398,-41.4 0,-22.86 18.535,-41.4 41.398,-41.4 22.864,0 41.403,18.54 41.403,41.4" /><path
         id="path4928"
         style="fill:#39fb31;fill-opacity:1;fill-rule:evenodd;stroke:none"
         d="m 678,1166.8 c 0,22.86 -18.535,41.4 -41.398,41.4 -22.864,0 -41.403,-18.54 -41.403,-41.4 0,-22.86 18.539,-41.4 41.403,-41.4 22.863,0 41.398,18.54 41.398,41.4" /><path
         id="path4930"
         style="fill:none;stroke:#39fb31;stroke-width:7.19999981;stroke-linecap:butt;stroke-linejoin:miter;stroke-miterlimit:10;stroke-dasharray:none;stroke-opacity:1"
         d="m 678,1166.8 c 0,22.86 -18.535,41.4 -41.398,41.4 -22.864,0 -41.403,-18.54 -41.403,-41.4 0,-22.86 18.539,-41.4 41.403,-41.4 22.863,0 41.398,18.54 41.398,41.4" /><path
         id="path4932"
         style="fill:#39fb31;fill-opacity:1;fill-rule:evenodd;stroke:none"
         d="m 678,1078.6 c 0,22.86 -18.535,41.4 -41.398,41.4 -22.864,0 -41.403,-18.54 -41.403,-41.4 0,-22.86 18.539,-41.4 41.403,-41.4 22.863,0 41.398,18.54 41.398,41.4" /><path
         id="path4934"
         style="fill:none;stroke:#39fb31;stroke-width:7.19999981;stroke-linecap:butt;stroke-linejoin:miter;stroke-miterlimit:10;stroke-dasharray:none;stroke-opacity:1"
         d="m 678,1078.6 c 0,22.86 -18.535,41.4 -41.398,41.4 -22.864,0 -41.403,-18.54 -41.403,-41.4 0,-22.86 18.539,-41.4 41.403,-41.4 22.863,0 41.398,18.54 41.398,41.4" /><path
         id="path4936"
         style="fill:#ff1441;fill-opacity:1;fill-rule:evenodd;stroke:none"
         d="m 676.199,994 c 0,22.86 -18.535,41.4 -41.398,41.4 -22.863,0 -41.403,-18.54 -41.403,-41.4 0,-22.863 18.54,-41.398 41.403,-41.398 22.863,0 41.398,18.535 41.398,41.398" /><path
         id="path4938"
         style="fill:none;stroke:#ff1441;stroke-width:7.19999981;stroke-linecap:butt;stroke-linejoin:miter;stroke-miterlimit:10;stroke-dasharray:none;stroke-opacity:1"
         d="m 676.199,994 c 0,22.86 -18.535,41.4 -41.398,41.4 -22.863,0 -41.403,-18.54 -41.403,-41.4 0,-22.863 18.54,-41.398 41.403,-41.398 22.863,0 41.398,18.535 41.398,41.398" /><path
         id="path4940"
         style="fill:#39fb31;fill-opacity:1;fill-rule:evenodd;stroke:none"
         d="m 593.398,995.801 c 0,22.859 -18.535,41.399 -41.398,41.399 -22.863,0 -41.398,-18.54 -41.398,-41.399 0,-22.863 18.535,-41.403 41.398,-41.403 22.863,0 41.398,18.54 41.398,41.403" /><path
         id="path4942"
         style="fill:none;stroke:#39fb31;stroke-width:7.19999981;stroke-linecap:butt;stroke-linejoin:miter;stroke-miterlimit:10;stroke-dasharray:none;stroke-opacity:1"
         d="m 593.398,995.801 c 0,22.859 -18.535,41.399 -41.398,41.399 -22.863,0 -41.398,-18.54 -41.398,-41.399 0,-22.863 18.535,-41.403 41.398,-41.403 22.863,0 41.398,18.54 41.398,41.403" /><path
         id="path4944"
         style="fill:#39fb31;fill-opacity:1;fill-rule:evenodd;stroke:none"
         d="m 595.199,1080.4 c 0,22.86 -18.535,41.4 -41.398,41.4 -22.863,0 -41.403,-18.54 -41.403,-41.4 0,-22.86 18.54,-41.4 41.403,-41.4 22.863,0 41.398,18.54 41.398,41.4" /><path
         id="path4946"
         style="fill:none;stroke:#39fb31;stroke-width:7.19999981;stroke-linecap:butt;stroke-linejoin:miter;stroke-miterlimit:10;stroke-dasharray:none;stroke-opacity:1"
         d="m 595.199,1080.4 c 0,22.86 -18.535,41.4 -41.398,41.4 -22.863,0 -41.403,-18.54 -41.403,-41.4 0,-22.86 18.54,-41.4 41.403,-41.4 22.863,0 41.398,18.54 41.398,41.4" /><path
         id="path4948"
         style="fill:#39fb31;fill-opacity:1;fill-rule:evenodd;stroke:none"
         d="m 595.199,1168.6 c 0,22.86 -18.535,41.4 -41.398,41.4 -22.863,0 -41.403,-18.54 -41.403,-41.4 0,-22.86 18.54,-41.4 41.403,-41.4 22.863,0 41.398,18.54 41.398,41.4" /><path
         id="path4950"
         style="fill:none;stroke:#39fb31;stroke-width:7.19999981;stroke-linecap:butt;stroke-linejoin:miter;stroke-miterlimit:10;stroke-dasharray:none;stroke-opacity:1"
         d="m 595.199,1168.6 c 0,22.86 -18.535,41.4 -41.398,41.4 -22.863,0 -41.403,-18.54 -41.403,-41.4 0,-22.86 18.54,-41.4 41.403,-41.4 22.863,0 41.398,18.54 41.398,41.4" /><path
         id="path4952"
         style="fill:#39fb31;fill-opacity:1;fill-rule:evenodd;stroke:none"
         d="m 597,1255 c 0,22.86 -18.535,41.4 -41.398,41.4 -22.864,0 -41.403,-18.54 -41.403,-41.4 0,-22.86 18.539,-41.4 41.403,-41.4 22.863,0 41.398,18.54 41.398,41.4" /><path
         id="path4954"
         style="fill:none;stroke:#39fb31;stroke-width:7.19999981;stroke-linecap:butt;stroke-linejoin:miter;stroke-miterlimit:10;stroke-dasharray:none;stroke-opacity:1"
         d="m 597,1255 c 0,22.86 -18.535,41.4 -41.398,41.4 -22.864,0 -41.403,-18.54 -41.403,-41.4 0,-22.86 18.539,-41.4 41.403,-41.4 22.863,0 41.398,18.54 41.398,41.4" /><path
         id="path4956"
         style="fill:#39fb31;fill-opacity:1;fill-rule:evenodd;stroke:none"
         d="m 510.602,1251.4 c 0,22.86 -18.539,41.4 -41.403,41.4 -22.863,0 -41.398,-18.54 -41.398,-41.4 0,-22.86 18.535,-41.4 41.398,-41.4 22.864,0 41.403,18.54 41.403,41.4" /><path
         id="path4958"
         style="fill:none;stroke:#39fb31;stroke-width:7.19999981;stroke-linecap:butt;stroke-linejoin:miter;stroke-miterlimit:10;stroke-dasharray:none;stroke-opacity:1"
         d="m 510.602,1251.4 c 0,22.86 -18.539,41.4 -41.403,41.4 -22.863,0 -41.398,-18.54 -41.398,-41.4 0,-22.86 18.535,-41.4 41.398,-41.4 22.864,0 41.403,18.54 41.403,41.4" /><path
         id="path4960"
         style="fill:#39fb31;fill-opacity:1;fill-rule:evenodd;stroke:none"
         d="m 508.801,1165 c 0,22.86 -18.539,41.4 -41.403,41.4 -22.863,0 -41.398,-18.54 -41.398,-41.4 0,-22.86 18.535,-41.4 41.398,-41.4 22.864,0 41.403,18.54 41.403,41.4" /><path
         id="path4962"
         style="fill:none;stroke:#39fb31;stroke-width:7.19999981;stroke-linecap:butt;stroke-linejoin:miter;stroke-miterlimit:10;stroke-dasharray:none;stroke-opacity:1"
         d="m 508.801,1165 c 0,22.86 -18.539,41.4 -41.403,41.4 -22.863,0 -41.398,-18.54 -41.398,-41.4 0,-22.86 18.535,-41.4 41.398,-41.4 22.864,0 41.403,18.54 41.403,41.4" /><path
         id="path4964"
         style="fill:#39fb31;fill-opacity:1;fill-rule:evenodd;stroke:none"
         d="m 508.801,1076.8 c 0,22.86 -18.539,41.4 -41.403,41.4 -22.863,0 -41.398,-18.54 -41.398,-41.4 0,-22.86 18.535,-41.4 41.398,-41.4 22.864,0 41.403,18.54 41.403,41.4" /><path
         id="path4966"
         style="fill:none;stroke:#39fb31;stroke-width:7.19999981;stroke-linecap:butt;stroke-linejoin:miter;stroke-miterlimit:10;stroke-dasharray:none;stroke-opacity:1"
         d="m 508.801,1076.8 c 0,22.86 -18.539,41.4 -41.403,41.4 -22.863,0 -41.398,-18.54 -41.398,-41.4 0,-22.86 18.535,-41.4 41.398,-41.4 22.864,0 41.403,18.54 41.403,41.4" /><path
         id="path4968"
         style="fill:#39fb31;fill-opacity:1;fill-rule:evenodd;stroke:none"
         d="m 507,992.199 c 0,22.861 -18.535,41.401 -41.398,41.401 -22.864,0 -41.403,-18.54 -41.403,-41.401 0,-22.863 18.539,-41.398 41.403,-41.398 22.863,0 41.398,18.535 41.398,41.398" /><path
         id="path4970"
         style="fill:none;stroke:#39fb31;stroke-width:7.19999981;stroke-linecap:butt;stroke-linejoin:miter;stroke-miterlimit:10;stroke-dasharray:none;stroke-opacity:1"
         d="m 507,992.199 c 0,22.861 -18.535,41.401 -41.398,41.401 -22.864,0 -41.403,-18.54 -41.403,-41.401 0,-22.863 18.539,-41.398 41.403,-41.398 22.863,0 41.398,18.535 41.398,41.398" /><path
         id="path4972"
         style="fill:#39fb31;fill-opacity:1;fill-rule:evenodd;stroke:none"
         d="m 427.801,1253.2 c 0,22.86 -18.539,41.4 -41.403,41.4 -22.863,0 -41.398,-18.54 -41.398,-41.4 0,-22.86 18.535,-41.4 41.398,-41.4 22.864,0 41.403,18.54 41.403,41.4" /><path
         id="path4974"
         style="fill:none;stroke:#39fb31;stroke-width:7.19999981;stroke-linecap:butt;stroke-linejoin:miter;stroke-miterlimit:10;stroke-dasharray:none;stroke-opacity:1"
         d="m 427.801,1253.2 c 0,22.86 -18.539,41.4 -41.403,41.4 -22.863,0 -41.398,-18.54 -41.398,-41.4 0,-22.86 18.535,-41.4 41.398,-41.4 22.864,0 41.403,18.54 41.403,41.4" /><path
         id="path4976"
         style="fill:#39fb31;fill-opacity:1;fill-rule:evenodd;stroke:none"
         d="m 426,1166.8 c 0,22.86 -18.535,41.4 -41.398,41.4 -22.864,0 -41.403,-18.54 -41.403,-41.4 0,-22.86 18.539,-41.4 41.403,-41.4 22.863,0 41.398,18.54 41.398,41.4" /><path
         id="path4978"
         style="fill:none;stroke:#39fb31;stroke-width:7.19999981;stroke-linecap:butt;stroke-linejoin:miter;stroke-miterlimit:10;stroke-dasharray:none;stroke-opacity:1"
         d="m 426,1166.8 c 0,22.86 -18.535,41.4 -41.398,41.4 -22.864,0 -41.403,-18.54 -41.403,-41.4 0,-22.86 18.539,-41.4 41.403,-41.4 22.863,0 41.398,18.54 41.398,41.4" /><path
         id="path4980"
         style="fill:#39fb31;fill-opacity:1;fill-rule:evenodd;stroke:none"
         d="m 426,1078.6 c 0,22.86 -18.535,41.4 -41.398,41.4 -22.864,0 -41.403,-18.54 -41.403,-41.4 0,-22.86 18.539,-41.4 41.403,-41.4 22.863,0 41.398,18.54 41.398,41.4" /><path
         id="path4982"
         style="fill:none;stroke:#39fb31;stroke-width:7.19999981;stroke-linecap:butt;stroke-linejoin:miter;stroke-miterlimit:10;stroke-dasharray:none;stroke-opacity:1"
         d="m 426,1078.6 c 0,22.86 -18.535,41.4 -41.398,41.4 -22.864,0 -41.403,-18.54 -41.403,-41.4 0,-22.86 18.539,-41.4 41.403,-41.4 22.863,0 41.398,18.54 41.398,41.4" /><path
         id="path4984"
         style="fill:#39fb31;fill-opacity:1;fill-rule:evenodd;stroke:none"
         d="m 424.199,994 c 0,22.86 -18.535,41.4 -41.398,41.4 -22.863,0 -41.403,-18.54 -41.403,-41.4 0,-22.863 18.54,-41.398 41.403,-41.398 22.863,0 41.398,18.535 41.398,41.398" /><path
         id="path4986"
         style="fill:none;stroke:#39fb31;stroke-width:7.19999981;stroke-linecap:butt;stroke-linejoin:miter;stroke-miterlimit:10;stroke-dasharray:none;stroke-opacity:1"
         d="m 424.199,994 c 0,22.86 -18.535,41.4 -41.398,41.4 -22.863,0 -41.403,-18.54 -41.403,-41.4 0,-22.863 18.54,-41.398 41.403,-41.398 22.863,0 41.398,18.535 41.398,41.398" /><path
         id="path4988"
         style="fill:none;stroke:#000000;stroke-width:7.19999981;stroke-linecap:butt;stroke-linejoin:miter;stroke-miterlimit:10;stroke-dasharray:none;stroke-opacity:1"
         d="M 339.602,950.801 H 678 v 345.598 H 339.602 Z" /><path
         id="path4990"
         style="fill:#39fb31;fill-opacity:1;fill-rule:evenodd;stroke:none"
         d="m 676.199,994 c 0,22.86 -18.535,41.4 -41.398,41.4 -22.863,0 -41.403,-18.54 -41.403,-41.4 0,-22.863 18.54,-41.398 41.403,-41.398 22.863,0 41.398,18.535 41.398,41.398" /><path
         id="path4992"
         style="fill:none;stroke:#39fb31;stroke-width:7.19999981;stroke-linecap:butt;stroke-linejoin:miter;stroke-miterlimit:10;stroke-dasharray:none;stroke-opacity:1"
         d="m 676.199,994 c 0,22.86 -18.535,41.4 -41.398,41.4 -22.863,0 -41.403,-18.54 -41.403,-41.4 0,-22.863 18.54,-41.398 41.403,-41.398 22.863,0 41.398,18.535 41.398,41.398" /><path
         id="path4994"
         style="fill:none;stroke:#000000;stroke-width:7.19999981;stroke-linecap:butt;stroke-linejoin:miter;stroke-miterlimit:10;stroke-dasharray:none;stroke-opacity:1"
         d="m 1196.4,2196.4 169.2,-169.2 V 378.398 H 62.3984 V 2196.4 Z" /><path
         id="path4996"
         style="fill:none;stroke:#000000;stroke-width:7.19999981;stroke-linecap:butt;stroke-linejoin:miter;stroke-miterlimit:10;stroke-dasharray:none;stroke-opacity:1"
         d="m 1197.3,2196.4 v -170.1 h 169.2" /><path
         id="path4998"
         style="fill:none;stroke:#000000;stroke-width:7.19999981;stroke-linecap:butt;stroke-linejoin:miter;stroke-miterlimit:10;stroke-dasharray:none;stroke-opacity:1"
         d="m 1639.2,1949.8 h 1364.4 l 61.2,-61.2 V 805 L 3000,740.199 H 1657.2 l -86.4,86.403 V 1881.4 Z" /></g></g></svg>