<?xml version="1.0" encoding="UTF-8" standalone="no"?>
<svg
   xmlns:dc="http://purl.org/dc/elements/1.1/"
   xmlns:cc="http://creativecommons.org/ns#"
   xmlns:rdf="http://www.w3.org/1999/02/22-rdf-syntax-ns#"
   xmlns:svg="http://www.w3.org/2000/svg"
   xmlns="http://www.w3.org/2000/svg"
   viewBox="0 0 662.66669 516"
   height="516"
   width="662.66669"
   xml:space="preserve"
   id="svg5456"
   version="1.1"><metadata
     id="metadata5462"><rdf:RDF><cc:Work
         rdf:about=""><dc:format>image/svg+xml</dc:format><dc:type
           rdf:resource="http://purl.org/dc/dcmitype/StillImage" /><dc:title></dc:title></cc:Work></rdf:RDF></metadata><defs
     id="defs5460" /><g
     transform="matrix(1.3333333,0,0,-1.3333333,0,516)"
     id="g5464"><g
       transform="scale(0.1)"
       id="g5466"><path
         id="path5468"
         style="fill:#808080;fill-opacity:1;fill-rule:evenodd;stroke:none"
         d="M 4329.09,905.453 2660,1470 25.4531,586.363 1702.73,30 Z" /><path
         id="path5470"
         style="fill:none;stroke:#808080;stroke-width:16.36359978;stroke-linecap:butt;stroke-linejoin:miter;stroke-miterlimit:10;stroke-dasharray:none;stroke-opacity:1"
         d="M 4329.09,905.453 2660,1470 25.4531,586.363 1702.73,30 Z" /><path
         id="path5472"
         style="fill:none;stroke:#000000;stroke-width:16.36359978;stroke-linecap:butt;stroke-linejoin:miter;stroke-miterlimit:10;stroke-dasharray:none;stroke-opacity:1"
         d="M 4332.16,896.25 2654.89,1460.8 20.3398,585.34 1705.8,28.9766 Z" /><path
         id="path5474"
         style="fill:none;stroke:#000000;stroke-width:16.36359978;stroke-linecap:butt;stroke-linejoin:miter;stroke-miterlimit:10;stroke-dasharray:none;stroke-opacity:1"
         d="M 4332.16,1378.98 2663.07,1935.34 28.5234,1059.89 1705.8,511.703 Z" /><path
         id="path5476"
         style="fill:#808080;fill-opacity:1;fill-rule:evenodd;stroke:none"
         d="M 3617.27,2091.82 2660,2427.27 25.4531,1543.64 982.727,1216.36 Z" /><path
         id="path5478"
         style="fill:none;stroke:#808080;stroke-width:16.36359978;stroke-linecap:butt;stroke-linejoin:miter;stroke-miterlimit:10;stroke-dasharray:none;stroke-opacity:1"
         d="M 3617.27,2091.82 2660,2427.27 25.4531,1543.64 982.727,1216.36 Z" /><path
         id="path5480"
         style="fill:none;stroke:#000000;stroke-width:16.36359978;stroke-linecap:butt;stroke-linejoin:miter;stroke-miterlimit:10;stroke-dasharray:none;stroke-opacity:1"
         d="M 508.184,1371.82 3134.55,2247.27" /><path
         id="path5482"
         style="fill:none;stroke:#000000;stroke-width:16.36359978;stroke-linecap:butt;stroke-linejoin:miter;stroke-miterlimit:10;stroke-dasharray:none;stroke-opacity:1"
         d="M 4332.16,1853.52 2663.07,2409.89 28.5234,1534.43 1705.8,986.25 Z" /><path
         id="path5484"
         style="fill:none;stroke:#000000;stroke-width:16.36359978;stroke-linecap:butt;stroke-linejoin:miter;stroke-miterlimit:10;stroke-dasharray:none;stroke-opacity:1"
         d="M 982.727,1216.36 3609.09,2091.82" /><path
         id="path5486"
         style="fill:#c3c3c3;fill-opacity:1;fill-rule:evenodd;stroke:none"
         d="M 4329.09,2345.46 2660,2910 25.4531,2026.37 1702.73,1470 Z" /><path
         id="path5488"
         style="fill:none;stroke:#c3c3c3;stroke-width:16.36359978;stroke-linecap:butt;stroke-linejoin:miter;stroke-miterlimit:10;stroke-dasharray:none;stroke-opacity:1"
         d="M 4329.09,2345.46 2660,2910 25.4531,2026.37 1702.73,1470 Z" /><path
         id="path5490"
         style="fill:none;stroke:#000000;stroke-width:16.36359978;stroke-linecap:butt;stroke-linejoin:miter;stroke-miterlimit:10;stroke-dasharray:none;stroke-opacity:1"
         d="M 37.7266,2018.18 1706.82,1461.82 4341.36,2337.27 2664.09,2901.82 Z" /><path
         id="path5492"
         style="fill:none;stroke:#000000;stroke-width:16.36359978;stroke-linecap:butt;stroke-linejoin:miter;stroke-miterlimit:10;stroke-dasharray:none;stroke-opacity:1"
         d="M 1702.73,2582.73 3371.82,2018.18" /><path
         id="path5494"
         style="fill:#808080;fill-opacity:1;fill-rule:evenodd;stroke:none"
         d="M 4329.09,2811.82 2660,3376.36 25.4531,2492.73 1702.73,1936.36 Z" /><path
         id="path5496"
         style="fill:none;stroke:#808080;stroke-width:16.36359978;stroke-linecap:butt;stroke-linejoin:miter;stroke-miterlimit:10;stroke-dasharray:none;stroke-opacity:1"
         d="M 4329.09,2811.82 2660,3376.36 25.4531,2492.73 1702.73,1936.36 Z" /><path
         id="path5498"
         style="fill:none;stroke:#000000;stroke-width:16.36359978;stroke-linecap:butt;stroke-linejoin:miter;stroke-miterlimit:10;stroke-dasharray:none;stroke-opacity:1"
         d="M 37.7266,2484.55 1706.82,1928.18 4341.36,2803.64 2664.09,3368.18 Z" /><path
         id="path5500"
         style="fill:none;stroke:#000000;stroke-width:16.36359978;stroke-linecap:butt;stroke-linejoin:miter;stroke-miterlimit:10;stroke-dasharray:none;stroke-opacity:1"
         d="M 2177.27,2095.91 508.184,2652.27" /><path
         id="path5502"
         style="fill:none;stroke:#000000;stroke-width:16.36359978;stroke-linecap:butt;stroke-linejoin:miter;stroke-miterlimit:10;stroke-dasharray:none;stroke-opacity:1"
         d="M 982.727,2803.64 2660,2247.27" /><path
         id="path5504"
         style="fill:none;stroke:#000000;stroke-width:16.36359978;stroke-linecap:butt;stroke-linejoin:miter;stroke-miterlimit:10;stroke-dasharray:none;stroke-opacity:1"
         d="M 1702.73,3049.09 3371.82,2484.55" /><path
         id="path5506"
         style="fill:none;stroke:#000000;stroke-width:16.36359978;stroke-linecap:butt;stroke-linejoin:miter;stroke-miterlimit:10;stroke-dasharray:none;stroke-opacity:1"
         d="M 2181.36,3200.46 3858.64,2652.27" /><path
         id="path5508"
         style="fill:#c3c3c3;fill-opacity:1;fill-rule:evenodd;stroke:none"
         d="M 981.703,2655.34 1938.98,2974.43 1456.25,3129.89 981.703,2974.43 1456.25,2810.8 981.703,2655.34 24.4336,2974.43 2658.98,3849.89 4328.07,3293.52 1701.71,2418.07" /><path
         id="path5510"
         style="fill:none;stroke:#c3c3c3;stroke-width:16.36359978;stroke-linecap:butt;stroke-linejoin:miter;stroke-miterlimit:10;stroke-dasharray:none;stroke-opacity:1"
         d="M 981.703,2655.34 1938.98,2974.43 1456.25,3129.89 981.703,2974.43 1456.25,2810.8 981.703,2655.34 24.4336,2974.43 2658.98,3849.89 4328.07,3293.52 1701.71,2418.07 Z" /><path
         id="path5512"
         style="fill:none;stroke:#000000;stroke-width:16.36359978;stroke-linecap:butt;stroke-linejoin:miter;stroke-miterlimit:10;stroke-dasharray:none;stroke-opacity:1"
         d="M 25.4531,2975.46 1702.73,2419.09 4329.09,3294.55 2660,3859.09 Z" /><path
         id="path5514"
         style="fill:none;stroke:#000000;stroke-width:16.36359978;stroke-linecap:butt;stroke-linejoin:miter;stroke-miterlimit:10;stroke-dasharray:none;stroke-opacity:1"
         d="M 1702.73,3540 3371.82,2975.46" /><path
         id="path5516"
         style="fill:none;stroke:#000000;stroke-width:16.36359978;stroke-linecap:butt;stroke-linejoin:miter;stroke-miterlimit:10;stroke-dasharray:none;stroke-opacity:1"
         d="M 508.184,2820 3134.55,3695.46" /><path
         id="path5518"
         style="fill:none;stroke:#000000;stroke-width:16.36359978;stroke-linecap:butt;stroke-linejoin:miter;stroke-miterlimit:10;stroke-dasharray:none;stroke-opacity:1"
         d="M 982.727,2664.55 2660,3220.91" /><path
         id="path5520"
         style="fill:none;stroke:#000000;stroke-width:16.36359978;stroke-linecap:butt;stroke-linejoin:miter;stroke-miterlimit:10;stroke-dasharray:none;stroke-opacity:1"
         d="M 982.727,3294.55 2660,2738.18" /><path
         id="path5522"
         style="fill:none;stroke:#000000;stroke-width:16.36359978;stroke-linecap:butt;stroke-linejoin:miter;stroke-miterlimit:10;stroke-dasharray:none;stroke-opacity:1"
         d="M 2664.09,3544.09 3858.64,3143.18" /><path
         id="path5524"
         style="fill:none;stroke:#000000;stroke-width:16.36359978;stroke-linecap:butt;stroke-linejoin:miter;stroke-miterlimit:10;stroke-dasharray:none;stroke-opacity:1"
         d="M 2177.27,2586.82 508.184,3143.18" /><g
         transform="scale(10)"
         id="g5526"><text
           id="text5540"
           style="font-variant:normal;font-weight:bold;font-size:11.4545002px;font-family:Helvetica;-inkscape-font-specification:Helvetica-Bold;writing-mode:lr-tb;fill:#000000;fill-opacity:1;fill-rule:nonzero;stroke:none"
           transform="matrix(1,0,0,-1,409.489,342.695)"><tspan
             id="tspan5528"
             y="0"
             x="0 6.3687019 12.737404 15.921755 19.106106">cells</tspan><tspan
             id="tspan5530"
             y="48.272701"
             x="0 4.4558005 11.4545 20.3661">rows</tspan><tspan
             id="tspan5532"
             y="96.545403"
             x="0 4.4558005 11.4545 20.3661 23.550451 30.549152 35.004951 42.003651 49.00235 56.001049">row groups</tspan><tspan
             id="tspan5534"
             y="143.1817"
             x="-0.81796902 5.5507331 12.549433 15.733784 22.732483 32.915535 39.914234">columns</tspan><tspan
             id="tspan5536"
             y="238.909"
             x="0 3.8143485 10.18305 17.181749 20.3661">table</tspan><tspan
             id="tspan5538"
             y="190.636"
             x="0 6.3687019 13.367401 16.551752 23.550451 33.733501 40.732201 43.916553 50.915253 55.371052 62.369751 69.368454 76.367149">column groups</tspan></text>
</g></g></g></svg>