<?xml version="1.0" encoding="UTF-8" standalone="no"?>
<svg
   xmlns:dc="http://purl.org/dc/elements/1.1/"
   xmlns:cc="http://creativecommons.org/ns#"
   xmlns:rdf="http://www.w3.org/1999/02/22-rdf-syntax-ns#"
   xmlns:svg="http://www.w3.org/2000/svg"
   xmlns="http://www.w3.org/2000/svg"
   viewBox="0 0 564 381.33334"
   height="381.33334"
   width="564"
   xml:space="preserve"
   id="svg5580"
   version="1.1"><metadata
     id="metadata5586"><rdf:RDF><cc:Work
         rdf:about=""><dc:format>image/svg+xml</dc:format><dc:type
           rdf:resource="http://purl.org/dc/dcmitype/StillImage" /><dc:title></dc:title></cc:Work></rdf:RDF></metadata><defs
     id="defs5584" /><g
     transform="matrix(1.3333333,0,0,-1.3333333,0,381.33333)"
     id="g5588"><g
       transform="scale(0.1)"
       id="g5590"><path
         id="path5592"
         style="fill:#808080;fill-opacity:1;fill-rule:evenodd;stroke:none"
         d="M 2991.93,352.293 3383.61,2721.5 v 0 L 622.719,2625.97 937.977,438.273" /><path
         id="path5594"
         style="fill:#ffffff;fill-opacity:1;fill-rule:evenodd;stroke:none"
         d="m 2930,2380 v 0 0 l -80,-80 H 1250 V 740 l -80,-80 v 1720" /><path
         id="path5596"
         style="fill:#000000;fill-opacity:1;fill-rule:evenodd;stroke:none"
         d="m 1250,740 v 0 h 1600 v 1560 l 80,80 V 660 H 1170" /><path
         id="path5598"
         style="fill:#000000;fill-opacity:1;fill-rule:evenodd;stroke:none"
         d="m 1810,2180 v 0 l -80,-80 h -280 v -440 l -80,-80 v 600" /><path
         id="path5600"
         style="fill:#000000;fill-opacity:1;fill-rule:evenodd;stroke:none"
         d="m 2730,2180 v 0 l -40,-40 h -320 v -520 l -40,-40 v 600" /><path
         id="path5602"
         style="fill:#000000;fill-opacity:1;fill-rule:evenodd;stroke:none"
         d="m 2210,2180 v 0 l -40,-40 h -200 v -520 l -40,-40 v 600" /><path
         id="path5604"
         style="fill:#000000;fill-opacity:1;fill-rule:evenodd;stroke:none"
         d="m 1810,1460 v 0 l -40,-40 H 1410 V 900 l -40,-40 v 600" /><path
         id="path5606"
         style="fill:#000000;fill-opacity:1;fill-rule:evenodd;stroke:none"
         d="m 2730,1460 v 0 l -40,-40 H 2370 V 900 l -40,-40 v 600" /><path
         id="path5608"
         style="fill:#000000;fill-opacity:1;fill-rule:evenodd;stroke:none"
         d="m 2210,1460 v 0 l -40,-40 H 1970 V 900 l -40,-40 v 600" /><path
         id="path5610"
         style="fill:#ffffff;fill-opacity:1;fill-rule:evenodd;stroke:none"
         d="m 1450,1660 v 0 h 280 v 440 l 80,80 v -600 h -440" /><path
         id="path5612"
         style="fill:#ffffff;fill-opacity:1;fill-rule:evenodd;stroke:none"
         d="m 2370,1620 v 0 h 320 v 520 l 40,40 v -600 h -400" /><path
         id="path5614"
         style="fill:#ffffff;fill-opacity:1;fill-rule:evenodd;stroke:none"
         d="m 1970,1620 v 0 h 200 v 520 l 40,40 v -600 h -280" /><path
         id="path5616"
         style="fill:#ffffff;fill-opacity:1;fill-rule:evenodd;stroke:none"
         d="m 1410,900 v 0 h 360 v 520 l 40,40 V 860 h -440" /><path
         id="path5618"
         style="fill:#ffffff;fill-opacity:1;fill-rule:evenodd;stroke:none"
         d="m 2370,900 v 0 h 320 v 520 l 40,40 V 860 h -400" /><path
         id="path5620"
         style="fill:#ffffff;fill-opacity:1;fill-rule:evenodd;stroke:none"
         d="m 1970,900 v 0 h 200 v 520 l 40,40 V 860 h -280" /><path
         id="path5622"
         style="fill:none;stroke:#000000;stroke-width:8;stroke-linecap:butt;stroke-linejoin:miter;stroke-miterlimit:10;stroke-dasharray:none;stroke-opacity:1"
         d="M 1410,900 V 420" /><path
         id="path5624"
         style="fill:none;stroke:#000000;stroke-width:8;stroke-linecap:butt;stroke-linejoin:miter;stroke-miterlimit:10;stroke-dasharray:none;stroke-opacity:1"
         d="M 1770,900 V 420" /><path
         id="path5626"
         style="fill:none;stroke:#000000;stroke-width:8;stroke-linecap:butt;stroke-linejoin:miter;stroke-miterlimit:10;stroke-dasharray:none;stroke-opacity:1"
         d="m 1410,460 h 360" /><path
         id="path5628"
         style="fill:none;stroke:#000000;stroke-width:8;stroke-linecap:butt;stroke-linejoin:miter;stroke-miterlimit:10;stroke-dasharray:none;stroke-opacity:1"
         d="M 2210,860 V 420" /><path
         id="path5630"
         style="fill:none;stroke:#000000;stroke-width:8;stroke-linecap:butt;stroke-linejoin:miter;stroke-miterlimit:10;stroke-dasharray:none;stroke-opacity:1"
         d="M 2330,860 V 420" /><path
         id="path5632"
         style="fill:none;stroke:#000000;stroke-width:8;stroke-linecap:butt;stroke-linejoin:miter;stroke-miterlimit:10;stroke-dasharray:none;stroke-opacity:1"
         d="m 2210,460 h 120" /><path
         id="path5634"
         style="fill:none;stroke:#000000;stroke-width:8;stroke-linecap:butt;stroke-linejoin:miter;stroke-miterlimit:10;stroke-dasharray:none;stroke-opacity:1"
         d="m 1250,2300 v 320" /><path
         id="path5636"
         style="fill:none;stroke:#000000;stroke-width:8;stroke-linecap:butt;stroke-linejoin:miter;stroke-miterlimit:10;stroke-dasharray:none;stroke-opacity:1"
         d="m 2850,2300 v 320" /><path
         id="path5638"
         style="fill:none;stroke:#000000;stroke-width:8;stroke-linecap:butt;stroke-linejoin:miter;stroke-miterlimit:10;stroke-dasharray:none;stroke-opacity:1"
         d="M 1250,2580 H 2850" /><g
         transform="scale(10)"
         id="g5640"><text
           id="text5644"
           style="font-variant:normal;font-weight:normal;font-size:11.19999981px;font-family:Helvetica;-inkscape-font-specification:Helvetica;writing-mode:lr-tb;fill:#000000;fill-opacity:1;fill-rule:nonzero;stroke:none"
           transform="matrix(1,0,0,-1,174.973,276.502)"><tspan
             id="tspan5642"
             y="0"
             x="0 3.1136 9.3408003 15.568 18.054399 24.281601 27.395201 35.481602 37.967999 44.195202 47.3088">table width</tspan></text>
</g><path
         id="path5646"
         style="fill:none;stroke:#000000;stroke-width:8;stroke-linecap:butt;stroke-linejoin:miter;stroke-miterlimit:10;stroke-dasharray:none;stroke-opacity:1"
         d="m 2730,1580 h 680" /><path
         id="path5648"
         style="fill:none;stroke:#000000;stroke-width:8;stroke-linecap:butt;stroke-linejoin:miter;stroke-miterlimit:10;stroke-dasharray:none;stroke-opacity:1"
         d="m 2730,1460 h 680" /><path
         id="path5650"
         style="fill:none;stroke:#000000;stroke-width:8;stroke-linecap:butt;stroke-linejoin:miter;stroke-miterlimit:10;stroke-dasharray:none;stroke-opacity:1"
         d="M 3370,1580 V 1460" /><g
         transform="scale(10)"
         id="g5652"><text
           id="text5672"
           style="font-variant:normal;font-weight:normal;font-size:11.19999981px;font-family:Helvetica;-inkscape-font-specification:Helvetica;writing-mode:lr-tb;fill:#000000;fill-opacity:1;fill-rule:nonzero;stroke:none"
           transform="matrix(1,0,0,-1,345,156.083)"><tspan
             id="tspan5654"
             y="0"
             x="0 5.5999999 11.8272 15.5568 18.670401 21.156799 26.7568 32.984001">vertical</tspan><tspan
             id="tspan5656"
             y="12"
             x="0 6.2272 12.4544 16.184 22.4112 28.638399 32.368 38.908798 44.508801 50.736 56.9632 62.563202 65.049599 71.276802">border−spacing</tspan><tspan
             id="tspan5658"
             y="150.88499"
             x="-136.77699 -130.5498 -124.3226 -120.593 -114.3658 -108.1386 -104.409 -97.868202 -92.268204 -86.041 -79.813797 -74.213799 -71.727402 -65.500198">border−spacing</tspan><tspan
             id="tspan5660"
             y="138.88499"
             x="-136.77699 -130.5498 -124.3226 -120.593 -118.1066 -112.5066 -106.2794 -100.0522 -96.938599 -90.711403">horizontal</tspan><tspan
             id="tspan5662"
             y="-54.328999"
             x="-343.10699 -339.99341 -333.7662 -327.539 -325.05261 -318.82541 -315.71179 -309.48459 -303.25739 -299.5278 -293.3006 -287.07339">table border</tspan><tspan
             id="tspan5664"
             y="-42.729"
             x="-342.707 -338.97739 -332.75021 -326.52301 -323.40939 -317.80939 -311.58221 -308.4686">(outset)</tspan><tspan
             id="tspan5666"
             y="138.886"
             x="-207.422 -201.82201 -195.5948 -193.1084 -190.62199 -187.50841 -179.422 -176.93559 -170.7084 -167.5948">cell width</tspan><tspan
             id="tspan5668"
             y="20.42"
             x="-323.884 -318.284 -312.05679 -309.5704 -307.08401 -303.9704 -297.74319 -291.51599 -287.78641 -281.5592 -275.332">cell border</tspan><tspan
             id="tspan5670"
             y="32.02"
             x="-323.48401 -319.75439 -317.26801 -311.0408 -305.4408 -299.21359 -296.10001">(inset)</tspan></text>
</g><path
         id="path5674"
         style="fill:none;stroke:#000000;stroke-width:8;stroke-linecap:butt;stroke-linejoin:miter;stroke-miterlimit:10;stroke-dasharray:none;stroke-opacity:1"
         d="M 1186.36,2153.06 546.289,2019.32" /><path
         id="path5676"
         style="fill:#000000;fill-opacity:1;fill-rule:evenodd;stroke:none"
         d="m 1115.48,2159.83 87.02,-3.39 -78.38,-37.96" /><path
         id="path5678"
         style="fill:none;stroke:#000000;stroke-width:8;stroke-linecap:butt;stroke-linejoin:miter;stroke-miterlimit:10;stroke-dasharray:none;stroke-opacity:1"
         d="m 1120.44,2155.63 65.92,-2.57 -59.38,-28.75" /><path
         id="path5680"
         style="fill:none;stroke:#000000;stroke-width:8;stroke-linecap:butt;stroke-linejoin:miter;stroke-miterlimit:10;stroke-dasharray:none;stroke-opacity:1"
         d="M 1406.09,1818.7 651.379,1512.99" /><path
         id="path5682"
         style="fill:#000000;fill-opacity:1;fill-rule:evenodd;stroke:none"
         d="m 1335.13,1812.75 86.24,12.14 -70.38,-51.3" /><path
         id="path5684"
         style="fill:none;stroke:#000000;stroke-width:8;stroke-linecap:butt;stroke-linejoin:miter;stroke-miterlimit:10;stroke-dasharray:none;stroke-opacity:1"
         d="m 1340.76,1809.5 65.33,9.2 -53.32,-38.86" /><path
         id="path5686"
         style="fill:none;stroke:#000000;stroke-width:8;stroke-linecap:butt;stroke-linejoin:miter;stroke-miterlimit:10;stroke-dasharray:none;stroke-opacity:1"
         d="m 2730,2300 h 680" /><path
         id="path5688"
         style="fill:none;stroke:#000000;stroke-width:8;stroke-linecap:butt;stroke-linejoin:miter;stroke-miterlimit:10;stroke-dasharray:none;stroke-opacity:1"
         d="m 2730,2180 h 680" /><path
         id="path5690"
         style="fill:none;stroke:#000000;stroke-width:8;stroke-linecap:butt;stroke-linejoin:miter;stroke-miterlimit:10;stroke-dasharray:none;stroke-opacity:1"
         d="M 3370,2300 V 2180" /><g
         transform="scale(10)"
         id="g5692"><text
           id="text5700"
           style="font-variant:normal;font-weight:normal;font-size:11.19999981px;font-family:Helvetica;-inkscape-font-specification:Helvetica;writing-mode:lr-tb;fill:#000000;fill-opacity:1;fill-rule:nonzero;stroke:none"
           transform="matrix(1,0,0,-1,345,233.349)"><tspan
             id="tspan5694"
             y="0"
             x="0 5.5999999 11.8272 15.5568 18.670401 21.156799 26.7568 32.984001">vertical</tspan><tspan
             id="tspan5696"
             y="11.2"
             x="0 6.2272 12.4544 16.184 22.4112 28.638399 32.368 38.908798 44.508801 50.736 56.9632 62.563202 65.049599 71.276802">border−spacing</tspan><tspan
             id="tspan5698"
             y="22.4"
             x="0 6.2272 12.4544 18.681601 21.7952 28.0224 34.249599 40.476799 46.703999 49.190399 55.417599">and padding</tspan></text>
</g></g></g></svg>