<?xml version="1.0" encoding="UTF-8" standalone="no"?>
<svg
   xmlns:dc="http://purl.org/dc/elements/1.1/"
   xmlns:cc="http://creativecommons.org/ns#"
   xmlns:rdf="http://www.w3.org/1999/02/22-rdf-syntax-ns#"
   xmlns:svg="http://www.w3.org/2000/svg"
   xmlns="http://www.w3.org/2000/svg"
   id="svg939"
   version="1.1"
   viewBox="1034 4049 7877 5582"
   height="384pt"
   width="541pt">
  <metadata
     id="metadata945">
    <rdf:RDF>
      <cc:Work
         rdf:about="">
        <dc:format>image/svg+xml</dc:format>
        <dc:type
           rdf:resource="http://purl.org/dc/dcmitype/StillImage" />
        <dc:title></dc:title>
      </cc:Work>
    </rdf:RDF>
  </metadata>
  <defs
     id="defs943" />
  <g
     id="g937"
     fill="none">
    <!-- Line -->
    <!--  polyline  -->
    <polyline
       id="polyline771"
       fill="#000000"
       points=" 1535,8221 1535,5440 1281,5440 1281,8221 1535,8221" />
    <!-- Line -->
    <!--  polyline  -->
    <polyline
       id="polyline773"
       stroke-width="8px"
       stroke="#000000"
       points=" 1535,8221 1535,5440 1281,5440 1281,8221 1535,8221" />
    <!-- Line -->
    <!--  polyline  -->
    <polyline
       id="polyline775"
       fill="#000000"
       points=" 3935,8221 3935,5440 3554,5440 3554,8221 3935,8221" />
    <!-- Line -->
    <!--  polyline  -->
    <polyline
       id="polyline777"
       stroke-width="8px"
       stroke="#000000"
       points=" 3935,8221 3935,5440 3554,5440 3554,8221 3935,8221" />
    <!-- Line -->
    <!--  polyline  -->
    <polyline
       id="polyline779"
       fill="#000000"
       points=" 6336,8221 6336,5440 6081,5440 6081,8221 6336,8221" />
    <!-- Line -->
    <!--  polyline  -->
    <polyline
       id="polyline781"
       stroke-width="8px"
       stroke="#000000"
       points=" 6336,8221 6336,5440 6081,5440 6081,8221 6336,8221" />
    <!-- Line -->
    <!--  polyline  -->
    <polyline
       id="polyline783"
       fill="#000000"
       points=" 8748,8221 8748,5440 8113,5440 8113,8221 8748,8221" />
    <!-- Line -->
    <!--  polyline  -->
    <polyline
       id="polyline785"
       stroke-width="8px"
       stroke="#000000"
       points=" 8748,8221 8748,5440 8113,5440 8113,8221 8748,8221" />
    <!-- Line -->
    <!--  polyline  -->
    <polyline
       id="polyline787"
       stroke-dasharray="40 12 10 12 10 12"
       stroke-width="8px"
       stroke="#000000"
       points=" 3173,7967 3173,5567 1788,5567 1788,7967 3173,7967" />
    <!-- Line -->
    <!--  polyline  -->
    <polyline
       id="polyline789"
       stroke-dasharray="40 12 10 12 10 12"
       stroke-width="8px"
       stroke="#000000"
       points=" 5840,7967 5840,5567 4189,5567 4189,7967 5840,7967" />
    <!-- Line -->
    <!--  polyline  -->
    <polyline
       id="polyline791"
       stroke-dasharray="40 12 10 12 10 12"
       stroke-width="8px"
       stroke="#000000"
       points=" 7732,7967 7732,5567 6717,5567 6717,7967 7732,7967" />
    <!-- Line -->
    <!--  polyline  -->
    <polyline
       id="polyline793"
       fill="#000000"
       points=" 1281,8348 1281,8221 8748,8221 8748,8348 1281,8348" />
    <!-- Line -->
    <!--  polyline  -->
    <polyline
       id="polyline795"
       stroke-width="8px"
       stroke="#000000"
       points=" 1281,8348 1281,8221 8748,8221 8748,8348 1281,8348" />
    <!-- Line -->
    <!--  polyline  -->
    <polyline
       id="polyline797"
       stroke-width="8px"
       stroke="#000000"
       points=" 1281,5313 1281,4932" />
    <!-- Line -->
    <!--  polyline  -->
    <polyline
       id="polyline799"
       stroke-width="8px"
       stroke="#000000"
       points=" 1535,5313 1535,4932" />
    <!-- Line -->
    <!--  polyline  -->
    <polyline
       id="polyline801"
       stroke-width="8px"
       stroke="#000000"
       points=" 1788,5313 1788,4932" />
    <!-- Line -->
    <!--  polyline  -->
    <polyline
       id="polyline803"
       stroke-width="8px"
       stroke="#000000"
       points=" 3173,5313 3173,4932" />
    <!-- Line -->
    <!--  polyline  -->
    <polyline
       id="polyline805"
       stroke-width="8px"
       stroke="#000000"
       points=" 3554,5313 3554,4932" />
    <!-- Line -->
    <!--  polyline  -->
    <polyline
       id="polyline807"
       stroke-width="8px"
       stroke="#000000"
       points=" 3935,5313 3935,4932" />
    <!-- Line -->
    <!--  polyline  -->
    <polyline
       id="polyline809"
       stroke-width="8px"
       stroke="#000000"
       points=" 8748,5313 8748,4932" />
    <!-- Line -->
    <!--  polyline  -->
    <polyline
       id="polyline811"
       stroke-width="8px"
       stroke="#000000"
       points=" 8113,5313 8113,4932" />
    <!-- Line -->
    <!--  polyline  -->
    <polyline
       id="polyline813"
       stroke-width="8px"
       stroke="#000000"
       points=" 7732,5313 7732,4932" />
    <!-- Line -->
    <!--  polyline  -->
    <polyline
       id="polyline815"
       stroke-width="8px"
       stroke="#000000"
       points=" 6717,5313 6717,4932" />
    <!-- Line -->
    <!--  polyline  -->
    <polyline
       id="polyline817"
       stroke-width="8px"
       stroke="#000000"
       points=" 6336,5313 6336,4932" />
    <!-- Line -->
    <!--  polyline  -->
    <polyline
       id="polyline819"
       stroke-width="8px"
       stroke="#000000"
       points=" 6081,5313 6081,4932" />
    <!-- Line -->
    <!--  polyline  -->
    <polyline
       id="polyline821"
       stroke-width="8px"
       stroke="#000000"
       points=" 5840,5313 5840,4932" />
    <!-- Line -->
    <!--  polyline  -->
    <polyline
       id="polyline823"
       stroke-width="8px"
       stroke="#000000"
       points=" 4189,5313 4189,4932" />
    <!-- Text -->
    <!--  text  -->
    <text
       id="text825"
       text-anchor="start"
       font-size="144"
       font-weight="normal"
       font-style="normal"
       font-family="Helvetica"
       fill="#000000"
       y="5173"
       x="2284"
       xml:space="preserve">width</text>
    <!-- Text -->
    <!--  text  -->
    <text
       id="text827"
       text-anchor="start"
       font-size="144"
       font-weight="normal"
       font-style="normal"
       font-family="Helvetica"
       fill="#000000"
       y="5173"
       x="4824"
       xml:space="preserve">width</text>
    <!-- Text -->
    <!--  text  -->
    <text
       id="text829"
       text-anchor="start"
       font-size="144"
       font-weight="normal"
       font-style="normal"
       font-family="Helvetica"
       fill="#000000"
       y="5173"
       x="6970"
       xml:space="preserve">width</text>
    <!-- Text -->
    <!--  text  -->
    <g
       id="g833"
       transform="translate(3776,5142) rotate(-90)">
      <text
         id="text831"
         text-anchor="start"
         font-size="144"
         font-weight="normal"
         font-style="normal"
         font-family="Helvetica"
         fill="#000000"
         y="0"
         x="0"
         xml:space="preserve">border-width</text>
    </g>
    <!-- Text -->
    <!--  text  -->
    <g
       id="g837"
       transform="translate(6253,5127) rotate(-92)">
      <text
         id="text835"
         text-anchor="start"
         font-size="144"
         font-weight="normal"
         font-style="normal"
         font-family="Helvetica"
         fill="#000000"
         y="0"
         x="0"
         xml:space="preserve">border-width</text>
    </g>
    <!-- Text -->
    <!--  text  -->
    <g
       id="g841"
       transform="translate(8462,5142) rotate(-90)">
      <text
         id="text839"
         text-anchor="start"
         font-size="144"
         font-weight="normal"
         font-style="normal"
         font-family="Helvetica"
         fill="#000000"
         y="0"
         x="0"
         xml:space="preserve">border-width</text>
    </g>
    <!-- Text -->
    <!--  text  -->
    <g
       id="g845"
       transform="translate(1440,5142) rotate(-90)">
      <text
         id="text843"
         text-anchor="start"
         font-size="144"
         font-weight="normal"
         font-style="normal"
         font-family="Helvetica"
         fill="#000000"
         y="0"
         x="0"
         xml:space="preserve">border-width</text>
    </g>
    <!-- Text -->
    <text
       id="text847"
       text-anchor="start"
       font-size="144"
       font-weight="normal"
       font-style="normal"
       font-family="Helvetica"
       fill="#000000"
       y="9516"
       x="6532"
       xml:space="preserve">table border width</text>
    <!-- Line -->
    <defs
       id="defs852">
      <clipPath
         id="cp0">
        <path
           id="path849"
           d="M 1034,4049 H 8911 V 9631 H 1034 z   M 1313,9134 1373,9134 1350,8991 1336,8991z"
           clip-rule="evenodd" />
      </clipPath>
    </defs>
    <polyline
       id="polyline854"
       stroke-linejoin="bevel"
       stroke-width="8px"
       stroke="#000000"
       clip-path="url(#cp0)"
       points=" 1343,8998 1343,9019 1343,9031 1344,9047 1345,9064 1347,9084  1350,9105 1354,9127 1359,9150 1366,9173 1374,9196 1385,9220 1399,9245 1416,9270  1438,9295 1463,9321 1492,9346 1521,9367 1552,9386 1583,9402 1613,9416 1643,9427  1673,9437 1703,9445 1731,9452 1760,9458 1788,9463 1816,9467 1842,9471 1867,9473  1890,9476 1911,9477 1928,9479 1942,9480 1952,9480 1959,9481 1962,9481 1964,9481 " />
    <!-- Backward arrow to point 1343,8998 -->
    <polygon
       id="polygon856"
       fill="#000000"
       stroke-miterlimit="8"
       stroke-width="8px"
       stroke="#000000"
       points=" 1373,9134 1343,9014 1313,9134 1373,9134" />
    <!-- Line -->
    <defs
       id="defs861">
      <clipPath
         id="cp1">
        <path
           id="path858"
           d="M 1034,4049 H 8911 V 9631 H 1034 z   M 8555,9134 8615,9134 8592,8991 8578,8991z"
           clip-rule="evenodd" />
      </clipPath>
    </defs>
    <polyline
       id="polyline863"
       stroke-linejoin="bevel"
       stroke-width="8px"
       stroke="#000000"
       clip-path="url(#cp1)"
       points=" 8585,8998 8585,9021 8584,9035 8583,9053 8582,9073 8579,9095  8576,9118 8572,9143 8567,9168 8560,9193 8551,9219 8539,9245 8525,9271 8508,9298  8487,9324 8461,9351 8432,9376 8400,9399 8366,9418 8332,9434 8299,9447 8266,9457  8234,9465 8202,9471 8171,9475 8140,9478 8111,9480 8082,9482 8055,9482 8031,9482  8010,9482 7992,9482 7980,9482 7971,9481 7966,9481 7964,9481" />
    <!-- Backward arrow to point 8585,8998 -->
    <polygon
       id="polygon865"
       fill="#000000"
       stroke-miterlimit="8"
       stroke-width="8px"
       stroke="#000000"
       points=" 8615,9134 8585,9014 8555,9134 8615,9134" />
    <!-- Text -->
    <!--  text  -->
    <g
       id="g869"
       transform="translate(1649,5097) rotate(-90)">
      <text
         id="text867"
         text-anchor="start"
         font-size="144"
         font-weight="normal"
         font-style="normal"
         font-family="Helvetica"
         fill="#000000"
         y="0"
         x="0"
         xml:space="preserve">padding</text>
    </g>
    <!-- Text -->
    <text
       id="text871"
       text-anchor="start"
       font-size="144"
       font-weight="normal"
       font-style="normal"
       font-family="Helvetica"
       fill="#000000"
       y="9516"
       x="1992"
       xml:space="preserve">table border width</text>
    <!-- Text -->
    <!--  text  -->
    <g
       id="g875"
       transform="translate(3414,5097) rotate(-90)">
      <text
         id="text873"
         text-anchor="start"
         font-size="144"
         font-weight="normal"
         font-style="normal"
         font-family="Helvetica"
         fill="#000000"
         y="0"
         x="0"
         xml:space="preserve">padding</text>
    </g>
    <!-- Text -->
    <!--  text  -->
    <g
       id="g879"
       transform="translate(4050,5097) rotate(-90)">
      <text
         id="text877"
         text-anchor="start"
         font-size="144"
         font-weight="normal"
         font-style="normal"
         font-family="Helvetica"
         fill="#000000"
         y="0"
         x="0"
         xml:space="preserve">padding</text>
    </g>
    <!-- Text -->
    <!--  text  -->
    <g
       id="g883"
       transform="translate(5942,5097) rotate(-90)">
      <text
         id="text881"
         text-anchor="start"
         font-size="144"
         font-weight="normal"
         font-style="normal"
         font-family="Helvetica"
         fill="#000000"
         y="0"
         x="0"
         xml:space="preserve">padding</text>
    </g>
    <!-- Text -->
    <!--  text  -->
    <g
       id="g887"
       transform="translate(6514,5097) rotate(-90)">
      <text
         id="text885"
         text-anchor="start"
         font-size="144"
         font-weight="normal"
         font-style="normal"
         font-family="Helvetica"
         fill="#000000"
         y="0"
         x="0"
         xml:space="preserve">padding</text>
    </g>
    <!-- Text -->
    <!--  text  -->
    <g
       id="g891"
       transform="translate(7910,5097) rotate(-90)">
      <text
         id="text889"
         text-anchor="start"
         font-size="144"
         font-weight="normal"
         font-style="normal"
         font-family="Helvetica"
         fill="#000000"
         y="0"
         x="0"
         xml:space="preserve">padding</text>
    </g>
    <!-- Line -->
    <!--  polyline  -->
    <polyline
       id="polyline893"
       stroke-width="8px"
       stroke="#000000"
       points=" 1477,8857 8373,8857" />
    <!-- Line -->
    <!--  polyline  -->
    <polyline
       id="polyline895"
       fill="#000000"
       points=" 1585,8890 1451,8857 1585,8823" />
    <!-- Line -->
    <!--  polyline  -->
    <polyline
       id="polyline897"
       stroke-width="8px"
       stroke="#000000"
       points=" 1579,8882 1477,8857 1579,8831" />
    <!-- Line -->
    <!--  polyline  -->
    <polyline
       id="polyline899"
       fill="#000000"
       points=" 8265,8823 8400,8857 8265,8890" />
    <!-- Line -->
    <!--  polyline  -->
    <polyline
       id="polyline901"
       stroke-width="8px"
       stroke="#000000"
       points=" 8272,8831 8373,8857 8272,8882" />
    <!-- Text -->
    <!--  text  -->
    <text
       id="text903"
       text-anchor="start"
       font-size="144"
       font-weight="normal"
       font-style="normal"
       font-family="Helvetica"
       fill="#000000"
       y="9065"
       x="4443"
       xml:space="preserve">row width</text>
    <!-- Line -->
    <!--  polyline  -->
    <polyline
       id="polyline905"
       fill="#000000"
       points=" 3681,8729 3681,8348 3808,8348 3808,8729 3681,8729" />
    <!-- Line -->
    <!--  polyline  -->
    <polyline
       id="polyline907"
       stroke-width="8px"
       stroke="#000000"
       points=" 3681,8729 3681,8348 3808,8348 3808,8729 3681,8729" />
    <!-- Line -->
    <!--  polyline  -->
    <polyline
       id="polyline909"
       fill="#000000"
       points=" 6081,8729 6081,8348 6336,8348 6336,8729 6081,8729" />
    <!-- Line -->
    <!--  polyline  -->
    <polyline
       id="polyline911"
       fill="#000000"
       points=" 1662,8729 1662,8285 1154,8285 1154,8729 1662,8729" />
    <!-- Line -->
    <!--  polyline  -->
    <polyline
       id="polyline913"
       stroke-width="8px"
       stroke="#000000"
       points=" 1662,8729 1662,8285 1154,8285 1154,8729 1662,8729" />
    <!-- Line -->
    <!--  polyline  -->
    <polyline
       id="polyline915"
       fill="#000000"
       points=" 8367,8729 8367,8348 8494,8348 8494,8729 8367,8729" />
    <!-- Line -->
    <!--  polyline  -->
    <polyline
       id="polyline917"
       stroke-width="8px"
       stroke="#000000"
       points=" 8367,8729 8367,8348 8494,8348 8494,8729 8367,8729" />
    <!-- Text -->
    <!--  text  -->
    <text
       id="text919"
       text-anchor="start"
       font-size="144"
       font-weight="normal"
       font-style="normal"
       font-family="Helvetica"
       fill="#000000"
       y="4923"
       x="2303"
       xml:space="preserve">cell</text>
    <!-- Line -->
    <!--  polyline  -->
    <polyline
       id="polyline921"
       stroke-dasharray="60 60"
       stroke-width="15px"
       stroke="#f9123f"
       points=" 1407,8796 1407,5316" />
    <!-- Line -->
    <!--  polyline  -->
    <polyline
       id="polyline923"
       stroke-dasharray="60 60"
       stroke-width="15px"
       stroke="#f9123f"
       points=" 1414,8281 8437,8281" />
    <!-- Line -->
    <!--  polyline  -->
    <polyline
       id="polyline925"
       stroke-dasharray="60 60"
       stroke-width="15px"
       stroke="#f9123f"
       points=" 8431,8796 8431,5316" />
    <!-- Line -->
    <!--  polyline  -->
    <polyline
       id="polyline927"
       stroke-dasharray="60 60"
       stroke-width="15px"
       stroke="#f9123f"
       points=" 6215,5310 6215,9298" />
    <!-- Line -->
    <!--  polyline  -->
    <polyline
       id="polyline929"
       stroke-dasharray="60 60"
       stroke-width="15px"
       stroke="#f9123f"
       points=" 3745,5316 3745,8796" />
    <!-- Text -->
    <!--  text  -->
    <text
       id="text931"
       text-anchor="start"
       font-size="144"
       font-weight="normal"
       font-style="normal"
       font-family="Helvetica"
       fill="#f9123f"
       y="9185"
       x="6278"
       xml:space="preserve">grid line</text>
    <!-- Line -->
    <polyline
       id="polyline933"
       stroke-width="15px"
       stroke="#000000"
       points=" 8428,9079 8428,8858 8428,8967 8749,8967 8749,8868 8749,9079 " />
    <!-- Line -->
    <polyline
       id="polyline935"
       stroke-width="15px"
       stroke="#000000"
       points=" 1279,9018 1280,8895 1280,8967 1405,8967 1405,8899 1405,9020 " />
  </g>
</svg>
