<?xml version="1.0" encoding="UTF-8" standalone="no"?>
<svg
   xmlns:dc="http://purl.org/dc/elements/1.1/"
   xmlns:cc="http://creativecommons.org/ns#"
   xmlns:rdf="http://www.w3.org/1999/02/22-rdf-syntax-ns#"
   xmlns:svg="http://www.w3.org/2000/svg"
   xmlns="http://www.w3.org/2000/svg"
   viewBox="0 0 93.333336 98.666664"
   height="98.666664"
   width="93.333336"
   xml:space="preserve"
   id="svg5364"
   version="1.1"><metadata
     id="metadata5370"><rdf:RDF><cc:Work
         rdf:about=""><dc:format>image/svg+xml</dc:format><dc:type
           rdf:resource="http://purl.org/dc/dcmitype/StillImage" /><dc:title></dc:title></cc:Work></rdf:RDF></metadata><defs
     id="defs5368" /><g
     transform="matrix(1.3333333,0,0,-1.3333333,0,98.666667)"
     id="g5372"><g
       transform="scale(0.1)"
       id="g5374"><path
         id="path5376"
         style="fill:#ffff00;fill-opacity:1;fill-rule:evenodd;stroke:none"
         d="M 32,34 H 672 V 514 H 32 Z" /><path
         id="path5378"
         style="fill:#f91340;fill-opacity:1;fill-rule:evenodd;stroke:none"
         d="M 512,274 H 672 V 514 H 512 Z" /><path
         id="path5380"
         style="fill:none;stroke:#f91340;stroke-width:8;stroke-linecap:butt;stroke-linejoin:miter;stroke-miterlimit:10;stroke-dasharray:none;stroke-opacity:1"
         d="M 512,274 H 672 V 514 H 512 Z" /><path
         id="path5382"
         style="fill:#f91340;fill-opacity:1;fill-rule:evenodd;stroke:none"
         d="M 352,274 H 512 V 514 H 352 Z" /><path
         id="path5384"
         style="fill:none;stroke:#f91340;stroke-width:8;stroke-linecap:butt;stroke-linejoin:miter;stroke-miterlimit:10;stroke-dasharray:none;stroke-opacity:1"
         d="M 352,274 H 512 V 514 H 352 Z" /><path
         id="path5386"
         style="fill:#f91340;fill-opacity:1;fill-rule:evenodd;stroke:none"
         d="M 32,274 H 192 V 514 H 32 Z" /><path
         id="path5388"
         style="fill:none;stroke:#f91340;stroke-width:8;stroke-linecap:butt;stroke-linejoin:miter;stroke-miterlimit:10;stroke-dasharray:none;stroke-opacity:1"
         d="M 32,274 H 192 V 514 H 32 Z" /><path
         id="path5390"
         style="fill:#f91340;fill-opacity:1;fill-rule:evenodd;stroke:none"
         d="M 192,42 H 352 V 514 H 192 Z" /><path
         id="path5392"
         style="fill:none;stroke:#f91340;stroke-width:8;stroke-linecap:butt;stroke-linejoin:miter;stroke-miterlimit:10;stroke-dasharray:none;stroke-opacity:1"
         d="M 192,42 H 352 V 514 H 192 Z" /><path
         id="path5394"
         style="fill:none;stroke:#000000;stroke-width:16;stroke-linecap:butt;stroke-linejoin:miter;stroke-miterlimit:10;stroke-dasharray:none;stroke-opacity:1"
         d="m 201.961,523.961 h 160 v -240 240 h 160 v -240 240 h 160 v -240 h -320 V 43.9609 h -160 V 523.961 H 41.9609 v -240 H 201.961 Z" /><path
         id="path5396"
         style="fill:none;stroke:#000000;stroke-width:16;stroke-linecap:butt;stroke-linejoin:miter;stroke-miterlimit:10;stroke-dasharray:none;stroke-opacity:1"
         d="m 201.961,504.039 h 160 v -240 240 h 160 v -240 240 h 160 v -240 h -320 V 24.0391 h -160 V 504.039 H 41.9609 v -240 H 201.961 Z" /><path
         id="path5398"
         style="fill:none;stroke:#000000;stroke-width:16;stroke-linecap:butt;stroke-linejoin:miter;stroke-miterlimit:10;stroke-dasharray:none;stroke-opacity:1"
         d="m 182.039,504.039 h 160 v -240 240 h 160 v -240 240 h 160 v -240 h -320 V 24.0391 h -160 V 504.039 H 22.0391 v -240 H 182.039 Z" /><path
         id="path5400"
         style="fill:none;stroke:#000000;stroke-width:16;stroke-linecap:butt;stroke-linejoin:miter;stroke-miterlimit:10;stroke-dasharray:none;stroke-opacity:1"
         d="m 182.039,523.961 h 160 v -240 240 h 160 v -240 240 h 160 v -240 h -320 V 43.9609 h -160 V 523.961 H 22.0391 v -240 H 182.039 Z" /><g
         transform="scale(10)"
         id="g5402"><text
           id="text5406"
           style="font-style:oblique;font-variant:normal;font-weight:bold;font-size:9.60000038px;font-family:Helvetica;-inkscape-font-specification:Helvetica-BoldOblique;writing-mode:lr-tb;fill:#000000;fill-opacity:1;fill-rule:nonzero;stroke:none"
           transform="matrix(1,0,0,-1,8.21133,66.3078)"><tspan
             id="tspan5404"
             y="0"
             x="0 16.000032 32.000065 48.000095">1234</tspan></text>
</g><path
         id="path5408"
         style="fill:none;stroke:#ffff00;stroke-width:16;stroke-linecap:butt;stroke-linejoin:miter;stroke-miterlimit:10;stroke-dasharray:none;stroke-opacity:1"
         d="M 192,514 H 352 V 274 514 H 512 V 274 514 H 672 V 274 H 352 V 34 H 192 V 514 H 32 V 274 h 160 z" /><path
         id="path5410"
         style="fill:none;stroke:#000000;stroke-width:7.5;stroke-linecap:butt;stroke-linejoin:miter;stroke-miterlimit:10;stroke-dasharray:none;stroke-opacity:1"
         d="M 113.055,406.359 V 616.531" /><path
         id="path5412"
         style="fill:none;stroke:#000000;stroke-width:7.5;stroke-linecap:butt;stroke-linejoin:miter;stroke-miterlimit:10;stroke-dasharray:none;stroke-opacity:1"
         d="M 425.441,406.359 V 616.531" /><path
         id="path5414"
         style="fill:none;stroke:#000000;stroke-width:7.5;stroke-linecap:butt;stroke-linejoin:miter;stroke-miterlimit:10;stroke-dasharray:none;stroke-opacity:1"
         d="M 288.824,406.359 V 616.531" /><path
         id="path5416"
         style="fill:none;stroke:#000000;stroke-width:7.5;stroke-linecap:butt;stroke-linejoin:miter;stroke-miterlimit:10;stroke-dasharray:none;stroke-opacity:1"
         d="M 584.977,406.359 V 616.531" /></g></g></svg>